<svg width="70" height="70" viewBox="0 0 70 70" fill="none" xmlns="http://www.w3.org/2000/svg">
<path d="M28.2524 1.4433C39.5643 2.02062 47.7189 6.85567 52.8787 16.5799C53.0411 16.8866 53.3478 17.1753 53.6545 17.3376C62.0076 21.7397 67.0591 28.5593 68.3761 37.9227C70.3968 52.2113 60.7627 65.4536 46.5823 68.1237C34.7834 70.3428 22.7859 64.3531 17.4457 53.6005C17.2833 53.2577 16.9225 52.933 16.5797 52.7526C8.60551 48.5309 3.59005 42.0361 2.07458 33.1237C-0.379025 18.7268 8.60551 5.44845 22.8581 2.20103C24.7524 1.76804 26.7189 1.64175 28.2524 1.4433ZM41.6931 16.6881C27.9457 16.6881 16.7782 27.7835 16.7782 41.4588C16.7782 55.2062 27.8555 66.3737 41.5308 66.3918C55.2962 66.4278 66.4818 55.2784 66.4818 41.5129C66.4998 27.8557 55.3504 16.6881 41.6931 16.6881ZM14.5952 43.4253C14.3607 38.6082 15.2808 34.0258 17.3555 29.6778C16.6519 29.6418 16.6519 29.6418 16.3272 30.201C15.6055 31.4278 14.1622 32.0412 12.7911 31.6985C11.3478 31.3376 10.3375 30.1469 10.3014 28.7216C10.2473 27.2423 11.1132 25.9433 12.4663 25.4923C13.8194 25.0232 15.4431 25.4742 16.1467 26.7191C16.5437 27.4407 17.0127 27.567 17.6983 27.4768C18.023 27.4407 18.4921 27.5129 18.6364 27.3325C19.1416 26.7371 19.5385 26.0335 20.0076 25.3299C19.6828 25.3299 19.4483 25.3299 19.2318 25.3299C18.2576 25.3299 17.8787 24.951 17.8787 23.9948C17.8787 23.4717 17.8607 22.9665 17.8787 22.4433C17.8967 22.0644 17.7885 21.866 17.4277 21.6675C16.3632 21.1263 15.804 20.2062 15.7138 19.0155C15.6055 17.3918 16.7241 15.9845 18.3117 15.6418C19.8452 15.317 21.4328 16.2191 21.9741 17.7165C22.5153 19.2139 21.9199 20.8918 20.4947 21.6495C20.1158 21.8479 19.9535 22.0464 20.0076 22.4613C20.0437 22.6778 20.0076 22.8943 20.0076 23.1649C20.2782 23.1649 20.5127 23.1469 20.7292 23.1649C21.505 23.2732 22.0282 22.9485 22.6055 22.4253C23.8684 21.2526 25.2035 20.116 26.6107 19.1418C27.3864 18.6186 27.6931 18.0954 27.6029 17.1933C27.5488 16.7423 27.5127 16.4536 27.0437 16.2191C25.7447 15.5335 25.1493 14 25.5282 12.5928C25.9071 11.1675 27.188 10.1933 28.6674 10.2113C30.1467 10.2113 31.3916 11.1856 31.7885 12.6289C32.1674 14.0541 31.554 15.5696 30.255 16.2552C29.7859 16.5077 29.6416 16.7603 29.804 17.2655C34.1519 15.1727 38.7163 14.2887 43.5334 14.5232C38.3014 9.20103 32.005 6.90979 24.6803 8.38917C16.1648 10.1211 10.6442 15.4253 8.60551 23.8686C6.80139 31.4098 9.07458 37.9768 14.5952 43.4253ZM49.9199 15.768C45.0849 7.55928 35.0359 2.12887 24.0488 4.13144C13.5488 6.04381 5.37613 14.6675 4.005 25.5825C2.68799 35.9923 8.22665 45.3737 15.8761 49.7938C15.6777 48.9639 15.5153 48.1701 15.2627 47.4124C15.1364 47.0335 14.9199 46.6186 14.6313 46.384C7.05396 40.3582 4.0952 30.3454 7.21634 21.1985C10.6622 11.0954 20.8736 4.67268 31.4096 6.02577C37.5797 6.81959 42.6313 9.6701 46.5102 14.5412C46.6545 14.7216 46.7808 14.9562 46.9792 15.0103C47.9174 15.299 48.8736 15.5155 49.9199 15.768ZM29.7498 13.4588C29.7498 12.8814 29.2808 12.3763 28.7035 12.3582C28.1261 12.3402 27.621 12.8093 27.5849 13.3866C27.5488 14 28.054 14.5232 28.6674 14.5232C29.2447 14.5232 29.7318 14.0361 29.7498 13.4588ZM18.9612 17.7706C18.3839 17.7526 17.8787 18.2217 17.8607 18.817C17.8426 19.4304 18.3478 19.9356 18.9431 19.9356C19.5205 19.9356 20.0076 19.4485 20.0076 18.8531C20.0256 18.2577 19.5385 17.7706 18.9612 17.7706ZM14.6132 28.5773C14.6132 28 14.1442 27.5129 13.5488 27.4948C12.9354 27.4768 12.4303 27.982 12.4483 28.5954C12.4663 29.1727 12.9535 29.6598 13.5308 29.6418C14.1261 29.6418 14.6132 29.1546 14.6132 28.5773Z" fill="#F57D8D"/>
<path d="M18.9431 41.4948C18.9612 28.9923 29.1545 18.817 41.621 18.835C54.1957 18.8531 64.3529 29.0464 64.3349 41.6031C64.3169 54.1778 54.1055 64.2448 41.4225 64.2268C29.0643 64.2088 18.9251 53.9613 18.9431 41.4948ZM21.1081 41.5309C21.1081 52.8067 30.273 62.0438 41.5308 62.0618C52.9148 62.0979 62.1519 52.8969 62.1699 41.5309C62.188 30.2732 52.9869 21.018 41.7473 21C30.3272 21 21.1081 30.1649 21.1081 41.5309Z" fill="#F57D8D"/>
<path d="M44.8686 33.9716C46.0412 33.9716 47.0155 34.9278 47.0335 36.1005C47.0516 37.2912 46.0773 38.3015 44.8686 38.3015C43.6778 38.3015 42.6856 37.3093 42.7036 36.1005C42.7397 34.9278 43.6959 33.9716 44.8686 33.9716Z" fill="#F57D8D"/>
<path d="M47.0333 46.9253C47.0513 48.116 46.0591 49.1083 44.8683 49.1083C43.6957 49.1083 42.7214 48.134 42.7214 46.9613C42.7034 45.7526 43.6957 44.7784 44.8864 44.7784C46.0591 44.7964 47.0333 45.7526 47.0333 46.9253Z" fill="#F57D8D"/>
<path d="M36.2268 46.9072C36.2449 45.7165 37.2552 44.7423 38.4459 44.7783C39.6186 44.8144 40.5567 45.8067 40.5387 46.9794C40.5206 48.1701 39.5103 49.1443 38.3196 49.1082C37.165 49.0722 36.2088 48.0799 36.2268 46.9072Z" fill="#F57D8D"/>
<path d="M48.1159 39.384C49.2886 39.384 50.2628 40.3402 50.2808 41.5129C50.2989 42.7036 49.3246 43.7139 48.1159 43.7139C46.9432 43.7139 45.969 42.7577 45.9509 41.5851C45.9329 40.3763 46.9071 39.384 48.1159 39.384Z" fill="#F57D8D"/>
<path d="M35.0901 43.6959C33.8994 43.6598 32.9432 42.6495 32.9793 41.4407C33.0153 40.268 34.0257 39.3479 35.1983 39.366C36.3891 39.4021 37.3452 40.4124 37.3092 41.6211C37.2731 42.7938 36.2628 43.732 35.0901 43.6959Z" fill="#F57D8D"/>
<path d="M40.5565 36.1546C40.5565 37.3454 39.5462 38.3196 38.3555 38.3016C37.1828 38.2835 36.2266 37.2912 36.2446 36.1186C36.2446 34.9098 37.2549 33.9536 38.4457 33.9717C39.6003 33.9897 40.5565 34.982 40.5565 36.1546Z" fill="#F57D8D"/>
<path d="M36.2267 30.7603C36.2086 31.3376 35.7215 31.8248 35.1442 31.8248C34.5308 31.8248 34.0437 31.3016 34.0798 30.6882C34.1158 30.1108 34.621 29.6418 35.1983 29.6598C35.7756 29.6778 36.2447 30.165 36.2267 30.7603Z" fill="#F57D8D"/>
<path d="M48.0979 29.6598C48.6752 29.6598 49.1804 30.1289 49.1984 30.7062C49.2164 31.3196 48.7113 31.8247 48.0979 31.8247C47.5206 31.8067 47.0334 31.3196 47.0334 30.7423C47.0334 30.1469 47.5206 29.6598 48.0979 29.6598Z" fill="#F57D8D"/>
<path d="M42.7216 31.8608C42.6855 32.4381 42.1803 32.9072 41.603 32.8892C40.9896 32.8711 40.5206 32.3299 40.5566 31.7165C40.6108 31.1392 41.1159 30.6881 41.7113 30.7242C42.2886 30.7783 42.7396 31.2835 42.7216 31.8608Z" fill="#F57D8D"/>
<path d="M28.6494 32.8892C29.2267 32.8892 29.7319 33.3582 29.7499 33.9356C29.768 34.549 29.2628 35.0541 28.6494 35.0541C28.0721 35.0361 27.585 34.549 27.585 33.9716C27.585 33.3763 28.0721 32.9072 28.6494 32.8892Z" fill="#F57D8D"/>
<path d="M55.6752 33.9536C55.6932 34.5309 55.2241 35.0361 54.6468 35.0541C54.0695 35.0721 53.5643 34.6211 53.5283 34.0258C53.4922 33.4124 53.9793 32.8892 54.5927 32.8892C55.17 32.8892 55.6571 33.3582 55.6752 33.9536Z" fill="#F57D8D"/>
<path d="M32.9974 37.165C33.0335 36.5876 33.5206 36.1186 34.1159 36.1366C34.6933 36.1547 35.1623 36.6418 35.1623 37.2371C35.1443 37.8505 34.6211 38.3376 34.0077 38.3016C33.4123 38.2655 32.9613 37.7423 32.9974 37.165Z" fill="#F57D8D"/>
<path d="M49.1804 36.1366C49.7577 36.1186 50.2629 36.6057 50.2809 37.183C50.299 37.7964 49.7938 38.3015 49.1804 38.3015C48.6031 38.2835 48.116 37.8144 48.116 37.2191C48.116 36.6237 48.585 36.1546 49.1804 36.1366Z" fill="#F57D8D"/>
<path d="M51.3633 26.3943C51.3813 26.9716 50.8942 27.4768 50.3169 27.4948C49.7396 27.5129 49.2344 27.0438 49.1984 26.4665C49.1623 25.8531 49.6674 25.3299 50.2808 25.3299C50.8581 25.3299 51.3453 25.799 51.3633 26.3943Z" fill="#F57D8D"/>
<path d="M26.5025 41.549C26.5025 42.1263 26.0154 42.6134 25.4381 42.6134C24.8247 42.6134 24.3195 42.1083 24.3556 41.4948C24.3736 40.8995 24.8788 40.4485 25.4561 40.4485C26.0334 40.4665 26.5025 40.9536 26.5025 41.549Z" fill="#F57D8D"/>
<path d="M29.768 40.4665C30.3453 40.4845 30.8324 40.9717 30.8324 41.549C30.8324 42.1624 30.3093 42.6495 29.6958 42.6315C29.1185 42.5954 28.6495 42.0902 28.6675 41.5129C28.6855 40.9175 29.1727 40.4485 29.768 40.4665Z" fill="#F57D8D"/>
<path d="M53.5463 42.6134C52.969 42.6314 52.4638 42.1624 52.4458 41.585C52.4278 40.9716 52.9149 40.4665 53.5283 40.4665C54.1056 40.4665 54.5927 40.9536 54.6107 41.5309C54.6107 42.1082 54.1236 42.6134 53.5463 42.6134Z" fill="#F57D8D"/>
<path d="M57.8581 42.6134C57.2807 42.6314 56.7756 42.1624 56.7575 41.567C56.7395 40.9536 57.2447 40.4485 57.8581 40.4485C58.4354 40.4485 58.9225 40.9356 58.9225 41.5309C58.9225 42.1263 58.4354 42.6134 57.8581 42.6134Z" fill="#F57D8D"/>
<path d="M35.1442 45.8608C35.1442 46.4381 34.6751 46.9433 34.0978 46.9433C33.5205 46.9613 33.0154 46.4923 32.9973 45.8969C32.9793 45.2835 33.4664 44.7784 34.0798 44.7784C34.6571 44.7964 35.1442 45.2655 35.1442 45.8608Z" fill="#F57D8D"/>
<path d="M32.9792 25.3299C33.5565 25.3299 34.0617 25.799 34.0617 26.3763C34.0797 26.9897 33.5746 27.4948 32.9612 27.4768C32.3839 27.4588 31.8968 26.9716 31.9148 26.3943C31.9148 25.817 32.3839 25.3299 32.9792 25.3299Z" fill="#F57D8D"/>
<path d="M42.7215 25.2938C42.7396 25.8711 42.2705 26.3763 41.6932 26.3943C41.1159 26.4124 40.6107 25.9613 40.5746 25.366C40.5386 24.7526 41.0257 24.2294 41.6391 24.2294C42.2164 24.2474 42.7035 24.7165 42.7215 25.2938Z" fill="#F57D8D"/>
<path d="M49.1804 46.9433C48.6031 46.9433 48.116 46.4562 48.116 45.8789C48.116 45.2654 48.6211 44.7603 49.2345 44.7964C49.8118 44.8144 50.2809 45.3196 50.2809 45.8969C50.2629 46.4742 49.7758 46.9433 49.1804 46.9433Z" fill="#F57D8D"/>
<path d="M29.7499 49.1263C29.7499 49.7036 29.2628 50.1907 28.6674 50.1907C28.054 50.1907 27.5669 49.6675 27.585 49.0541C27.603 48.4768 28.1082 48.0077 28.7035 48.0258C29.2808 48.0438 29.7499 48.5309 29.7499 49.1263Z" fill="#F57D8D"/>
<path d="M55.6752 49.1083C55.6752 49.6856 55.1881 50.1727 54.6108 50.1907C53.9973 50.1907 53.4922 49.6856 53.5102 49.0722C53.5283 48.4768 54.0154 48.0258 54.6108 48.0258C55.2061 48.0438 55.6752 48.5129 55.6752 49.1083Z" fill="#F57D8D"/>
<path d="M41.6391 50.1907C42.2164 50.1907 42.7035 50.6778 42.7216 51.2552C42.7396 51.8686 42.2164 52.3737 41.603 52.3557C41.0257 52.3376 40.5566 51.8505 40.5566 51.2552C40.5566 50.6598 41.0438 50.1907 41.6391 50.1907Z" fill="#F57D8D"/>
<path d="M35.1803 51.2732C35.7576 51.2912 36.2448 51.7783 36.2267 52.3737C36.2267 52.951 35.7396 53.4381 35.1442 53.4381C34.5308 53.4381 34.0437 52.9149 34.0618 52.3015C34.0978 51.7062 34.603 51.2552 35.1803 51.2732Z" fill="#F57D8D"/>
<path d="M49.1983 52.3557C49.1983 52.933 48.7112 53.4201 48.1339 53.4381C47.5205 53.4381 47.0153 52.933 47.0514 52.3196C47.0694 51.7242 47.5746 51.2732 48.1519 51.2732C48.7292 51.2732 49.1983 51.7603 49.1983 52.3557Z" fill="#F57D8D"/>
<path d="M32.9792 55.5851C33.5565 55.5851 34.0436 56.0541 34.0617 56.6495C34.0797 57.2629 33.5565 57.768 32.9431 57.75C32.3658 57.732 31.8787 57.2448 31.8967 56.6495C31.9148 56.0722 32.4019 55.5851 32.9792 55.5851Z" fill="#F57D8D"/>
<path d="M50.2627 57.75C49.6854 57.75 49.1982 57.2629 49.1982 56.6675C49.1982 56.0541 49.7034 55.549 50.3168 55.585C50.8941 55.6031 51.3632 56.1082 51.3451 56.6856C51.3451 57.2809 50.858 57.75 50.2627 57.75Z" fill="#F57D8D"/>
<path d="M41.621 58.8325C41.0437 58.8325 40.5566 58.3454 40.5386 57.768C40.5386 57.1546 41.0437 56.6495 41.6571 56.6675C42.2344 56.6856 42.7035 57.1907 42.7035 57.768C42.7035 58.3634 42.2164 58.8325 41.621 58.8325Z" fill="#F57D8D"/>
</svg>
