<svg width="70" height="70" viewBox="0 0 70 70" fill="none" xmlns="http://www.w3.org/2000/svg">
<path d="M68.2204 22.5424C67.7628 23.4746 67.2035 24.2881 66.0848 24.4915C65.8136 24.5424 65.5425 24.5593 65.2713 24.5593C62.2543 24.5593 59.2204 24.5593 56.2035 24.5593C55.9831 24.5593 55.7458 24.5593 55.4916 24.5593C55.4916 26.2203 55.4916 27.8305 55.4916 29.4407C55.4916 31.8814 54.1696 33.2034 51.7289 33.2034C49.4916 33.2034 47.2543 33.2034 45.0001 33.2034C44.4238 33.2034 44.0001 33 43.8645 32.4068C43.7289 31.7627 44.2035 31.2881 44.9662 31.2881C47.2204 31.2881 49.4916 31.2881 51.7458 31.2881C53.0509 31.2881 53.5594 30.7966 53.5424 29.4915C53.5424 27.5254 53.6102 25.5593 53.4747 23.5932C53.2035 19.4576 49.6441 16.1356 45.4916 16.0508C43.8645 16.017 42.2374 16.0339 40.6103 16.0508C36.0679 16.0847 32.4408 19.6271 32.3221 24.1695C32.2713 26 32.3052 27.8475 32.3221 29.6949C32.3221 30.7458 32.8984 31.2881 33.9492 31.2881C36.034 31.2881 38.1357 31.2881 40.2204 31.2881C40.8475 31.2881 41.2713 31.678 41.2882 32.2203C41.3052 32.7627 40.8814 33.1525 40.2543 33.1864C40.1865 33.1864 40.1357 33.1864 40.0679 33.1864C38.0001 33.1864 35.9323 33.2034 33.8475 33.1864C31.8475 33.1695 30.4408 31.7627 30.4069 29.7458C30.3899 28.0339 30.4069 26.322 30.4069 24.5593C30.1696 24.5593 29.9492 24.5593 29.7458 24.5593C26.695 24.5593 23.6611 24.5593 20.6102 24.5593C18.7797 24.5593 17.6611 23.4576 17.678 21.661C17.695 20.3729 17.6272 19.0508 17.8984 17.8136C18.4747 15.1186 20.1865 13.3051 22.7289 12.2881C22.8475 12.2373 22.9662 12.2034 23.0848 12.1525C23.1018 12.1525 23.1187 12.1356 23.1696 12.0847C21.9831 10.7966 21.373 9.28814 21.5594 7.54237C21.7119 6.05085 22.3899 4.81356 23.5255 3.83051C25.695 1.9661 28.9492 2.08475 31.034 4.08475C32.9153 5.89831 33.6102 9.32204 31.0848 12.1186C32.9662 12.7458 34.4238 13.8814 35.4408 15.4915C36.4238 15.1017 37.3221 14.7288 38.2204 14.3729C34.4577 10.9153 35.2882 5.94915 37.9492 3.49153C40.8306 0.813561 45.2204 0.847459 48.034 3.55932C50.6611 6.1017 51.373 10.9322 47.678 14.3559C48.5763 14.7288 49.4916 15.0847 50.4577 15.4746C51.4747 13.8983 52.8984 12.7288 54.8306 12.1186C53.4577 10.6271 52.8984 8.93221 53.2713 6.98305C53.5255 5.62712 54.2374 4.52543 55.3391 3.66102C57.5255 1.9661 60.5933 2.11865 62.5933 4C64.8475 6.13559 64.9153 9 62.7289 12.1017C64.1696 12.5763 65.3899 13.3729 66.373 14.5254C67.1526 15.4576 67.7119 16.5254 67.9831 17.7119C68.034 17.9153 68.1357 18.1186 68.2035 18.322C68.2204 19.7458 68.2204 21.1525 68.2204 22.5424ZM33.9323 16.661C32.8984 15 31.4916 13.9153 29.5764 13.7797C27.8984 13.661 26.1865 13.6441 24.5255 13.7966C21.9153 14.0339 19.7289 16.5085 19.6272 19.1356C19.5933 19.9322 19.6102 20.7458 19.6102 21.5424C19.6102 22.4237 19.8475 22.6441 20.7458 22.6441C23.8475 22.6441 26.9492 22.6441 30.0679 22.6441C30.2374 22.6441 30.3899 22.6271 30.5933 22.6271C31.017 20.2712 32.1357 18.3051 33.9323 16.661ZM55.3221 22.5932C55.3899 22.6271 55.4238 22.6441 55.4747 22.6441C58.7967 22.6441 62.1018 22.661 65.4238 22.6441C66.017 22.6441 66.3052 22.339 66.3052 21.7288C66.3221 20.9322 66.3221 20.1186 66.3052 19.322C66.2204 16.7627 64.4408 14.4746 61.9323 13.9153C59.8984 13.4746 57.8136 13.5254 55.7628 13.8644C54.0848 14.1525 52.8475 15.1695 51.9831 16.661C53.7967 18.3051 54.8984 20.2881 55.3221 22.5932ZM37.5933 8.76271C37.5933 11.7119 39.9831 14.1186 42.9323 14.1356C45.8984 14.1525 48.3221 11.7288 48.3221 8.74576C48.3221 5.77966 45.9323 3.38983 42.9831 3.37288C40.017 3.37288 37.5933 5.79661 37.5933 8.76271ZM58.7797 11.7797C60.8306 11.7797 62.4916 10.1017 62.4747 8.0678C62.4577 6.0678 60.7967 4.40678 58.7967 4.40678C56.7628 4.38983 55.0679 6.05085 55.0679 8.08475C55.0679 10.1186 56.7289 11.7966 58.7797 11.7797ZM27.1526 11.7797C29.2035 11.7797 30.8475 10.1356 30.8306 8.08475C30.8136 6.0678 29.1865 4.42373 27.1696 4.40678C25.1357 4.38983 23.4408 6.0678 23.4408 8.08475C23.4408 10.1186 25.1018 11.7797 27.1526 11.7797Z" fill="#F57D8D"/>
<path d="M68.2203 49.4407C68.1695 49.5085 68.1017 49.5593 68.0847 49.6271C67.5085 51.4407 66.2542 52.6271 64.5593 53.3898C57.8814 56.3559 51.1695 59.2542 44.5085 62.2881C41.3729 63.7119 38.3051 63.7966 35.1525 62.4576C33.7119 61.8475 32.2373 61.339 30.8136 60.7119C27.5424 59.3051 24.2542 59.5593 20.983 60.678C19.6102 61.1525 18.2712 61.7119 16.8983 62.2203C16.1525 62.4915 15.6441 62.339 15.4237 61.7458C15.2034 61.1695 15.4576 60.7119 16.2373 60.4407C18.5085 59.661 20.7458 58.7627 23.0678 58.1695C25.8305 57.4746 28.5932 57.7288 31.2712 58.8305C32.9153 59.5085 34.5593 60.1356 36.2034 60.7966C38.661 61.7966 41.0508 61.7288 43.4915 60.6271C50.2203 57.6102 56.9661 54.6441 63.7119 51.661C64.1695 51.4576 64.6102 51.1864 65 50.8814C66.2881 49.8644 66.6271 48.5424 66 47.2542C65.3729 45.9661 64.0678 45.4068 62.5085 45.8475C59.678 46.6441 56.8475 47.5254 54.0169 48.3559C51.4915 49.1017 48.9661 49.8475 46.4407 50.6102C46.1695 50.6949 45.8814 50.8983 45.7458 51.1356C44.7627 52.7119 43.2881 53.3898 41.4576 52.9491C38.4237 52.2373 35.3898 51.4746 32.3559 50.7288C31.6271 50.5424 31.3051 50.1186 31.4237 49.5424C31.5593 48.9661 32.0508 48.7288 32.7797 48.8983C35.7119 49.6102 38.6441 50.3051 41.5763 51.0169C42.8475 51.322 43.6102 51.0508 44.1017 50.0847C44.6441 49.0508 44.4237 47.6441 43.6102 46.9322C43.3898 46.7458 43.1356 46.5593 42.8644 46.4576C39.4407 45.1017 36.0169 43.7458 32.5593 42.4576C31.8814 42.2034 31.1186 42.1017 30.3898 42.1017C28.1017 42.1017 25.8136 42.1186 23.5424 42.2712C20.7119 42.4746 18.2542 43.7797 15.8305 45.1186C15.5932 45.2542 15.339 45.3729 15.1186 45.5424C12.4068 47.7119 9.18644 48.6949 5.88135 49.4407C5.27118 49.5763 5.10169 49.8475 5.11864 50.4576C5.15254 54.8983 5.13559 59.339 5.13559 63.7797C5.13559 64 5.13559 64.2373 5.13559 64.5763C5.44067 64.4746 5.64406 64.4237 5.84745 64.3559C7.71186 63.6441 9.59322 62.9322 11.4576 62.2373C12.2542 61.9322 12.7797 62.0847 13 62.678C13.2034 63.2712 12.9152 63.7288 12.1186 64.0339C10 64.8475 7.88135 65.6441 5.76271 66.4576C5.42372 66.4576 5.08474 66.4576 4.74576 66.4576C3.50847 65.8814 3.18644 64.8983 3.20339 63.5763C3.25423 59.1186 3.22033 54.661 3.22033 50.1864C3.22033 48.7458 3.76271 48.0508 5.13559 47.678C6.44067 47.322 7.76271 47.0508 9.03389 46.5932C10.1864 46.1695 11.3559 45.678 12.3898 45.0169C14.8644 43.4237 17.3729 41.8813 20.2034 41.0508C21.7458 40.5932 23.3898 40.3729 25 40.2881C27.2542 40.1695 29.5424 40.1186 31.7627 40.3559C33.3051 40.5254 34.7966 41.2034 36.2712 41.7458C38.339 42.5254 40.3559 43.4407 42.4407 44.2034C44.5424 44.983 46.1695 46.1017 46.2881 48.6441C47.7966 48.2034 49.2203 47.7627 50.6441 47.3559C54.5085 46.2203 58.3559 45.0339 62.2373 44C65.0678 43.2373 67.4237 44.7966 68.0678 47.678C68.0847 47.7288 68.1356 47.7627 68.1695 47.8136C68.2203 48.339 68.2203 48.8983 68.2203 49.4407Z" fill="#F57D8D"/>
</svg>
