<svg width="72" height="70" viewBox="0 0 72 70" fill="none" xmlns="http://www.w3.org/2000/svg">
<path d="M68.662 36.288C68.592 36.414 68.48 36.526 68.438 36.652C67.766 38.598 66.24 39.788 64.182 39.802C58.568 39.83 52.954 39.83 47.326 39.802C45.408 39.788 44.008 38.36 43.966 36.428C43.938 34.986 43.924 33.558 43.98 32.116C43.994 31.738 44.176 31.29 44.442 31.024C46.57 28.84 48.74 26.698 50.896 24.542C51.288 24.15 51.736 23.968 52.254 24.192C52.772 24.416 52.954 24.864 52.954 25.41C52.954 27.188 52.954 28.966 52.954 30.814C53.206 30.814 53.43 30.814 53.64 30.814C56.902 30.814 60.178 30.814 63.44 30.814C66.296 30.814 67.584 31.724 68.564 34.398C68.578 34.426 68.634 34.44 68.662 34.454C68.662 35.07 68.662 35.672 68.662 36.288ZM50.7 28.126C50.658 28.098 50.602 28.056 50.56 28.028C49.16 29.442 47.746 30.856 46.346 32.284C46.234 32.396 46.192 32.634 46.192 32.816C46.178 33.922 46.178 35.042 46.192 36.148C46.206 37.156 46.626 37.576 47.62 37.576C53.052 37.576 58.498 37.576 63.93 37.576C64.126 37.576 64.322 37.562 64.518 37.52C65.904 37.268 66.702 35.952 66.282 34.636C65.96 33.614 65.106 33.068 63.776 33.068C59.954 33.068 56.118 33.068 52.296 33.068C50.994 33.068 50.7 32.76 50.686 31.444C50.7 30.324 50.7 29.218 50.7 28.126Z" fill="#F57D8D"/>
<path d="M68.6621 11.97C68.5781 12.18 68.4801 12.39 68.4241 12.6C67.4161 16.744 63.9021 19.558 59.7161 19.586C55.5301 19.6 51.9601 16.8 50.9381 12.67C49.6921 7.686 53.1781 2.506 58.2461 1.764C63.2581 1.036 67.5981 4.172 68.5221 9.17C68.5361 9.24 68.6061 9.296 68.6481 9.366C68.6621 10.234 68.6621 11.102 68.6621 11.97ZM52.9541 10.598C52.9401 14.308 55.9641 17.332 59.6461 17.346C63.3281 17.36 66.3941 14.322 66.4081 10.64C66.4221 6.986 63.3561 3.892 59.6881 3.878C56.0201 3.864 52.9681 6.916 52.9541 10.598Z" fill="#F57D8D"/>
<path d="M37.89 49.56C37.54 49.28 37.26 49.098 37.036 48.874C34.376 46.228 31.716 43.596 29.098 40.936C26.9 38.71 26.984 35.518 29.238 33.544C31.044 31.962 33.83 31.934 35.636 33.516C36.252 34.062 36.826 34.664 37.414 35.252C41.236 39.074 45.058 42.882 48.866 46.704C51.26 49.126 51.274 52.822 48.824 54.936C47.998 55.65 47.004 56.182 46.024 56.714C41.446 59.206 36.854 61.67 32.262 64.134C30.414 65.128 28.552 65.1 26.858 63.854C25.15 62.594 24.408 60.83 24.758 58.702C25.024 57.05 26.032 55.888 27.502 55.104C30.904 53.298 34.292 51.492 37.89 49.56ZM48.39 51.268C48.432 49.756 47.928 48.916 47.172 48.16C43.014 44.002 38.856 39.844 34.698 35.686C34.544 35.532 34.39 35.378 34.222 35.238C32.99 34.258 31.212 34.51 30.316 35.784C29.518 36.918 29.7 38.318 30.82 39.438C33.9 42.518 36.98 45.598 40.06 48.678C41.124 49.742 41.026 50.442 39.71 51.142C35.972 53.13 32.234 55.118 28.496 57.12C26.998 57.918 26.536 59.458 27.306 60.942C28.076 62.426 29.63 62.958 31.114 62.16C36.294 59.374 41.474 56.574 46.64 53.76C47.76 53.158 48.348 52.164 48.39 51.268Z" fill="#F57D8D"/>
<path d="M34.866 16.254C34.726 16.464 34.614 16.702 34.446 16.87C31.324 20.006 28.202 23.128 25.066 26.25C23.064 28.238 20.334 28.476 18.276 26.852C16.092 25.116 15.756 21.966 17.534 19.824C17.716 19.6 17.912 19.404 18.108 19.194C22.308 14.994 26.522 10.78 30.722 6.57999C32.164 5.13799 33.858 4.42399 35.916 4.75999C37.162 4.95599 38.198 5.57199 39.08 6.43999C42.258 9.60399 45.45 12.768 48.6 15.96C51.176 18.578 50.532 22.512 47.312 24.094C45.436 25.018 43.21 24.57 41.516 22.89C39.486 20.874 37.484 18.858 35.468 16.842C35.314 16.688 35.16 16.534 34.866 16.254ZM45.268 22.372C45.66 22.26 46.08 22.19 46.444 22.022C48.18 21.182 48.446 18.998 47.004 17.542C43.91 14.42 40.788 11.312 37.68 8.20399C35.93 6.45399 34.04 6.45399 32.276 8.23199C28.104 12.404 23.932 16.576 19.76 20.748C19.55 20.958 19.326 21.182 19.158 21.434C18.122 22.89 18.766 24.92 20.46 25.494C21.664 25.9 22.658 25.522 23.54 24.64C26.956 21.224 30.372 17.808 33.788 14.392C34.81 13.37 35.202 13.384 36.224 14.406C38.534 16.716 40.844 19.026 43.154 21.336C43.714 21.91 44.386 22.316 45.268 22.372Z" fill="#F57D8D"/>
<path d="M6.88004 68.446C4.51404 68.516 3.04404 67.452 2.19004 65.576C1.36404 63.756 1.65804 62.006 2.90404 60.438C3.11404 60.186 3.33804 59.948 3.56204 59.71C9.96004 53.312 16.358 46.9 22.77 40.502C23.75 39.522 24.184 39.522 25.164 40.502C26.746 42.084 28.342 43.666 29.924 45.262C30.722 46.06 30.722 46.564 29.91 47.362C23.4 53.872 16.89 60.382 10.38 66.892C9.35804 67.928 8.18204 68.614 6.88004 68.446ZM23.932 42.546C23.862 42.616 23.792 42.672 23.736 42.728C17.492 48.986 11.234 55.23 4.99004 61.488C4.82204 61.656 4.65404 61.838 4.51404 62.034C3.85604 62.944 3.82804 64.162 4.45804 65.1C5.46604 66.612 7.44004 66.71 8.84004 65.296C15.056 59.08 21.286 52.864 27.502 46.634C27.6 46.536 27.684 46.41 27.74 46.34C26.452 45.08 25.206 43.834 23.932 42.546Z" fill="#F57D8D"/>
</svg>
