<svg width="60" height="70" viewBox="0 0 60 70" fill="none" xmlns="http://www.w3.org/2000/svg">
<path d="M31.0546 1.05462C31.2655 1.13372 31.4764 1.19963 31.7005 1.27873C33.3352 1.80604 34.4162 3.22977 34.5348 5.02261C34.5612 5.43127 34.5348 5.85312 34.5348 6.34088C34.8116 6.34088 35.0489 6.34088 35.2862 6.34088C38.3578 6.34088 41.4425 6.34088 44.5141 6.34088C46.6497 6.34088 48.0602 7.69869 47.9943 9.83428C47.9679 10.7571 48.2052 11.2448 49.0753 11.5876C49.8003 11.8644 50.4463 12.3522 51.2504 12.8136C51.5932 12.4576 51.9623 12.0358 52.3578 11.6403C53.7683 10.2561 55.7457 10.2166 57.064 11.5217C58.3823 12.8268 58.3427 14.8437 56.9585 16.2279C53.096 20.1036 49.2335 23.9661 45.3578 27.8286C43.8813 29.2919 41.9698 29.3051 40.5065 27.8418C38.7269 26.0753 36.9604 24.3089 35.1939 22.5292C33.7966 21.1318 33.757 19.1413 35.0753 17.823C36.3804 16.5047 38.3841 16.5443 39.7815 17.9153C40.7966 18.9171 41.8116 19.9322 42.8135 20.9341C42.8267 20.9473 42.8531 20.9605 42.8135 20.9341C45.0678 18.6667 47.2956 16.4256 49.5762 14.1318C48.6007 13.3672 47.3484 12.8268 46.0037 12.5104C39.4388 10.9944 33.2429 15.6874 32.9265 22.4237C32.6365 28.6064 38.0282 33.8399 44.1977 33.3785C49.6553 32.9699 53.7551 28.8569 54.1111 23.3993C54.1638 22.6215 54.5329 22.2128 55.1525 22.2392C55.7721 22.2655 56.1544 22.7138 56.0885 23.4915C55.6798 28.4614 53.2278 32.0603 48.7457 34.2354C48.1525 34.5254 47.9943 34.8154 47.9943 35.4482C48.0207 45.2693 48.0075 55.0904 48.0075 64.9115C48.0075 66.3748 47.4934 67.5217 46.1487 68.2072C45.8719 68.3522 45.5687 68.4313 45.2787 68.5367C31.4764 68.5367 17.6742 68.5367 3.88508 68.5367C3.7137 68.4445 3.55551 68.3522 3.38414 68.2731C2.10542 67.6799 1.44628 66.678 1.38037 65.2806C1.38037 65.1224 1.38037 64.9774 1.38037 64.8192C1.38037 46.5612 1.38037 28.3032 1.38037 10.0452C1.38037 7.59323 2.65909 6.31451 5.11107 6.31451C7.11483 6.31451 9.10542 6.30133 11.1092 6.31451C11.7815 6.31451 12.1902 6.70999 12.2033 7.29003C12.2165 7.87007 11.7947 8.26555 11.1356 8.27873C10.9774 8.27873 10.8323 8.27873 10.6742 8.27873C8.78903 8.27873 6.89073 8.27873 5.00561 8.27873C3.80598 8.27873 3.37095 8.71376 3.37095 9.9002C3.37095 28.2505 3.37095 46.5876 3.37095 64.9379C3.37095 66.0848 3.81917 66.533 4.96606 66.533C18.1224 66.533 31.2919 66.533 44.4482 66.533C45.5291 66.533 46.0301 66.0848 46.0301 65.0565C46.0433 55.1695 46.0301 45.2825 46.0301 35.3955C46.0301 35.3296 46.0037 35.2768 45.9905 35.1714C41.4689 35.8832 37.5404 34.71 34.3634 31.388C31.9774 28.8832 30.8568 25.8512 30.9623 22.3974C31.1996 14.7778 38.2391 8.92468 45.951 10.4011C46.2674 8.99059 45.7269 8.29191 44.3163 8.29191C41.2843 8.29191 38.2523 8.29191 35.2203 8.29191C35.0226 8.29191 34.8248 8.29191 34.548 8.29191C34.548 8.77967 34.548 9.24106 34.548 9.68927C34.5216 11.258 33.5988 12.2072 32.0433 12.2072C27.1393 12.2203 22.2485 12.2203 17.3446 12.2072C15.8022 12.2072 14.8531 11.2316 14.8399 9.68927C14.8399 8.27873 14.8399 6.88137 14.8399 5.47082C14.8399 3.19022 15.9604 1.74012 18.1883 1.12054C18.2146 1.10736 18.241 1.05462 18.2674 1.02826C22.5386 1.05462 26.7966 1.05462 31.0546 1.05462ZM24.7269 10.2429C27.0998 10.2429 29.4727 10.2298 31.8455 10.2561C32.386 10.2561 32.5969 10.0979 32.5838 9.54427C32.5574 8.13372 32.5969 6.73636 32.5706 5.32581C32.5442 3.90208 31.661 3.03203 30.2504 3.03203C26.5593 3.01884 22.8681 3.01884 19.177 3.03203C17.7401 3.03203 16.8436 3.94163 16.8305 5.37854C16.8173 6.73636 16.8568 8.10735 16.8173 9.46517C16.8041 10.0848 17.015 10.2561 17.6082 10.2561C19.9811 10.2298 22.354 10.2429 24.7269 10.2429ZM37.3163 18.6799C36.9209 19.0226 36.4726 19.2599 36.2485 19.629C35.9322 20.1431 36.1299 20.6836 36.5649 21.1187C38.2919 22.8456 40.0056 24.5593 41.7325 26.2863C42.6421 27.1959 43.2222 27.1959 44.1318 26.2863C47.8888 22.5292 51.6459 18.7721 55.403 15.0151C55.5612 14.8569 55.7853 14.7119 55.8248 14.5273C55.9039 14.1055 56.0094 13.5782 55.838 13.2354C55.6798 12.919 55.1657 12.6026 54.8098 12.6026C54.4143 12.6026 53.9529 12.9058 53.6365 13.1959C50.4067 16.3861 47.2034 19.6158 43.9868 22.8192C43.1035 23.7025 42.7608 23.7025 41.8644 22.806C40.7307 21.6723 39.6101 20.5254 38.4632 19.4181C38.1732 19.1413 37.7777 18.9699 37.3163 18.6799Z" fill="#F57D8D"/>
<path d="M13.8116 41.1827C13.8248 43.4105 12.032 45.2166 9.8173 45.2034C7.62898 45.2034 5.84931 43.4237 5.83613 41.2222C5.82295 38.9944 7.62897 37.1883 9.83048 37.1883C12.032 37.2015 13.8116 38.9943 13.8116 41.1827ZM7.82671 41.2354C7.8399 42.3427 8.7495 43.2392 9.84366 43.2392C10.9642 43.2392 11.8606 42.3032 11.8342 41.1563C11.8079 40.0621 10.8719 39.1525 9.79093 39.1921C8.69677 39.2053 7.81353 40.1281 7.82671 41.2354Z" fill="#F57D8D"/>
<path d="M13.8117 29.0546C13.8117 31.2561 12.0452 33.0358 9.8569 33.0621C7.65539 33.0885 5.83618 31.2693 5.83618 29.0546C5.83618 26.8267 7.62902 25.0471 9.8569 25.0603C12.0584 25.0734 13.8117 26.8531 13.8117 29.0546ZM11.8343 29.1073C11.8607 27.9868 11.0038 27.0772 9.90963 27.0245C8.7891 26.9849 7.83995 27.8813 7.82677 29.0151C7.81358 30.1224 8.68364 31.032 9.79098 31.0716C10.8588 31.1111 11.8079 30.2015 11.8343 29.1073Z" fill="#F57D8D"/>
<path d="M13.8117 53.2448C13.7985 55.4727 12.0188 57.2392 9.77775 57.2128C7.58943 57.1996 5.83613 55.4068 5.84932 53.2053C5.8625 51.0038 7.62898 49.2373 9.83048 49.2241C12.032 49.2241 13.8248 51.017 13.8117 53.2448ZM11.8343 53.2317C11.8343 52.1243 10.951 51.2279 9.84367 51.2147C8.72314 51.2015 7.81354 52.1243 7.82672 53.258C7.8399 54.3654 8.73632 55.2486 9.84367 55.2354C10.951 55.2354 11.8343 54.339 11.8343 53.2317Z" fill="#F57D8D"/>
<path d="M24.4633 37.9265C27.0603 37.9265 29.6441 37.9265 32.241 37.9265C33.0716 37.9265 33.5198 38.2957 33.5066 38.9284C33.4934 39.5348 33.032 39.9039 32.2674 39.9039C27.0207 39.9039 21.774 39.9039 16.5273 39.9039C15.7627 39.9039 15.3013 39.5216 15.3013 38.9152C15.2881 38.3088 15.7363 37.9265 16.5141 37.9265C19.1506 37.9265 21.8135 37.9265 24.4633 37.9265Z" fill="#F57D8D"/>
<path d="M24.3974 56.5273C21.8268 56.5273 19.2562 56.5273 16.6855 56.5273C16.4219 56.5273 16.0791 56.5537 15.9209 56.4086C15.6441 56.1582 15.3541 55.7891 15.3145 55.4331C15.2618 54.9717 15.6046 54.629 16.1187 54.5499C16.3164 54.5235 16.5142 54.5235 16.7119 54.5235C21.8268 54.5235 26.9417 54.5235 32.0565 54.5235C32.2543 54.5235 32.452 54.5235 32.6498 54.5499C33.1507 54.6158 33.4407 54.9322 33.4803 55.4199C33.5198 55.9077 33.2957 56.2768 32.808 56.4218C32.5575 56.5009 32.2938 56.5009 32.0302 56.5009C29.4991 56.5273 26.9548 56.5273 24.3974 56.5273Z" fill="#F57D8D"/>
<path d="M22.3277 25.904C24.1732 25.904 26.0188 25.904 27.8512 25.904C28.0753 25.904 28.2862 25.904 28.5103 25.9303C29.0376 26.0226 29.3277 26.3654 29.3277 26.8795C29.3277 27.4068 29.0376 27.7364 28.5235 27.8418C28.339 27.8814 28.128 27.8814 27.9303 27.8814C24.1864 27.8814 20.4294 27.8814 16.6855 27.8814C16.4614 27.8814 16.2373 27.8814 16.0395 27.8286C15.5386 27.71 15.3013 27.3541 15.3145 26.8663C15.3277 26.3785 15.5913 26.0358 16.0923 25.9435C16.3032 25.904 16.5273 25.904 16.7514 25.904C18.597 25.904 20.4557 25.904 22.3277 25.904Z" fill="#F57D8D"/>
<path d="M22.3145 32.4689C20.3371 32.4689 18.3729 32.4821 16.3955 32.4689C15.7232 32.4689 15.3013 32.0734 15.3013 31.5066C15.2881 30.9397 15.7232 30.5442 16.3691 30.4915C16.5273 30.4783 16.6723 30.4915 16.8305 30.4915C20.4953 30.4915 24.1601 30.4915 27.8249 30.4915C27.983 30.4915 28.1281 30.4783 28.2863 30.4915C28.9454 30.5442 29.3672 30.9397 29.354 31.5066C29.3409 32.0734 28.919 32.4689 28.2467 32.4689C26.2561 32.4821 24.2919 32.4821 22.3145 32.4689Z" fill="#F57D8D"/>
<path d="M22.3145 49.9492C24.2392 49.9492 26.177 49.9492 28.1017 49.9492C28.8663 49.9492 29.3277 50.3051 29.3409 50.9115C29.3541 51.5179 28.8927 51.9266 28.1412 51.9266C24.2524 51.9266 20.3767 51.9397 16.4878 51.9002C16.1186 51.9002 15.6441 51.6234 15.42 51.3333C15.2618 51.1224 15.3541 50.5819 15.5386 50.3315C15.6968 50.1073 16.1318 49.9755 16.4482 49.9623C18.4124 49.936 20.3635 49.9492 22.3145 49.9492Z" fill="#F57D8D"/>
<path d="M20.3766 42.5009C21.6553 42.5009 22.9209 42.5009 24.1996 42.5009C24.7928 42.5009 25.241 42.7119 25.3728 43.3315C25.5178 43.9774 25.0169 44.4915 24.2128 44.5047C22.4331 44.5179 20.6534 44.5047 18.8738 44.5047C18.0564 44.5047 17.2523 44.5179 16.435 44.5047C15.7231 44.4915 15.2749 44.0961 15.2749 43.516C15.2749 42.936 15.7099 42.5141 16.4218 42.5141C17.7532 42.4878 19.0715 42.5009 20.3766 42.5009Z" fill="#F57D8D"/>
<path d="M11.017 15.6874C12.0716 15.6874 13.1262 15.6874 14.1676 15.6874C14.9322 15.6874 15.3672 16.0697 15.3672 16.6893C15.3672 17.3088 14.919 17.6648 14.1544 17.678C12.0716 17.678 9.98871 17.678 7.90585 17.678C7.1808 17.678 6.75896 17.3088 6.74577 16.7156C6.73259 16.096 7.16762 15.7006 7.91903 15.7006C8.96046 15.6874 9.98871 15.6874 11.017 15.6874Z" fill="#F57D8D"/>
</svg>
