<svg width="230" height="250" viewBox="0 0 230 250" fill="none" xmlns="http://www.w3.org/2000/svg">
<rect width="230" height="250" fill="#252841"/>
<rect width="230" height="5" fill="#6E6FBA"/>
<path d="M151.558 88.0679C151.99 88.3428 152.421 88.6962 152.893 88.9318C170.367 97.8062 181.008 111.864 184.228 131.183C189.254 161.379 168.325 190.319 138.05 195.463C113.076 199.665 88.7304 187.178 77.6178 164.403C77.3822 163.893 77.0288 163.421 76.7147 162.95C76.5969 162.44 76.5183 161.89 76.322 161.419C72.9058 153.016 71.5314 144.338 72.2775 135.267C72.7094 130.359 73.6911 125.646 75.2618 121.052C76.0864 118.657 77.2252 116.379 78.2068 114.063C79.0707 112.492 79.9738 110.921 80.8377 109.351C82.0157 107.78 83.1937 106.209 84.3718 104.678C85.7461 103.107 87.0812 101.537 88.4555 99.9658C90.1833 98.4737 91.8718 96.9816 93.6388 95.5287C95.0131 94.3899 96.466 93.369 97.8796 92.2695C99.4503 91.4056 101.021 90.5025 102.592 89.6386C105.38 88.5391 108.168 87.3611 110.995 86.3009C115.864 84.4946 120.969 83.7486 126.113 83.513C132.238 83.2381 138.285 83.9449 144.136 85.7512C146.649 86.4187 149.084 87.2826 151.558 88.0679ZM177.709 139.037C177.435 125.45 172.212 113.238 161.61 103.5C151.008 93.7617 138.364 89.6386 124.11 90.7774C111.152 91.8376 100.236 97.4528 91.5969 107.191C82.2513 117.715 78.2461 130.201 79.4241 144.181C80.5236 157.139 86.0995 168.055 95.877 176.694C106.44 186 118.927 190.044 132.867 188.866C146.021 187.767 157.016 181.995 165.654 172.099C173.704 162.872 177.631 151.995 177.709 139.037Z" fill="#6260D9"/>
<path d="M70.5498 159.534C64.1885 155.804 59.0053 150.856 54.6859 144.927C46.8325 134.168 42.945 122.073 43.9267 108.801C45.6937 85.2016 57.5916 68.2775 79.5026 59.2461C104.084 49.1152 131.924 57.9896 146.963 79.9398C147.317 80.4503 147.592 81.0393 147.906 81.589C147.042 81.432 146.217 81.2356 145.353 81.0393C142.644 80.4503 139.935 79.8613 137.264 79.233C133.652 74.9529 129.332 71.4581 124.424 68.7094C115.039 63.4869 104.948 61.6021 94.267 62.7801C86.9241 63.6047 80.0916 65.8822 73.9267 69.9267C65.4843 75.4634 58.966 82.7278 55.0393 92.1126C51.9372 99.4948 50.4058 107.152 51.1126 115.241C51.7801 122.584 53.7435 129.416 57.356 135.817C60.1047 140.725 63.5995 145.005 67.9189 148.657L67.8796 148.618C67.9581 148.696 68.0367 148.775 68.1152 148.853C68.3901 150.267 68.6257 151.72 68.9398 153.134C69.4895 155.293 70.0393 157.414 70.5498 159.534Z" fill="#6E82BA"/>
<path d="M137.264 79.2722C139.974 79.8612 142.644 80.4895 145.353 81.0785C146.217 81.2748 147.042 81.4319 147.906 81.6282C147.984 81.746 148.102 81.8638 148.181 81.9816C149.319 84.0235 150.419 86.0654 151.558 88.1465C149.123 87.3612 146.689 86.4973 144.215 85.7512C138.325 83.945 132.317 83.2382 126.191 83.513C121.047 83.7486 115.942 84.4947 111.073 86.301C108.246 87.3612 105.458 88.4999 102.67 89.6387C102.631 87.9502 102.631 86.301 102.592 84.6125C102.631 84.534 102.67 84.4554 102.67 84.3769C103.22 84.1806 103.77 84.0235 104.319 83.7879C111.819 80.5287 119.673 78.8795 127.84 78.7617C129.725 78.7617 131.61 78.7617 133.456 78.7617C134.712 78.9188 136.008 79.0759 137.264 79.2722Z" fill="#18435E"/>
<path d="M70.5498 159.534C70.0393 157.414 69.4503 155.293 68.9791 153.173C68.6649 151.759 68.4293 150.306 68.1545 148.893C68.0759 148.814 67.9974 148.736 67.9189 148.657L67.9581 148.696C67.8403 147.518 67.7225 146.38 67.6047 145.202C67.6047 142.728 67.644 140.254 67.644 137.78C67.6047 131.733 68.822 125.921 70.7461 120.188C71.4529 118.107 72.2382 116.065 72.9843 114.024C73.0629 113.984 73.1414 113.945 73.2592 113.906C74.9084 113.945 76.5969 113.945 78.2461 113.984C77.2644 116.301 76.1257 118.618 75.3011 120.974C73.6911 125.568 72.7094 130.319 72.3168 135.188C71.5314 144.259 72.945 152.937 76.3613 161.34C76.5576 161.812 76.6361 162.361 76.754 162.872C74.6335 161.772 72.5916 160.673 70.5498 159.534Z" fill="#18435E"/>
<path d="M148.181 81.9425C148.102 81.8247 147.984 81.7069 147.906 81.5891C147.984 81.7069 148.063 81.8247 148.181 81.9425Z" fill="#5E60DE"/>
<path d="M177.709 139.037C177.592 151.995 173.704 162.872 165.654 172.1C156.976 182.034 145.982 187.767 132.866 188.867C118.887 190.045 106.401 186.039 95.877 176.694C86.0995 168.055 80.5236 157.139 79.4241 144.181C78.2461 130.202 82.2513 117.715 91.5969 107.191C100.236 97.453 111.152 91.8378 124.11 90.7776C138.364 89.5996 151.008 93.7619 161.61 103.5C172.251 113.238 177.435 125.45 177.709 139.037ZM128.547 92.8195C102.631 92.7802 81.5052 113.788 81.4267 139.665C81.3482 165.66 102.395 186.825 128.351 186.903C154.346 186.943 175.471 165.856 175.471 139.901C175.51 113.984 154.463 92.8587 128.547 92.8195Z" fill="#6E82BA"/>
<path d="M97.8796 92.191C96.466 93.2512 95.0131 94.3114 93.6388 95.4501C91.8718 96.903 90.1833 98.3952 88.4555 99.8873C86.4136 99.848 84.411 99.848 82.3691 99.8088C86.8456 94.7041 91.9896 90.3847 97.8403 86.9292C97.8403 88.6962 97.8796 90.4632 97.8796 92.191Z" fill="#18435E"/>
<path d="M82.3691 99.8088C84.411 99.8481 86.4136 99.8481 88.4555 99.8874C87.0811 101.458 85.746 103.029 84.3717 104.599C82.5261 104.56 80.6413 104.56 78.7958 104.521C79.856 102.989 80.9555 101.458 82.0157 99.8874C82.1335 99.8481 82.2513 99.8481 82.3691 99.8088Z" fill="#7FCCF0"/>
<path d="M78.7565 104.521C80.6021 104.56 82.4869 104.56 84.3325 104.6C83.1545 106.17 81.9764 107.741 80.7984 109.272C79.1492 109.272 77.5 109.233 75.8115 109.233C76.6754 107.662 77.5785 106.131 78.4424 104.56C78.5995 104.56 78.678 104.521 78.7565 104.521Z" fill="#18435E"/>
<path d="M97.8796 92.191C97.8403 90.424 97.8403 88.6962 97.801 86.9292L97.9188 86.89C99.4502 86.1046 100.982 85.3193 102.513 84.5339C102.552 86.2224 102.552 87.8716 102.592 89.5601C101.06 90.4633 99.4895 91.3271 97.8796 92.191Z" fill="#4AADE1"/>
<path d="M75.8507 109.233C77.5 109.233 79.1492 109.272 80.8377 109.272C79.9738 110.843 79.0706 112.414 78.2068 113.984C76.5575 113.945 74.8691 113.945 73.2198 113.906C74.0052 112.374 74.7905 110.843 75.5366 109.272C75.6151 109.311 75.7329 109.272 75.8507 109.233Z" fill="#4AADE1"/>
<path d="M67.5654 145.202C67.6832 146.38 67.8011 147.518 67.9189 148.696C63.6387 145.044 60.144 140.764 57.356 135.856C53.7435 129.416 51.7801 122.584 51.1126 115.241C50.3665 107.152 51.9372 99.4948 55.0393 92.1126C58.966 82.7278 65.4843 75.4241 73.9267 69.9267C80.0916 65.9215 86.9241 63.6047 94.267 62.7801C104.948 61.6021 115.039 63.4869 124.424 68.7487C129.293 71.4974 133.613 74.9529 137.264 79.2723C136.008 79.0759 134.751 78.9189 133.455 78.7225C132.238 77.5445 131.099 76.288 129.764 75.1885C121.518 68.356 111.898 65.0183 101.257 64.6649C97.801 64.5471 94.2277 64.9398 90.8115 65.5681C81.6623 67.2958 73.7696 71.6937 67.1335 78.1728C62.8927 82.3351 59.5157 87.2042 57.1597 92.7016C53.4293 101.34 52.212 110.332 53.822 119.599C55.1178 127.06 58.0628 133.932 62.6571 139.94C64.1492 141.825 65.9555 143.435 67.5654 145.202Z" fill="#6073A9"/>
<path d="M67.8796 148.657C67.9582 148.736 68.0367 148.814 68.1152 148.893C68.076 148.814 67.9974 148.736 67.8796 148.657Z" fill="#4098D4"/>
<path d="M67.5655 145.202C65.9556 143.474 64.1493 141.864 62.7357 139.979C58.1021 133.932 55.1964 127.099 53.9006 119.639C52.2906 110.372 53.5079 101.38 57.2383 92.7408C59.5943 87.2434 62.9713 82.3743 67.2121 78.212C73.8482 71.733 81.7016 67.3351 90.8901 65.6073C94.3063 64.9398 97.8796 64.5864 101.335 64.7042C111.976 65.0576 121.558 68.3953 129.843 75.2277C131.139 76.3272 132.278 77.5837 133.534 78.7618C131.649 78.7618 129.764 78.7225 127.919 78.7618C119.751 78.8403 111.898 80.4895 104.398 83.7879C103.848 84.0235 103.298 84.1806 102.749 84.3769C102.709 83.8665 102.67 83.3167 102.67 82.8063C102.984 82.5314 103.377 82.2565 103.652 81.9424C104.948 80.5288 105.458 78.9188 104.751 77.0733C104.045 75.1492 102.631 74.0497 100.55 73.9319C98.6257 73.8534 97.1336 74.678 96.1912 76.3665C94.9739 78.6047 95.6021 80.7644 97.9974 82.767C97.9974 84.1806 97.9974 85.5549 98.0367 86.9686L97.9189 87.0078C92.0289 90.4241 86.9241 94.7827 82.4477 99.8874C82.3299 99.9267 82.2121 99.9267 82.0943 99.9659C81.898 99.6125 81.5446 99.2591 81.5446 98.8665C81.466 97.4529 81.5053 96 81.466 94.5471C81.7802 94.2722 82.1728 93.9974 82.4477 93.6832C83.7435 92.2696 84.254 90.6597 83.5472 88.8141C82.8404 86.89 81.4268 85.7906 79.3456 85.6728C77.4215 85.5942 75.9294 86.4188 74.987 88.1073C73.7697 90.3455 74.398 92.4659 76.7932 94.5078C76.7932 96.8639 76.8325 99.2199 76.7147 101.576C76.6754 103.029 77.1467 104.05 78.521 104.599C77.6571 106.17 76.754 107.702 75.8901 109.272C75.7723 109.311 75.6545 109.311 75.5367 109.351C74.2016 109.351 72.9058 109.351 71.5707 109.351C71.3351 109.037 71.0995 108.722 70.8639 108.408C69.5681 106.955 67.9189 106.484 66.0734 106.995C64.1885 107.505 63.0498 108.801 62.6964 110.686C62.343 112.531 63.0105 114.063 64.5027 115.202C66.7016 116.89 69.1754 116.458 71.4529 113.945C71.9634 113.984 72.4739 114.024 72.9843 114.063C72.2383 116.105 71.4137 118.147 70.7461 120.228C68.822 125.921 67.6048 131.772 67.644 137.819C67.6048 140.254 67.5655 142.728 67.5655 145.202Z" fill="#252841"/>
<path d="M97.9581 86.9294C97.9581 85.5157 97.9581 84.1414 97.9188 82.7278C99.4502 83.3561 100.982 83.3168 102.552 82.7278C102.592 83.2383 102.631 83.788 102.631 84.2985C102.592 84.377 102.552 84.4555 102.552 84.5341C101.021 85.3587 99.4895 86.144 97.9581 86.9294Z" fill="#80CCEE"/>
<path d="M72.945 114.063C72.4345 114.024 71.924 113.984 71.4136 113.945C72.0811 112.414 72.2774 110.882 71.5314 109.312C72.8665 109.312 74.1623 109.312 75.4973 109.312C74.712 110.843 73.9267 112.374 73.1806 113.945C73.1021 113.984 73.0235 114.024 72.945 114.063Z" fill="#7FCCEF"/>
<path d="M128.547 92.8194C154.424 92.8587 175.51 113.984 175.471 139.901C175.471 165.895 154.306 186.942 128.351 186.903C102.395 186.864 81.3482 165.699 81.4267 139.704C81.5053 113.788 102.631 92.7801 128.547 92.8194ZM140.209 151.602C140.209 149.05 138.128 146.929 135.576 146.89C132.945 146.851 130.785 148.971 130.785 151.602C130.785 154.154 132.867 156.275 135.419 156.314C138.05 156.353 140.209 154.233 140.209 151.602ZM126.113 151.72C126.191 149.168 124.149 147.008 121.597 146.89C118.966 146.772 116.767 148.853 116.689 151.484C116.61 154.076 118.73 156.275 121.322 156.314C123.914 156.353 126.034 154.272 126.113 151.72ZM142.565 135.149C140.013 135.149 137.893 137.23 137.853 139.783C137.814 142.374 139.974 144.573 142.565 144.573C145.118 144.573 147.238 142.492 147.278 139.94C147.317 137.309 145.157 135.149 142.565 135.149ZM114.411 135.149C111.859 135.11 109.738 137.191 109.66 139.743C109.581 142.335 111.702 144.534 114.332 144.573C116.963 144.613 119.084 142.453 119.084 139.822C119.045 137.27 116.924 135.149 114.411 135.149ZM140.209 128.042C140.17 125.49 138.089 123.408 135.537 123.369C132.906 123.369 130.785 125.49 130.825 128.12C130.864 130.673 132.945 132.754 135.497 132.793C138.089 132.793 140.249 130.673 140.209 128.042ZM126.113 128.16C126.152 125.607 124.11 123.448 121.558 123.369C118.927 123.291 116.767 125.372 116.728 128.003C116.689 130.555 118.73 132.715 121.283 132.793C123.874 132.872 126.073 130.751 126.113 128.16ZM114.372 113.984C113.076 113.984 112.016 114.966 111.976 116.262C111.937 117.558 112.958 118.618 114.215 118.696C115.55 118.775 116.689 117.675 116.649 116.34C116.689 115.045 115.668 113.984 114.372 113.984ZM142.565 118.696C143.861 118.696 144.922 117.675 144.922 116.419C144.961 115.123 143.94 114.063 142.683 114.024C141.348 113.984 140.249 115.045 140.249 116.38C140.249 117.636 141.27 118.657 142.565 118.696ZM130.825 118.736C130.864 117.44 129.843 116.38 128.586 116.301C127.33 116.262 126.23 117.243 126.152 118.5C126.073 119.835 127.134 120.974 128.469 120.974C129.686 121.052 130.785 120.031 130.825 118.736ZM102.592 123.448C102.631 122.152 101.61 121.092 100.353 121.013C99.0969 120.935 97.9974 121.956 97.9189 123.212C97.8403 124.547 98.9006 125.686 100.236 125.725C101.492 125.764 102.552 124.743 102.592 123.448ZM159.018 123.369C159.018 122.073 157.997 121.052 156.702 121.013C155.406 121.013 154.346 121.995 154.306 123.291C154.267 124.626 155.367 125.725 156.702 125.725C157.997 125.725 159.018 124.665 159.018 123.369ZM147.238 104.56C145.942 104.599 144.922 105.62 144.922 106.916C144.922 108.212 145.942 109.233 147.238 109.272C148.573 109.312 149.673 108.173 149.634 106.838C149.594 105.581 148.534 104.56 147.238 104.56ZM111.976 132.793C113.272 132.832 114.332 131.812 114.372 130.516C114.411 129.22 113.429 128.16 112.134 128.081C110.798 128.003 109.66 129.102 109.66 130.437C109.66 131.694 110.681 132.754 111.976 132.793ZM144.843 132.793C146.1 132.832 147.199 131.812 147.238 130.555C147.278 129.298 146.296 128.199 145.039 128.12C143.704 128.042 142.565 129.102 142.565 130.437C142.565 131.694 143.586 132.754 144.843 132.793ZM111.976 107.034C112.055 105.778 111.073 104.639 109.778 104.56C108.521 104.482 107.382 105.424 107.264 106.72C107.147 108.055 108.207 109.194 109.542 109.272C110.838 109.312 111.937 108.291 111.976 107.034ZM130.825 104.639C130.864 103.343 129.843 102.283 128.586 102.243C127.291 102.204 126.23 103.186 126.152 104.442C126.073 105.778 127.134 106.916 128.469 106.916C129.725 106.916 130.785 105.895 130.825 104.639ZM95.5236 139.901C95.5629 138.605 94.5419 137.545 93.2854 137.505C91.9896 137.466 90.9293 138.448 90.8508 139.704C90.7723 141.039 91.8325 142.178 93.1676 142.178C94.4241 142.217 95.4843 141.196 95.5236 139.901ZM102.552 142.178C103.848 142.178 104.908 141.157 104.908 139.901C104.948 138.605 103.927 137.545 102.67 137.505C101.335 137.466 100.236 138.526 100.236 139.861C100.236 141.157 101.296 142.178 102.552 142.178ZM154.346 137.505C153.05 137.505 152.029 138.526 151.99 139.822C151.95 141.118 152.971 142.178 154.267 142.217C155.602 142.257 156.702 141.157 156.702 139.822C156.662 138.526 155.602 137.505 154.346 137.505ZM163.73 137.505C162.435 137.505 161.414 138.526 161.374 139.822C161.335 141.118 162.356 142.178 163.652 142.217C164.987 142.257 166.086 141.157 166.086 139.822C166.086 138.526 165.026 137.505 163.73 137.505ZM112.055 151.602C113.351 151.563 114.372 150.503 114.332 149.246C114.332 147.95 113.272 146.929 112.016 146.929C110.681 146.929 109.581 148.029 109.66 149.364C109.699 150.62 110.798 151.641 112.055 151.602ZM144.922 151.602C146.217 151.602 147.238 150.581 147.278 149.325C147.317 148.029 146.296 146.969 145 146.929C143.665 146.89 142.565 147.95 142.565 149.285C142.605 150.542 143.626 151.602 144.922 151.602ZM100.236 153.958C98.9398 153.958 97.9189 155.018 97.9189 156.275C97.9189 157.571 98.9398 158.631 100.196 158.631C101.531 158.67 102.631 157.571 102.592 156.236C102.552 154.979 101.492 153.958 100.236 153.958ZM156.584 158.67C157.84 158.749 158.979 157.728 159.058 156.471C159.136 155.215 158.154 154.076 156.898 153.958C155.563 153.84 154.424 154.901 154.346 156.236C154.306 157.531 155.288 158.592 156.584 158.67ZM130.825 161.026C130.825 159.73 129.804 158.709 128.508 158.67C127.212 158.631 126.152 159.652 126.113 160.948C126.073 162.283 127.173 163.382 128.508 163.382C129.764 163.343 130.825 162.283 130.825 161.026ZM114.254 165.699C115.511 165.777 116.649 164.757 116.728 163.5C116.806 162.243 115.825 161.105 114.568 160.987C113.233 160.869 112.094 161.929 112.016 163.264C111.976 164.56 112.958 165.66 114.254 165.699ZM142.644 165.699C143.94 165.66 144.961 164.599 144.922 163.343C144.922 162.047 143.861 161.026 142.605 161.026C141.27 161.026 140.17 162.126 140.249 163.461C140.288 164.757 141.348 165.738 142.644 165.699ZM109.699 170.411C108.403 170.372 107.343 171.393 107.304 172.649C107.264 173.945 108.246 175.005 109.542 175.084C110.877 175.162 112.016 174.102 112.016 172.767C112.016 171.51 110.995 170.45 109.699 170.411ZM147.317 175.123C148.613 175.084 149.634 174.063 149.634 172.767C149.634 171.471 148.613 170.45 147.317 170.411C145.982 170.372 144.882 171.51 144.922 172.846C144.961 174.141 146.021 175.162 147.317 175.123ZM130.825 175.241C130.903 173.984 129.921 172.846 128.626 172.767C127.369 172.688 126.23 173.631 126.113 174.927C125.995 176.262 127.055 177.401 128.39 177.479C129.647 177.518 130.746 176.537 130.825 175.241Z" fill="#DBE0DD"/>
<path d="M81.3874 94.5078C81.3874 95.9607 81.3874 97.3743 81.4659 98.8272C81.5052 99.1806 81.8193 99.534 82.0157 99.9267C80.9555 101.458 79.856 102.989 78.7958 104.56C78.7172 104.599 78.5994 104.599 78.5209 104.639C77.1858 104.05 76.6753 103.029 76.7146 101.615C76.7931 99.2591 76.7539 96.9031 76.7931 94.5471C78.2853 95.1361 79.856 95.0968 81.3874 94.5078Z" fill="#7FCCF0"/>
<path d="M71.5314 109.312C72.2382 110.882 72.0811 112.414 71.4136 113.945C69.1361 116.419 66.6623 116.89 64.4633 115.202C62.9712 114.063 62.3429 112.492 62.657 110.686C63.0104 108.801 64.1492 107.466 66.034 106.995C67.8795 106.524 69.5288 106.956 70.8246 108.408C71.0994 108.683 71.2958 108.997 71.5314 109.312Z" fill="#E7A5DD"/>
<path d="M81.3874 94.5078C79.856 95.0968 78.3246 95.136 76.7539 94.5078C74.3193 92.5051 73.6911 90.3847 74.9476 88.1072C75.89 86.3795 77.3822 85.5549 79.3063 85.6727C81.3874 85.7512 82.801 86.89 83.5078 88.814C84.2146 90.6596 83.7042 92.2695 82.4084 93.6831C82.0942 93.958 81.7015 94.2329 81.3874 94.5078Z" fill="#E7A5DD"/>
<path d="M102.552 82.7277C101.021 83.3167 99.4895 83.356 97.9188 82.7277C95.4843 80.7251 94.856 78.6047 96.1125 76.3272C97.0549 74.5995 98.5471 73.7748 100.471 73.8926C102.552 73.9712 103.966 75.1099 104.673 77.034C105.38 78.8796 104.869 80.4895 103.573 81.9031C103.259 82.2173 102.866 82.4529 102.552 82.7277Z" fill="#E7A5DD"/>
</svg>
