<svg width="230" height="250" viewBox="0 0 230 250" fill="none" xmlns="http://www.w3.org/2000/svg">
    <rect width="230" height="250" fill="#252841" />
    <rect width="230" height="5" fill="#6E6FBA" />
    <path
        d="M50.4079 52H56.5439V179.624H50.4079C45.6959 179.624 41.8719 175.888 41.8719 171.28V60.344C41.8719 55.728 45.6959 52 50.4079 52Z"
        fill="#6E6FBA" />
    <path
        d="M111.216 52H54.88C50.168 52 46.344 55.736 46.344 60.344V171.28C46.344 175.888 50.168 179.624 54.88 179.624H111.208C115.92 179.624 119.744 175.888 119.744 171.28V60.344C119.752 55.728 115.928 52 111.216 52Z"
        fill="#DBE0DD" />
    <path
        d="M111.216 179.8H54.88C50.08 179.8 46.168 175.896 46.168 171.088V60.528C46.168 55.728 50.072 51.816 54.88 51.816H111.224C116.024 51.816 119.936 55.72 119.936 60.528V171.088C119.928 175.896 116.024 179.8 111.216 179.8ZM54.88 52.176C50.272 52.176 46.52 55.928 46.52 60.536V171.096C46.52 175.704 50.272 179.456 54.88 179.456H111.224C115.832 179.456 119.584 175.704 119.584 171.096V60.536C119.584 55.928 115.832 52.176 111.224 52.176H54.88Z"
        fill="black" />
    <path
        d="M107.608 174.344H58.4879C54.1759 174.344 50.6639 170.832 50.6639 166.52V65.0961C50.6639 60.7841 54.1759 57.2721 58.4879 57.2721H107.608C111.92 57.2721 115.432 60.7841 115.432 65.0961V166.52C115.432 170.832 111.92 174.344 107.608 174.344ZM58.4879 57.6321C54.3679 57.6321 51.0239 60.9841 51.0239 65.0961V166.52C51.0239 170.64 54.3759 173.984 58.4879 173.984H107.608C111.728 173.984 115.072 170.632 115.072 166.52V65.0961C115.072 60.9761 111.72 57.6321 107.608 57.6321H58.4879Z"
        fill="black" />
    <path
        d="M66.8879 95.9041V72.9761C66.8879 67.5441 71.3199 63.1201 76.7679 63.1201H86.7199C92.1679 63.1201 96.5999 67.5441 96.5999 72.9761V95.9041C96.5999 97.5041 95.2959 98.8001 93.6959 98.8001H69.7999C68.1919 98.8081 66.8879 97.5041 66.8879 95.9041ZM90.7839 72.9761C90.7839 70.7361 88.9599 68.9201 86.7199 68.9201H76.7679C74.5279 68.9201 72.7039 70.7441 72.7039 72.9761V93.0081H90.7839V72.9761Z"
        fill="#C976A3" />
    <path
        d="M93.688 98.9841H69.8C68.104 98.9841 66.72 97.6081 66.72 95.9121V72.9761C66.72 67.4401 71.232 62.9441 76.776 62.9441H86.728C92.272 62.9441 96.784 67.4481 96.784 72.9761V95.9041C96.776 97.6001 95.392 98.9841 93.688 98.9841ZM76.768 63.2961C71.416 63.2961 67.064 67.6401 67.064 72.9761V95.9041C67.064 97.4081 68.288 98.6241 69.792 98.6241H93.688C95.192 98.6241 96.416 97.4001 96.416 95.9041V72.9761C96.416 67.6401 92.064 63.2961 86.712 63.2961H76.768ZM90.784 93.1841H72.704C72.608 93.1841 72.528 93.1041 72.528 93.0081V72.9761C72.528 70.6401 74.432 68.7441 76.768 68.7441H86.72C89.064 68.7441 90.968 70.6401 90.968 72.9761V93.0081C90.96 93.1041 90.88 93.1841 90.784 93.1841ZM72.88 92.8321H90.608V72.9761C90.608 70.8321 88.864 69.0961 86.72 69.0961H76.768C74.624 69.0961 72.88 70.8401 72.88 72.9761V92.8321Z"
        fill="black" />
    <path
        d="M101.664 87.6001H61.824V98.6641C61.824 102.864 63.328 106.92 66.072 110.096C70.144 114.808 75.592 117.696 81.576 117.696C88.056 117.696 93.912 114.312 98.072 108.872C100.408 105.816 101.664 102.096 101.664 98.2561V87.6001Z"
        fill="#C976A3" />
    <path
        d="M81.576 117.864C75.76 117.864 70.2079 115.144 65.944 110.208C63.176 107 61.6479 102.904 61.6479 98.6641V87.6001C61.6479 87.5041 61.728 87.4241 61.824 87.4241H101.664C101.76 87.4241 101.84 87.5041 101.84 87.6001V98.2481C101.84 102.168 100.584 105.872 98.2079 108.976C93.8239 114.712 87.912 117.864 81.576 117.864ZM62 87.7841V98.6641C62 102.816 63.4959 106.84 66.2079 109.976C70.4079 114.832 75.864 117.512 81.576 117.512C87.8 117.512 93.6079 114.4 97.9279 108.76C100.256 105.72 101.488 102.088 101.488 98.2481V87.7841H62Z"
        fill="black" />
    <path
        d="M78.048 106.936L79.824 99.6801C79.352 99.3921 78.96 98.9761 78.696 98.4881C78.456 98.0481 78.32 97.5441 78.32 97.0081C78.32 95.7281 79.088 94.6241 80.192 94.1441C80.576 93.9761 81.008 93.8801 81.456 93.8801C81.904 93.8801 82.328 93.9761 82.72 94.1441C83.824 94.6241 84.592 95.7281 84.592 97.0081C84.592 97.5441 84.456 98.0481 84.216 98.4881C83.952 98.9761 83.56 99.3841 83.088 99.6801L84.864 106.936H78.048Z"
        fill="black" />
    <path
        d="M71.7279 133.64H63.2719C63.1759 133.64 63.0959 133.56 63.0959 133.464V125.008C63.0959 124.912 63.1759 124.832 63.2719 124.832H71.7279C71.8239 124.832 71.9039 124.912 71.9039 125.008V133.464C71.9039 133.56 71.8239 133.64 71.7279 133.64ZM63.4479 133.28H71.5519V125.176H63.4479V133.28Z"
        fill="black" />
    <path d="M70.2559 126.472H64.7439V131.984H70.2559V126.472Z" fill="black" />
    <path
        d="M100.216 133.64H91.76C91.664 133.64 91.584 133.56 91.584 133.464V125.008C91.584 124.912 91.664 124.832 91.76 124.832H100.216C100.312 124.832 100.392 124.912 100.392 125.008V133.464C100.392 133.56 100.312 133.64 100.216 133.64ZM91.936 133.28H100.04V125.176H91.936V133.28Z"
        fill="black" />
    <path d="M98.7439 126.472H93.2319V131.984H98.7439V126.472Z" fill="black" />
    <path
        d="M71.7279 162.128H63.2719C63.1759 162.128 63.0959 162.048 63.0959 161.952V153.496C63.0959 153.4 63.1759 153.32 63.2719 153.32H71.7279C71.8239 153.32 71.9039 153.4 71.9039 153.496V161.952C71.9039 162.048 71.8239 162.128 71.7279 162.128ZM63.4479 161.776H71.5519V153.672H63.4479V161.776Z"
        fill="black" />
    <path d="M70.2559 154.968H64.7439V160.48H70.2559V154.968Z" fill="black" />
    <path d="M75.856 125.008H73.736V136.184H75.856V125.008Z" fill="black" />
    <path d="M73.7375 134.061V136.181H80.6175V134.061H73.7375Z" fill="black" />
    <path d="M73.7371 129.238V131.358H78.1611V129.238H73.7371Z" fill="black" />
    <path d="M63.2706 138.771V140.891H70.1506V138.771H63.2706Z" fill="black" />
    <path d="M79.897 126.96V129.08H88.945V126.96H79.897Z" fill="black" />
    <path d="M91.7231 136.881V139.001H100.259V136.881H91.7231Z" fill="black" />
    <path d="M86.376 124.912H84.256V136.088H86.376V124.912Z" fill="black" />
    <path d="M88.5039 135.984H86.3839V138.104H88.5039V135.984Z" fill="black" />
    <path d="M82.7439 136.184H80.6239V138.304H82.7439V136.184Z" fill="black" />
    <path d="M73.8479 151.376H71.7279V153.496H73.8479V151.376Z" fill="black" />
    <path d="M68.272 140.888H66.152V143.008H68.272V140.888Z" fill="black" />
    <path d="M72.272 136.64H70.152V138.76H72.272V136.64Z" fill="black" />
    <path d="M95.496 150.776H93.376V161.952H95.496V150.776Z" fill="black" />
    <path d="M93.3744 159.828V161.948H100.254V159.828H93.3744Z" fill="black" />
    <path d="M90.4095 152.846V154.966H97.2895V152.846H90.4095Z" fill="black" />
    <path d="M90.408 150.72H88.288V152.84H90.408V150.72Z" fill="black" />
    <path d="M73.2679 143.717V145.837H91.0039V143.717H73.2679Z" fill="black" />
    <path d="M80.616 138.312H78.496V149.488H80.616V138.312Z" fill="black" />
    <path d="M86.0719 141.256H83.9519V152.432H86.0719V141.256Z" fill="black" />
    <path d="M83.9519 152.44H81.8319V154.56H83.9519V152.44Z" fill="black" />
    <path d="M81.824 154.56H79.704V156.68H81.824V154.56Z" fill="black" />
    <path d="M90.4319 154.92H88.3119V157.04H90.4319V154.92Z" fill="black" />
    <path d="M93.1279 141.592H91.0079V143.712H93.1279V141.592Z" fill="black" />
    <path d="M100.256 146.248H98.136V151.176H100.256V146.248Z" fill="black" />
    <path d="M75.392 145.84H73.272V147.96H75.392V145.84Z" fill="black" />
    <path d="M65.392 144.776H63.272V151.24H65.392V144.776Z" fill="black" />
    <path d="M82.144 159.832H74.856V161.952H82.144V159.832Z" fill="black" />
    <path d="M86.376 157.728H84.256V161.952H86.376V157.728Z" fill="black" />
    <path d="M78.496 149.496H76.376V153.72H78.496V149.496Z" fill="black" />
    <path d="M98.1119 142.016H95.9919V146.24H98.1119V142.016Z" fill="black" />
    <path d="M70.392 143.008H68.272V147.232H70.392V143.008Z" fill="black" />
    <path d="M74.3999 138.768H72.2799V140.888H74.3999V138.768Z" fill="black" />
    <path d="M90.6239 138.104H88.5039V140.224H90.6239V138.104Z" fill="black" />
    <path d="M88.5039 130.928H86.3839V133.048H88.5039V130.928Z" fill="black" />
    <path d="M95.72 134.752H93.6V136.872H95.72V134.752Z" fill="black" />
    <path d="M93.1279 145.84H91.0079V147.96H93.1279V145.84Z" fill="black" />
    <path d="M100.256 156.2H98.136V158.32H100.256V156.2Z" fill="black" />
    <path d="M100.208 139.872H98.0879V141.992H100.208V139.872Z" fill="black" />
    <path d="M65.48 135.08H63.36V137.2H65.48V135.08Z" fill="black" />
    <path d="M76.6799 155.816H74.5599V157.936H76.6799V155.816Z" fill="black" />
    <path
        d="M165.944 193.848L181.56 190.456L177.632 173.176L168.384 179.976L169.464 184.928L165.944 193.848Z"
        fill="black" />
    <path
        d="M181.176 192.712L181.848 191.512C182.336 190.64 182.592 189.648 182.592 188.648V188.488C182.592 187.616 182.4 186.752 182.024 185.968L181.104 184.04L179.68 184.568C177.088 185.528 174.424 186.304 171.72 186.888L168.68 187.544L169.176 187.016C170.216 185.904 170.352 184.232 169.512 182.968L169.312 182.672L159.824 189.336H158.384C156.792 189.336 155.208 189.152 153.664 188.792L153.272 188.704L153.04 188.928C152.096 189.832 151.4 190.96 151 192.208L150.8 192.824L158.408 195.968L169.048 195.488L181.176 192.712Z"
        fill="#C976A3" />
    <path
        d="M158.408 196.128C158.384 196.128 158.36 196.12 158.344 196.112L150.736 192.968C150.648 192.936 150.608 192.84 150.632 192.752L150.824 192.136C151.224 190.864 151.952 189.712 152.912 188.784L153.144 188.56C153.184 188.52 153.248 188.504 153.304 188.512L153.696 188.6C155.232 188.96 156.808 189.136 158.376 189.136H159.76L169.2 182.504C169.24 182.48 169.288 182.464 169.336 182.472C169.384 182.48 169.424 182.512 169.448 182.544L169.648 182.84C170.544 184.176 170.392 185.936 169.296 187.112L169.184 187.224L171.672 186.688C174.36 186.112 177.032 185.336 179.608 184.376L181.032 183.848C181.12 183.816 181.216 183.856 181.256 183.936L182.176 185.864C182.56 186.672 182.76 187.568 182.76 188.464V188.624C182.76 189.656 182.496 190.672 181.992 191.576L181.32 192.776C181.296 192.816 181.256 192.848 181.208 192.864L169.08 195.616C169.072 195.616 169.056 195.616 169.048 195.624L158.408 196.104C158.416 196.128 158.408 196.128 158.408 196.128ZM151.016 192.704L158.44 195.776L169.024 195.296L181.056 192.56L181.688 191.432C182.16 190.584 182.408 189.624 182.408 188.656V188.496C182.408 187.656 182.216 186.808 181.856 186.048L181.008 184.264L179.736 184.736C177.144 185.696 174.456 186.48 171.752 187.064L168.712 187.72C168.632 187.736 168.56 187.704 168.52 187.632C168.48 187.568 168.496 187.48 168.544 187.424L169.04 186.896C170.032 185.84 170.16 184.264 169.36 183.064L169.264 182.92L159.928 189.48C159.896 189.504 159.864 189.512 159.824 189.512H158.384C156.784 189.512 155.184 189.328 153.624 188.968L153.32 188.896L153.16 189.048C152.24 189.928 151.552 191.04 151.168 192.248L151.016 192.704Z"
        fill="black" />
    <path
        d="M156.984 197.064L155.712 196.656L155.416 197.568L153.032 196.84L153.344 195.888L152.064 195.472L151.752 196.448L149.44 195.736L150.384 192.672L158.616 195.168H164.88L174.776 192.04H182.92V198.2H180.432V197.288H179.096V198.2H176.6V197.288H175.264V198.2H172.936V195.072L167.168 196.928V198.2H164.624V197.288H163.28V198.2H160.792V197.288H159.456V198.2H157.56L156.696 197.96L156.984 197.064Z"
        fill="black" />
    <path d="M128.832 192.24H144.816V179.2H134.16V184.272L128.832 192.24Z" fill="black" />
    <path
        d="M145.624 192.656L146.296 191.456C146.784 190.584 147.04 189.592 147.04 188.592V188.432C147.04 187.56 146.848 186.696 146.472 185.912L145.552 183.984L144.128 184.512C141.536 185.472 138.872 186.248 136.168 186.832L133.128 187.488L133.624 186.96C134.664 185.848 134.8 184.176 133.96 182.912L133.76 182.616L124.272 189.28H122.832C121.24 189.28 119.656 189.096 118.112 188.736L117.72 188.648L117.488 188.872C116.544 189.776 115.848 190.904 115.448 192.152L115.248 192.768L122.856 195.912L133.496 195.432L145.624 192.656Z"
        fill="#C976A3" />
    <path
        d="M121.44 197.008L120.168 196.6L119.872 197.512L117.488 196.784L117.792 195.832L116.52 195.416L116.208 196.392L113.896 195.68L114.832 192.608L123.064 195.112H129.336L139.232 191.984H147.376V198.2H144.888V197.232H143.544V198.2H141.056V197.232H139.712V198.2H137.392V195.016L131.616 196.872V198.2H129.072V197.232H127.736V198.2H125.248V197.232H123.904V198.2H122.008L121.152 197.904L121.44 197.008Z"
        fill="black" />
    <path d="M148.88 113.456H165.064L182.656 180.432H166.472L148.88 113.456Z" fill="#6E6FBA" />
    <path
        d="M182.656 180.608H166.472C166.392 180.608 166.32 180.552 166.304 180.48L148.712 113.504C148.696 113.448 148.712 113.392 148.744 113.352C148.776 113.312 148.832 113.28 148.888 113.28H165.072C165.152 113.28 165.224 113.336 165.24 113.408L182.832 180.384C182.848 180.44 182.832 180.496 182.8 180.536C182.76 180.584 182.704 180.608 182.656 180.608ZM166.608 180.256H182.424L164.928 113.64H149.112L166.608 180.256Z"
        fill="black" />
    <path
        d="M148.696 113.456L165.064 114.664L148.456 143.328V180.68H132.272V146.664C132.272 143.688 133.056 140.76 134.552 138.184L148.696 113.456Z"
        fill="#6E6FBA" />
    <path
        d="M144.592 120.64L148.696 113.464H165.064L168.016 124.672C164.504 125.6 159.36 125.728 157.984 122.68C156.928 120.352 153.64 119.296 144.592 120.64Z"
        fill="black" />
    <path
        d="M154.136 133.632C154.056 133.632 153.984 133.576 153.968 133.504L152.44 127.68C152.416 127.584 152.472 127.488 152.568 127.464C152.664 127.44 152.76 127.496 152.784 127.592L154.312 133.416C154.336 133.512 154.28 133.608 154.184 133.632C154.168 133.624 154.152 133.632 154.136 133.632Z"
        fill="black" />
    <path d="M152.263 92.2388L147.591 93.8331L150.579 102.585L155.25 100.991L152.263 92.2388Z"
        fill="#955B50" />
    <path
        d="M149.691 98.1032C151.953 97.3312 153.102 94.6986 152.257 92.2231C151.412 89.7477 148.893 88.3669 146.631 89.1389C144.369 89.911 143.22 92.5436 144.065 95.019C144.91 97.4944 147.429 98.8753 149.691 98.1032Z"
        fill="#955B50" />
    <path
        d="M149.92 95.864C149.72 96.232 149.4 96.544 148.992 96.736C148.072 97.16 147.008 96.832 146.464 96.016L149.92 95.864Z"
        fill="#DBE0DD" />
    <path
        d="M148.328 98.528C146.448 98.528 144.632 97.224 143.944 95.2C143.096 92.704 144.256 90.04 146.544 89.256C148.68 88.528 151.048 89.672 152.056 91.912C152.096 92 152.056 92.104 151.968 92.144C151.88 92.184 151.776 92.144 151.736 92.056C150.808 89.984 148.624 88.92 146.664 89.592C144.56 90.312 143.496 92.776 144.28 95.08C145.072 97.392 147.424 98.688 149.52 97.968C149.904 97.84 150.264 97.64 150.584 97.392C150.664 97.336 150.776 97.344 150.832 97.424C150.888 97.504 150.88 97.616 150.8 97.672C150.448 97.944 150.056 98.152 149.632 98.296C149.208 98.456 148.768 98.528 148.328 98.528Z"
        fill="black" />
    <path
        d="M147.4 92.0721L144.184 95.2961C144.136 95.1841 144.088 95.0721 144.048 94.9601C143.216 92.5201 144.344 89.9201 146.576 89.1601C148.808 88.4001 151.464 89.8081 152.296 92.2561C152.352 92.4241 152.4 92.5841 152.44 92.7521L147.4 92.0721Z"
        fill="black" />
    <path
        d="M154.246 89.7329C155.422 88.4192 155.31 86.4013 153.996 85.2258C152.682 84.0503 150.664 84.1623 149.489 85.4761C148.313 86.7898 148.425 88.8077 149.739 89.9832C151.053 91.1587 153.071 91.0466 154.246 89.7329Z"
        fill="black" />
    <path
        d="M157.937 85.609C159.183 84.3624 159.183 82.3414 157.937 81.0949C156.69 79.8483 154.669 79.8483 153.423 81.0949C152.176 82.3414 152.176 84.3625 153.423 85.609C154.669 86.8555 156.69 86.8555 157.937 85.609Z"
        fill="black" />
    <path
        d="M161.86 81.224C163.035 79.9103 162.923 77.8924 161.61 76.7169C160.296 75.5414 158.278 75.6534 157.102 76.9671C155.927 78.2809 156.039 80.2988 157.353 81.4743C158.666 82.6497 160.684 82.5377 161.86 81.224Z"
        fill="black" />
    <path
        d="M134.272 109.536L128.88 100.576C128.88 100.576 128.648 98.552 126.376 97.832C125.848 97.664 124.744 97.416 123.8 97.224C122.728 97 121.696 96.632 120.728 96.136L119.616 95.568C119.056 95.28 118.368 95.488 118.064 96.04L118 96.16C117.688 96.712 117.872 97.416 118.424 97.744L121.96 99.84L120.456 101.144C119.688 101.816 118.744 102.256 117.736 102.424L113.68 103.168C113.008 103.288 112.528 103.896 112.552 104.584L112.56 104.704L110.344 104.888C109.696 104.96 109.216 105.536 109.264 106.192C109.304 106.832 109.84 107.336 110.48 107.336L124.496 107.352L128.072 113.296L134.272 109.536Z"
        fill="#955B50" />
    <path
        d="M139.472 108.488H149.376L139.52 122.496C137.976 124.688 134.68 124.536 133.344 122.208L123.824 105.616L129.992 101.952L136.168 112.192L139.472 108.488Z"
        fill="#955B50" />
    <path
        d="M107.784 94.1521V98.4961H78.648C78.408 98.0561 78.272 97.5521 78.272 97.0161C78.272 95.7361 79.04 94.6321 80.144 94.1521H107.784Z"
        fill="#C976A3" />
    <path
        d="M116.792 86.5441C112.136 86.5441 108.24 89.8001 107.28 94.1521C107.128 94.8241 107.048 95.5281 107.048 96.2481C107.048 97.0241 107.136 97.7761 107.312 98.5041C108.328 102.776 112.184 105.952 116.784 105.952C122.16 105.952 126.52 101.608 126.52 96.2481C126.528 90.8801 122.168 86.5441 116.792 86.5441ZM121.344 98.7441C119.96 98.7441 118.832 97.6241 118.832 96.2401C118.832 94.8561 119.96 93.7361 121.344 93.7361C122.736 93.7361 123.856 94.8561 123.856 96.2401C123.856 97.6241 122.728 98.7441 121.344 98.7441Z"
        fill="#C976A3" />
    <path
        d="M116.96 103.944C116.76 103.944 116.56 103.936 116.36 103.92C116.264 103.912 116.192 103.824 116.2 103.728C116.208 103.632 116.296 103.56 116.392 103.568C116.584 103.584 116.776 103.592 116.968 103.592C118.616 103.592 120.168 103.064 121.464 102.064C121.544 102.008 121.656 102.016 121.712 102.096C121.768 102.176 121.76 102.288 121.68 102.344C120.32 103.392 118.688 103.944 116.96 103.944Z"
        fill="black" />
    <path
        d="M112.92 102.776C112.888 102.776 112.856 102.768 112.824 102.752C110.968 101.576 109.696 99.6721 109.336 97.5201C109.32 97.4241 109.384 97.3361 109.48 97.3201C109.576 97.3041 109.664 97.3681 109.68 97.4641C110.024 99.5201 111.24 101.336 113.008 102.456C113.088 102.512 113.112 102.616 113.064 102.696C113.04 102.752 112.984 102.776 112.92 102.776Z"
        fill="black" />
    <path
        d="M109.56 94.9041C109.552 94.9041 109.536 94.9041 109.528 94.9041C109.432 94.8881 109.368 94.7921 109.392 94.6961C110.128 91.1281 113.312 88.5441 116.968 88.5441C117.064 88.5441 117.144 88.6241 117.144 88.7201C117.144 88.8161 117.064 88.8961 116.968 88.8961C113.48 88.8961 110.44 91.3681 109.736 94.7681C109.72 94.8401 109.64 94.9041 109.56 94.9041Z"
        fill="black" />
    <path
        d="M103.24 97.216H85.3199C85.2239 97.216 85.1439 97.136 85.1439 97.04C85.1439 96.944 85.2239 96.864 85.3199 96.864H103.24C103.336 96.864 103.416 96.944 103.416 97.04C103.416 97.136 103.336 97.216 103.24 97.216Z"
        fill="black" />
    <path
        d="M136.344 124.336C136.28 124.336 136.224 124.336 136.16 124.328C134.84 124.264 133.664 123.544 133.008 122.4L124.48 107.512L110.464 107.496C109.728 107.496 109.12 106.92 109.072 106.192C109.024 105.44 109.56 104.792 110.312 104.704L112.368 104.536C112.36 103.792 112.896 103.128 113.64 102.992L117.696 102.248C118.672 102.088 119.584 101.664 120.336 101.008L121.656 99.864L118.336 97.888C117.712 97.52 117.496 96.696 117.848 96.064L117.912 95.944C118.272 95.312 119.056 95.072 119.704 95.4L120.816 95.968C121.776 96.456 122.8 96.816 123.848 97.04C124.728 97.224 125.896 97.48 126.44 97.656C128.608 98.344 129.008 100.2 129.056 100.504L136.016 112L139.168 108.472C139.2 108.432 139.248 108.416 139.296 108.416H149.2C149.264 108.416 149.328 108.456 149.36 108.512C149.392 108.568 149.384 108.64 149.344 108.696L139.48 122.704C138.76 123.736 137.592 124.336 136.344 124.336ZM119.08 95.616C118.728 95.616 118.392 95.8 118.216 96.128L118.152 96.248C117.888 96.72 118.048 97.32 118.512 97.592L122.048 99.688C122.096 99.72 122.128 99.768 122.136 99.824C122.144 99.88 122.12 99.936 122.072 99.976L120.568 101.28C119.768 101.976 118.8 102.432 117.76 102.6L113.704 103.344C113.12 103.448 112.696 103.984 112.728 104.576L112.736 104.696C112.744 104.792 112.672 104.872 112.576 104.88L110.36 105.064C109.808 105.128 109.4 105.616 109.44 106.176C109.48 106.72 109.936 107.152 110.48 107.152L124.6 107.168C124.664 107.168 124.72 107.2 124.752 107.256L133.336 122.232C133.936 123.272 135 123.928 136.2 123.984C137.4 124.04 138.52 123.488 139.216 122.504L148.872 108.776H139.392L136.136 112.424C136.096 112.464 136.04 112.488 135.984 112.48C135.928 112.472 135.88 112.44 135.848 112.392L128.744 100.664C128.728 100.64 128.72 100.616 128.72 100.592C128.712 100.512 128.464 98.672 126.344 98C125.92 97.864 125.04 97.656 123.784 97.392C122.704 97.168 121.656 96.792 120.664 96.288L119.552 95.72C119.384 95.656 119.232 95.616 119.08 95.616Z"
        fill="black" />
    <path
        d="M118.792 103.576L117.608 103.704C116.856 103.784 116.096 103.64 115.416 103.296L111.72 101.408C111.192 101.136 110.536 101.344 110.256 101.872C109.992 102.376 110.152 103 110.632 103.304L114.544 105.808C114.864 106.008 115.216 106.144 115.584 106.208L117.576 106.552L118.792 103.576Z"
        fill="#955B50" />
    <path
        d="M115.592 106.384C115.584 106.384 115.576 106.384 115.56 106.384C115.168 106.32 114.792 106.176 114.456 105.96L110.544 103.456C109.992 103.104 109.8 102.376 110.104 101.792C110.424 101.184 111.184 100.944 111.8 101.256L114.632 102.72C114.72 102.768 114.752 102.872 114.704 102.96C114.656 103.048 114.552 103.08 114.464 103.04L111.632 101.576C111.192 101.352 110.64 101.52 110.408 101.96C110.184 102.376 110.328 102.904 110.72 103.16L114.632 105.664C114.928 105.856 115.256 105.984 115.608 106.04C115.704 106.056 115.768 106.144 115.752 106.248C115.752 106.32 115.68 106.384 115.592 106.384Z"
        fill="black" />
    <path
        d="M121.936 103.88L120.744 103.808C119.984 103.76 119.264 103.496 118.656 103.048L115.328 100.576C114.848 100.224 114.176 100.312 113.808 100.792C113.464 101.24 113.52 101.888 113.944 102.264L117.392 105.384C117.672 105.632 118 105.832 118.352 105.952L120.264 106.616L121.936 103.88Z"
        fill="#955B50" />
    <path
        d="M119.112 106.6C119.096 106.6 119.072 106.6 119.056 106.592C118.2 106.296 117.4 105.816 116.744 105.184L113.816 102.384C113.336 101.944 113.264 101.192 113.664 100.672C114.08 100.12 114.872 100.016 115.424 100.424L118.752 102.896C119.336 103.328 120.024 103.584 120.752 103.624L123.184 103.592C123.28 103.592 123.36 103.672 123.36 103.768C123.36 103.864 123.28 103.944 123.184 103.944L120.744 103.976C119.936 103.928 119.184 103.648 118.544 103.176L115.216 100.704C114.816 100.408 114.248 100.488 113.944 100.88C113.656 101.256 113.704 101.8 114.056 102.112L116.992 104.912C117.608 105.504 118.368 105.96 119.176 106.24C119.272 106.272 119.32 106.368 119.288 106.464C119.256 106.552 119.192 106.6 119.112 106.6Z"
        fill="black" />
    <path
        d="M122.968 100.616C122.936 100.616 122.904 100.608 122.88 100.592L121.8 99.96C121.712 99.912 121.688 99.8 121.736 99.72C121.784 99.632 121.896 99.608 121.976 99.656L123.056 100.288C123.144 100.336 123.168 100.448 123.12 100.528C123.088 100.584 123.032 100.616 122.968 100.616Z"
        fill="black" />
    <path d="M136.592 111.616L139.288 108.6H149.192L142.992 117.408L136.592 111.616Z" fill="#020202" />
    <path
        d="M170.224 108.08L174.736 102.232L183.152 106.048C184.648 106.728 185.608 108.208 185.616 109.856L185.728 137.2L183.128 136.368L178.128 132.392L178.096 111.376L170.224 108.08Z"
        fill="#955B50" />
    <path
        d="M187.008 128.176C187.568 129.104 187.88 130.16 187.896 131.24L187.944 133.552C187.96 134.312 187.808 135.072 187.504 135.776L187.296 136.248C186.936 137.08 185.968 137.464 185.128 137.104C184.816 136.968 184.672 136.608 184.808 136.296L185.688 134.264L185.592 125.816L187.008 128.176Z"
        fill="#955B50" />
    <path
        d="M185.792 137.416C185.776 137.416 185.76 137.416 185.744 137.416C185.648 137.416 185.568 137.336 185.568 137.232C185.568 137.136 185.656 137.056 185.752 137.056C186.352 137.072 186.896 136.72 187.136 136.168L187.344 135.696C187.64 135.016 187.784 134.288 187.768 133.544L187.72 131.232C187.696 130.184 187.4 129.152 186.856 128.256L185.456 125.952C185.44 125.928 185.432 125.896 185.432 125.856V109.864C185.432 108.28 184.496 106.84 183.056 106.192L174.656 102.448C174.568 102.408 174.528 102.304 174.568 102.216C174.608 102.128 174.712 102.088 174.8 102.128L183.2 105.872C184.776 106.576 185.792 108.144 185.792 109.864V125.808L187.168 128.064C187.744 129.016 188.064 130.104 188.088 131.216L188.136 133.528C188.152 134.32 187.992 135.096 187.68 135.824L187.472 136.296C187.176 136.992 186.52 137.416 185.792 137.416Z"
        fill="black" />
    <path
        d="M185.64 129.848L185.76 137.04C185.776 137.8 185.624 138.56 185.32 139.264L185.112 139.736C184.752 140.568 183.784 140.952 182.944 140.592C182.632 140.456 182.488 140.096 182.624 139.784L182.936 139.064C183.312 138.2 183.496 137.264 183.488 136.32L183.392 129.872L185.64 129.848Z"
        fill="#955B50" />
    <path
        d="M183.632 140.904C183.536 140.904 183.456 140.824 183.456 140.728C183.456 140.632 183.536 140.552 183.632 140.552C184.208 140.544 184.728 140.192 184.96 139.664L185.168 139.192C185.464 138.512 185.608 137.784 185.592 137.04L185.528 133.728C185.512 133.08 185.576 132.424 185.712 131.792L185.76 131.552C185.784 131.456 185.872 131.392 185.968 131.416C186.064 131.44 186.128 131.528 186.104 131.624L186.056 131.864C185.928 132.472 185.872 133.096 185.88 133.72L185.944 137.04C185.96 137.832 185.8 138.608 185.488 139.336L185.28 139.808C184.992 140.464 184.344 140.888 183.632 140.904Z"
        fill="black" />
    <path
        d="M179.016 128.936L182.232 132.984C183.048 134.016 183.496 135.288 183.504 136.6C183.52 139.144 183.44 140.304 183.888 142.056L183.952 142.304C184.12 142.976 183.616 143.624 182.928 143.632H182.84C182.344 143.64 181.912 143.304 181.792 142.824C181.528 141.784 181.256 140.808 181.24 139.256L181.224 137.84C181.208 136.536 180.76 135.264 179.944 134.248L179.064 133.144L179.016 128.936Z"
        fill="#955B50" />
    <path
        d="M182.816 143.808C182.248 143.808 181.752 143.424 181.608 142.864L181.552 142.648C181.312 141.704 181.064 140.72 181.048 139.248L181.032 137.832C181.016 136.568 180.576 135.336 179.792 134.344L179.12 133.504C179.056 133.424 179.072 133.32 179.144 133.256C179.224 133.192 179.328 133.208 179.392 133.28L180.064 134.12C180.896 135.168 181.368 136.48 181.384 137.824L181.4 139.24C181.416 140.672 181.648 141.584 181.896 142.552L181.952 142.768C182.056 143.168 182.408 143.44 182.816 143.44H182.824H182.912C183.184 143.44 183.44 143.312 183.608 143.096C183.776 142.88 183.832 142.6 183.768 142.336L183.704 142.088C183.32 140.568 183.32 139.464 183.32 137.632C183.32 137.072 183.32 136.432 183.312 135.696C183.312 135.552 183.296 134.52 183.288 133.72C183.28 133.064 183.352 132.4 183.496 131.76L183.536 131.568C183.56 131.472 183.656 131.416 183.744 131.432C183.84 131.456 183.896 131.552 183.88 131.64L183.84 131.832C183.704 132.448 183.632 133.08 183.64 133.712C183.648 134.512 183.656 135.536 183.664 135.688C183.672 136.432 183.672 137.072 183.672 137.632C183.672 139.496 183.672 140.528 184.048 142L184.112 142.248C184.208 142.624 184.128 143.008 183.888 143.312C183.656 143.616 183.296 143.792 182.92 143.8H182.832C182.824 143.808 182.824 143.808 182.816 143.808Z"
        fill="black" />
    <path
        d="M178.072 127.208C177.92 127.472 176.568 128.744 176.592 131.008L176.6 131.904C176.608 132.912 176.992 133.112 177 134.112L177.04 138.24C177.048 138.84 177.544 139.328 178.144 139.32H178.224C178.824 139.312 179.312 138.816 179.304 138.216L179.192 127.192L178.072 127.208Z"
        fill="#955B50" />
    <path
        d="M178.136 139.504C177.44 139.504 176.872 138.944 176.864 138.248L176.824 134.12C176.816 133.648 176.728 133.368 176.632 133.072C176.536 132.76 176.432 132.44 176.424 131.912L176.416 131.016C176.392 129.032 177.408 127.768 177.792 127.296C177.832 127.248 177.872 127.2 177.896 127.16L177.864 111.408L170.264 108.16C170.176 108.12 170.136 108.016 170.168 107.928C170.208 107.84 170.312 107.8 170.4 107.832L178.104 111.128C178.168 111.152 178.208 111.216 178.208 111.288L178.24 127.208C178.24 127.24 178.232 127.272 178.216 127.296C178.184 127.344 178.136 127.416 178.056 127.512C177.664 128 176.736 129.152 176.76 131.008L176.768 131.904C176.776 132.376 176.864 132.664 176.96 132.96C177.056 133.272 177.16 133.584 177.168 134.112L177.208 138.24C177.216 138.744 177.64 139.152 178.136 139.144H178.216C178.464 139.144 178.688 139.04 178.864 138.872C179.032 138.696 179.128 138.464 179.128 138.224L179.064 131.944C179.064 131.848 179.144 131.768 179.24 131.768C179.336 131.768 179.416 131.848 179.416 131.944L179.48 138.224C179.48 138.56 179.352 138.88 179.12 139.128C178.88 139.368 178.568 139.504 178.224 139.512H178.144C178.144 139.504 178.136 139.504 178.136 139.504Z"
        fill="black" />
    <path d="M176.568 103.064L175.048 110.104L170.224 108.08L174.736 102.232L176.568 103.064Z"
        fill="#020202" />
    <path
        d="M145.08 115.336L135.76 110.36L136.272 109.664C138.712 106.376 142.072 103.88 145.928 102.504L153.968 99.624C159.008 97.832 164.48 97.664 169.616 99.144L176.64 101.168L172.712 110.784L165.52 108.832L168.248 118.28H145.08V115.336Z"
        fill="#C976A3" />
    <path
        d="M145.08 115.448C144.984 115.448 144.904 115.368 144.904 115.272V111.264C144.904 111.168 144.984 111.088 145.08 111.088C145.176 111.088 145.256 111.168 145.256 111.264V115.272C145.256 115.368 145.176 115.448 145.08 115.448Z"
        fill="black" />
    <path
        d="M165.536 109.072C165.456 109.072 165.392 109.024 165.368 108.944L164.472 105.848C164.448 105.752 164.496 105.656 164.592 105.632C164.688 105.608 164.784 105.656 164.808 105.752L165.704 108.848C165.728 108.944 165.68 109.04 165.584 109.064C165.568 109.072 165.552 109.072 165.536 109.072Z"
        fill="black" />
    <path
        d="M176.032 73.08C181.347 73.08 185.656 68.7712 185.656 63.456C185.656 58.1408 181.347 53.832 176.032 53.832C170.717 53.832 166.408 58.1408 166.408 63.456C166.408 68.7712 170.717 73.08 176.032 73.08Z"
        fill="#DBE0DD" />
    <path
        d="M181.912 53.4561C180.232 52.5201 178.28 51.9761 176.176 51.9761C174.072 51.9761 172.12 52.5201 170.44 53.4561C164.888 56.5521 163.008 63.6481 166.072 69.2241L176.176 87.5841L186.28 69.2241C189.344 63.6481 187.472 56.5521 181.912 53.4561ZM176.176 72.3041C171.352 72.3041 167.448 68.3921 167.448 63.5761C167.448 58.7521 171.36 54.8481 176.176 54.8481C181 54.8481 184.904 58.7601 184.904 63.5761C184.904 68.3921 181 72.3041 176.176 72.3041Z"
        fill="#E0689D" />
    <path
        d="M184.904 63.696C184.84 68.464 180.96 72.304 176.176 72.304C171.4 72.304 167.512 68.464 167.448 63.696H164.608C164.632 65.576 165.112 67.472 166.072 69.224L176.176 87.584L186.28 69.224C187.24 67.472 187.72 65.576 187.744 63.696H184.904Z"
        fill="#E0689D" />
    <path
        d="M176.176 87.76C176.112 87.76 176.056 87.7281 176.024 87.6721L165.92 69.312C162.776 63.6 164.768 56.424 170.352 53.304C172.112 52.32 174.128 51.8 176.176 51.8C178.224 51.8 180.24 52.32 182 53.304C187.592 56.416 189.576 63.6 186.432 69.312L176.328 87.6721C176.304 87.7201 176.24 87.76 176.176 87.76ZM176.176 52.152C174.192 52.152 172.232 52.656 170.52 53.608C165.104 56.624 163.176 63.592 166.224 69.136L176.176 87.216L186.128 69.136C189.176 63.592 187.248 56.632 181.832 53.608C180.12 52.656 178.168 52.152 176.176 52.152Z"
        fill="black" />
    <path d="M169.968 61.864C173.4 58.432 178.96 58.432 182.384 61.864H169.968Z" fill="#DBE0DD" />
    <path
        d="M182.384 62.0401C182.336 62.0401 182.296 62.0241 182.256 61.9921C178.904 58.6401 173.44 58.6401 170.088 61.9921C170.016 62.0641 169.904 62.0641 169.84 61.9921C169.768 61.9201 169.768 61.8081 169.84 61.7441C173.336 58.2481 179.016 58.2481 182.504 61.7441C182.576 61.8161 182.576 61.9281 182.504 61.9921C182.48 62.0241 182.432 62.0401 182.384 62.0401Z"
        fill="black" />
    <path d="M171.376 63.272C174.024 60.624 178.32 60.624 180.968 63.272H171.376Z" fill="#DBE0DD" />
    <path
        d="M180.976 63.4481C180.928 63.4481 180.888 63.4321 180.848 63.4001C179.6 62.1521 177.944 61.4641 176.176 61.4641C174.408 61.4641 172.752 62.1521 171.504 63.4001C171.432 63.4721 171.32 63.4721 171.256 63.4001C171.184 63.3281 171.184 63.2161 171.256 63.1521C172.568 61.8401 174.32 61.1121 176.176 61.1121C178.032 61.1121 179.784 61.8401 181.096 63.1521C181.168 63.2241 181.168 63.3361 181.096 63.4001C181.064 63.4321 181.024 63.4481 180.976 63.4481Z"
        fill="black" />
    <path d="M172.712 64.6081C174.624 62.6961 177.728 62.6961 179.648 64.6081H172.712Z"
        fill="#DBE0DD" />
    <path
        d="M179.648 64.7841C179.6 64.7841 179.56 64.7681 179.52 64.7361C178.624 63.8401 177.44 63.3521 176.176 63.3521C174.912 63.3521 173.728 63.8401 172.832 64.7361C172.76 64.8081 172.648 64.8081 172.584 64.7361C172.512 64.6641 172.512 64.5521 172.584 64.4881C173.544 63.5281 174.816 63.0001 176.176 63.0001C177.536 63.0001 178.808 63.5281 179.768 64.4881C179.84 64.5601 179.84 64.6721 179.768 64.7361C179.736 64.7601 179.688 64.7841 179.648 64.7841Z"
        fill="black" />
    <path d="M174.064 65.9601C175.232 64.7921 177.12 64.7921 178.288 65.9601H174.064Z"
        fill="#DBE0DD" />
    <path
        d="M178.288 66.1361C178.24 66.1361 178.2 66.1201 178.16 66.0881C177.632 65.5601 176.928 65.2641 176.176 65.2641C175.424 65.2641 174.72 65.5601 174.192 66.0881C174.12 66.1601 174.008 66.1601 173.944 66.0881C173.872 66.0161 173.872 65.9041 173.944 65.8401C174.544 65.2401 175.336 64.9121 176.176 64.9121C177.024 64.9121 177.816 65.2401 178.408 65.8401C178.48 65.9121 178.48 66.0241 178.408 66.0881C178.376 66.1201 178.336 66.1361 178.288 66.1361Z"
        fill="black" />
    <path d="M175.352 67.2401C175.808 66.7841 176.552 66.7841 177.008 67.2401H175.352Z"
        fill="#DBE0DD" />
    <path
        d="M177.008 67.4241C176.96 67.4241 176.92 67.4081 176.88 67.3761C176.496 66.9921 175.864 66.9921 175.472 67.3761C175.4 67.4481 175.288 67.4481 175.224 67.3761C175.152 67.3041 175.152 67.1921 175.224 67.1281C175.752 66.6001 176.6 66.6001 177.128 67.1281C177.2 67.2001 177.2 67.3121 177.128 67.3761C177.096 67.4001 177.048 67.4241 177.008 67.4241Z"
        fill="black" />
</svg>
    