<svg width="230" height="250" viewBox="0 0 230 250" fill="none" xmlns="http://www.w3.org/2000/svg">
<rect width="230" height="250" fill="#252841"/>
<rect width="230" height="5" fill="#C976A3"/>
<path d="M135.669 95.7968C136.071 95.5448 136.498 95.3684 136.926 95.2424L137.102 94.3604C137.152 94.1588 137.328 94.0076 137.554 93.9824L138.912 93.9572C139.138 93.9572 139.314 94.1084 139.365 94.31L139.591 95.192C140.018 95.2928 140.471 95.4692 140.873 95.696L141.627 95.192C141.803 95.066 142.03 95.0912 142.181 95.2424L143.186 96.2C143.337 96.3512 143.362 96.578 143.262 96.7544L142.784 97.5356C143.035 97.9388 143.211 98.3672 143.337 98.7956L144.293 98.9972C144.443 99.0224 144.569 99.1736 144.569 99.35L144.594 100.887C144.594 101.064 144.494 101.19 144.318 101.24L143.362 101.467C143.262 101.895 143.086 102.349 142.859 102.752L143.312 103.458C143.463 103.659 143.413 103.962 143.237 104.138L142.382 105.02C142.206 105.196 141.929 105.247 141.703 105.096L140.999 104.667C140.597 104.919 140.169 105.096 139.742 105.222L139.541 106.154C139.515 106.33 139.339 106.456 139.163 106.456L137.68 106.482C137.504 106.482 137.328 106.356 137.303 106.179L137.077 105.247C136.649 105.146 136.197 104.97 135.794 104.743L135.04 105.247C134.864 105.373 134.638 105.348 134.462 105.196L133.481 104.239C133.33 104.088 133.305 103.861 133.406 103.684L133.883 102.903C133.632 102.5 133.456 102.072 133.33 101.643L132.35 101.442C132.199 101.416 132.098 101.265 132.073 101.114L132.048 99.5516C132.048 99.4004 132.149 99.2492 132.299 99.224L133.28 98.9972C133.381 98.5688 133.557 98.1152 133.783 97.712L133.305 96.9812C133.179 96.7796 133.205 96.5528 133.355 96.3764L134.286 95.4188C134.437 95.2676 134.688 95.2172 134.889 95.3432L135.669 95.7968ZM137.077 98.342C135.819 99.2744 135.87 101.139 137.152 102.021C137.931 102.55 138.987 102.55 139.742 101.971C140.999 101.038 140.949 99.1736 139.666 98.2916C138.887 97.7624 137.831 97.7876 137.077 98.342Z" fill="#E7A5DD"/>
<path d="M78.2423 159.402C78.4685 159.276 78.6948 159.175 78.9463 159.099L79.0468 158.595C79.072 158.469 79.1725 158.394 79.2983 158.394L80.0525 158.368C80.1783 158.368 80.2788 158.444 80.304 158.57L80.4297 159.049C80.6811 159.099 80.9074 159.2 81.1337 159.326L81.5611 159.049C81.6617 158.973 81.7874 158.998 81.8628 159.074L82.416 159.603C82.4914 159.679 82.5165 159.805 82.4663 159.906L82.2148 160.334C82.3405 160.561 82.4411 160.788 82.5165 161.04L83.0445 161.14C83.1451 161.166 83.1954 161.241 83.1954 161.342L83.2205 162.199C83.2205 162.3 83.1703 162.375 83.0697 162.4L82.5417 162.526C82.4914 162.778 82.3908 163.005 82.2651 163.232L82.5165 163.61C82.592 163.736 82.5668 163.887 82.4914 163.988L82.0137 164.492C81.9131 164.593 81.7623 164.618 81.6365 164.542L81.2343 164.29C81.008 164.416 80.7817 164.517 80.5303 164.593L80.4297 165.122C80.4045 165.223 80.3291 165.298 80.2285 165.298L79.3988 165.324C79.2983 165.324 79.1977 165.248 79.1725 165.147L79.0468 164.618C78.7954 164.568 78.5691 164.467 78.3428 164.341L77.9154 164.618C77.8148 164.694 77.6891 164.668 77.5885 164.593L77.0354 164.064C76.96 163.988 76.9348 163.862 76.9851 163.736L77.2365 163.308C77.1108 163.081 77.0103 162.854 76.9348 162.602L76.3817 162.476C76.3063 162.451 76.2308 162.375 76.2308 162.3L76.2057 161.418C76.2057 161.342 76.256 161.266 76.3565 161.241L76.9097 161.115C76.96 160.863 77.0605 160.636 77.1863 160.41L76.9097 160.006C76.8343 159.906 76.8594 159.754 76.9348 159.679L77.4377 159.15C77.5131 159.049 77.664 159.049 77.7645 159.099L78.2423 159.402ZM79.0468 160.813C78.3428 161.342 78.368 162.375 79.072 162.854C79.4994 163.156 80.1028 163.131 80.5303 162.829C81.2343 162.3 81.2091 161.266 80.5051 160.788C80.0525 160.485 79.4491 160.51 79.0468 160.813Z" fill="#DBE0DD"/>
<path d="M177.456 137.805C177.657 137.679 177.858 137.604 178.085 137.528L178.185 137.074C178.21 136.974 178.311 136.898 178.411 136.898H179.09C179.191 136.898 179.291 136.974 179.317 137.074L179.417 137.503C179.643 137.553 179.845 137.629 180.046 137.755L180.423 137.503C180.498 137.452 180.624 137.452 180.699 137.528L181.202 138.007C181.278 138.082 181.303 138.183 181.227 138.284L181.001 138.687C181.127 138.889 181.202 139.09 181.278 139.317L181.755 139.418C181.831 139.443 181.906 139.494 181.906 139.594L181.931 140.35C181.931 140.426 181.881 140.502 181.806 140.527L181.328 140.653C181.278 140.88 181.202 141.081 181.077 141.283L181.303 141.636C181.378 141.736 181.353 141.888 181.278 141.963L180.85 142.417C180.775 142.518 180.624 142.518 180.523 142.467L180.171 142.24C179.97 142.366 179.769 142.442 179.543 142.518L179.442 142.996C179.417 143.097 179.342 143.148 179.266 143.148L178.537 143.173C178.437 143.173 178.361 143.122 178.336 143.022L178.21 142.568C177.984 142.518 177.783 142.442 177.582 142.316L177.205 142.568C177.104 142.618 177.003 142.618 176.928 142.543L176.425 142.064C176.35 141.988 176.325 141.862 176.4 141.787L176.626 141.409C176.501 141.207 176.425 141.006 176.35 140.779L175.847 140.678C175.771 140.653 175.721 140.602 175.721 140.527L175.696 139.746C175.696 139.67 175.746 139.594 175.822 139.569L176.299 139.443C176.35 139.216 176.425 139.015 176.551 138.813L176.299 138.435C176.249 138.334 176.249 138.208 176.325 138.133L176.777 137.654C176.853 137.578 176.978 137.553 177.079 137.604L177.456 137.805ZM178.16 139.09C177.531 139.569 177.557 140.476 178.185 140.93C178.562 141.207 179.115 141.182 179.493 140.905C180.121 140.426 180.096 139.519 179.467 139.065C179.065 138.788 178.537 138.788 178.16 139.09Z" fill="#DBE0DD"/>
<path d="M126.315 88.9172C126.517 88.7912 126.718 88.7156 126.944 88.64L127.045 88.1864C127.07 88.0856 127.17 88.01 127.271 88.01H127.95C128.05 88.01 128.151 88.0856 128.176 88.1864L128.277 88.6148C128.503 88.6652 128.704 88.7408 128.905 88.8668L129.282 88.6148C129.358 88.5644 129.483 88.5644 129.559 88.64L130.062 89.1188C130.137 89.1944 130.162 89.2952 130.087 89.396L129.861 89.7992C129.986 90.0008 130.062 90.2024 130.137 90.4292L130.615 90.53C130.69 90.5552 130.766 90.6056 130.766 90.7064L130.791 91.4624C130.791 91.538 130.741 91.6136 130.665 91.6388L130.187 91.7648C130.137 91.9916 130.062 92.1932 129.936 92.3948L130.162 92.7476C130.238 92.8484 130.213 92.9996 130.137 93.0752L129.71 93.5288C129.609 93.6296 129.483 93.6296 129.383 93.5792L129.031 93.3524C128.83 93.4784 128.629 93.554 128.402 93.6296L128.302 94.1084C128.277 94.2092 128.201 94.2596 128.126 94.2596L127.397 94.2848C127.296 94.2848 127.221 94.2344 127.195 94.1336L127.07 93.68C126.843 93.6296 126.642 93.554 126.441 93.428L126.064 93.68C125.963 93.7304 125.863 93.7304 125.787 93.6548L125.285 93.176C125.209 93.1004 125.184 92.9744 125.259 92.8988L125.486 92.5208C125.36 92.3192 125.285 92.1176 125.209 91.8908L124.706 91.79C124.631 91.7648 124.581 91.7144 124.581 91.6388L124.555 90.8576C124.555 90.782 124.606 90.7064 124.681 90.6812L125.159 90.5552C125.209 90.3284 125.285 90.1268 125.41 89.9252L125.159 89.5472C125.109 89.4464 125.109 89.3204 125.184 89.2448L125.637 88.766C125.712 88.6904 125.838 88.6652 125.938 88.7156L126.315 88.9172ZM127.019 90.2024C126.391 90.6812 126.416 91.5884 127.045 92.042C127.422 92.3192 127.975 92.294 128.352 92.0168C128.981 91.538 128.955 90.6308 128.327 90.1772C127.925 89.9 127.397 89.9252 127.019 90.2024Z" fill="#E7A5DD"/>
<path d="M101.625 88.2369C101.399 87.8841 100.745 87.2289 100.393 86.9265C100.041 86.6241 99.6137 86.4981 99.1863 86.5737C98.7086 86.6493 98.3063 87.0021 97.9794 87.3549C97.0994 88.2369 96.2949 89.1693 95.4903 90.1017C95.1131 89.5221 94.5851 88.4385 93.7554 88.5141C93.4537 88.5393 93.2777 88.6905 93.0263 88.9425C92.6994 89.2953 92.3726 89.7993 91.9954 90.3789L91.568 90.9837V91.6893C91.568 92.4453 92.1966 93.0501 92.976 93.0501H100.217C100.997 93.0501 101.625 92.4453 101.625 91.6893V88.2369Z" fill="#6E82BA"/>
<path d="M96.5966 85.9184C96.5966 86.5988 96.0183 87.1784 95.3143 87.1784C94.6103 87.1784 94.032 86.624 94.032 85.9184C94.032 85.2128 94.6103 84.6584 95.3143 84.6584C96.0434 84.6584 96.5966 85.238 96.5966 85.9184Z" fill="#F9CA51"/>
<path d="M99.9657 93.1004H93.2274C92.3223 93.1004 91.568 92.3444 91.568 91.4372V84.608C91.568 83.7008 92.3223 82.9448 93.2274 82.9448H99.9657C100.871 82.9448 101.625 83.7008 101.625 84.608V91.4372C101.625 92.3444 100.896 93.1004 99.9657 93.1004Z" stroke="#DBE0DD" stroke-miterlimit="10"/>
<path d="M81.9886 151.64C81.9886 151.64 82.6423 148.692 79.248 147.23L80.1532 144.71L72.1578 142.291L69.9452 148.364L81.9886 151.64Z" fill="#6E82BA"/>
<path d="M81.0081 147.784C80.3544 147.885 79.7007 148.011 79.0721 148.213C78.9464 148.238 78.9967 148.44 79.1224 148.389C79.7509 148.188 80.4047 148.062 81.0584 147.961C81.1589 147.961 81.1087 147.784 81.0081 147.784Z" fill="#2C2C2C"/>
<path d="M80.2789 147.306C79.6754 147.482 79.0971 147.633 78.4937 147.81C78.368 147.835 78.4183 148.036 78.544 147.986C79.1474 147.81 79.7257 147.658 80.3291 147.482C80.4549 147.457 80.4046 147.28 80.2789 147.306Z" fill="#2C2C2C"/>
<path d="M68.7131 144.836C68.7131 144.836 70.8503 142.694 68.7383 139.62L70.8503 137.982L65.3691 131.682L60.2651 135.638L68.7131 144.836Z" fill="#6E82BA"/>
<path d="M69.9451 141.056C69.3417 140.779 68.7131 140.552 68.0594 140.376C67.9337 140.35 67.8834 140.527 68.0091 140.552C68.6377 140.728 69.2662 140.955 69.8697 141.232C69.9702 141.258 70.0457 141.106 69.9451 141.056Z" fill="#2C2C2C"/>
<path d="M69.568 140.25C68.9898 140.073 68.3863 139.897 67.808 139.72C67.6823 139.695 67.632 139.872 67.7578 139.897C68.336 140.073 68.9395 140.25 69.5178 140.426C69.6435 140.476 69.6938 140.275 69.568 140.25Z" fill="#2C2C2C"/>
<path d="M78.8205 122.484C74.6217 125.961 68.6377 129.01 64.3131 132.236C65.9725 134.05 69.9954 140.048 69.9954 140.048C74.144 136.873 79.7508 131.581 84.1005 127.599C85.5337 126.264 86.5645 124.273 86.2628 122.332C85.936 120.241 83.9245 118.83 81.9634 118.023C80.0023 117.242 77.1108 115.957 77.1108 115.957L76.4571 112.807L73.2388 112.731C73.0377 112.908 72.6103 114.898 72.6103 114.898L78.8205 122.484Z" fill="#E7A5DD"/>
<path d="M83.2458 125.205C81.8126 121.652 75.9292 116.637 73.2389 113.916L73.1635 110.388L65.7212 111.32C64.4892 113.437 63.8858 116.058 64.6149 118.401C65.3692 120.871 67.4561 122.181 69.5932 123.643C71.7303 125.104 74.0183 126.868 75.8538 128.658C74.7475 132.841 72.8115 138.738 71.6801 142.921L80.7566 146.197C81.5612 143.324 82.6423 137.604 83.3715 134.731C84.1258 131.732 84.3521 127.977 83.2458 125.205Z" fill="#E7A5DD"/>
<path d="M66.3498 121.274C68.8138 123.164 71.2526 125.054 73.7166 126.944C74.2698 127.372 74.9486 127.801 75.2503 128.456C75.5772 129.136 75.2503 129.892 75.0995 130.573C74.9989 130.976 74.9235 131.379 74.8229 131.782C74.0686 134.655 73.2138 137.503 72.3841 140.35C72.1326 141.207 71.8812 142.064 71.6298 142.896C71.6046 143.022 71.7806 143.072 71.8058 142.946C72.4846 140.678 73.1383 138.435 73.792 136.167C74.1943 134.756 74.5966 133.37 74.9738 131.959C75.0743 131.581 75.1749 131.228 75.2503 130.85C75.376 130.245 75.6275 129.615 75.5772 128.985C75.5269 128.38 75.1749 127.902 74.7475 127.524C74.144 126.969 73.4652 126.516 72.8366 126.012C72.1326 125.457 71.4286 124.928 70.7246 124.374C69.3166 123.29 67.8835 122.181 66.4755 121.098C66.3498 121.047 66.2492 121.198 66.3498 121.274Z" fill="#2C2C2C"/>
<path d="M84 131.707C84.4023 129.136 84.2011 126.012 82.4914 123.895C81.4103 122.584 80.3291 121.224 79.0469 120.09C78.368 119.485 77.6891 118.88 77.0354 118.275C76.3817 117.67 75.7783 116.99 75.0743 116.461C74.9737 116.385 74.9486 116.41 74.9234 116.31C74.9234 116.259 74.9486 116.158 74.9486 116.108C74.9737 115.881 74.9989 115.629 75.024 115.402C75.0743 115.05 75.0994 114.672 75.1497 114.319C75.1497 114.193 74.9737 114.193 74.9486 114.319C74.9234 114.621 74.8731 114.924 74.848 115.226C74.8229 115.579 74.7223 115.957 74.7223 116.335C74.7223 116.511 74.8731 116.562 74.9989 116.688C75.3257 116.965 75.6274 117.267 75.9543 117.544C76.5829 118.149 77.2114 118.754 77.8651 119.359C78.5189 119.938 79.1726 120.493 79.776 121.123C80.3543 121.728 80.9074 122.358 81.4354 123.013C81.9131 123.592 82.4411 124.147 82.8183 124.827C83.1703 125.457 83.4217 126.138 83.5977 126.843C83.9749 128.406 84 130.069 83.7486 131.656C83.7989 131.757 83.9749 131.808 84 131.707Z" fill="#2C2C2C"/>
<path d="M80.7817 146.071C77.7394 145.063 74.7726 143.878 71.7554 142.87C71.6297 142.82 71.5794 143.022 71.7051 143.047C74.7474 144.055 77.7143 145.239 80.7314 146.247C80.8571 146.272 80.9074 146.096 80.7817 146.071Z" fill="#2C2C2C"/>
<path d="M70.1715 139.922C68.0846 137.478 66.4 134.731 64.3635 132.261C64.288 132.16 64.1623 132.312 64.2377 132.387C66.2743 134.857 67.9589 137.604 70.0457 140.048C70.096 140.149 70.2469 140.023 70.1715 139.922Z" fill="#2C2C2C"/>
<path opacity="0.3" d="M87.9475 99.2492L87.9224 105.675L88.8275 105.776L90.0595 105.348L90.1601 98.5688C90.1601 98.5436 88.2744 98.5688 87.9475 99.2492Z" fill="#DBE0DD"/>
<path d="M85.7753 104.639L79.9426 111.243L80.9405 112.128L86.7731 105.524L85.7753 104.639Z" fill="#2C2C2C"/>
<path d="M87.0424 100.005C88.6264 98.342 91.1658 98.1404 92.5235 99.1232C92.4481 99.0224 92.071 98.6948 91.9704 98.594C90.663 97.334 88.2241 97.7372 86.5395 99.5264C84.855 101.29 84.5532 103.76 85.8607 105.02C85.9361 105.096 86.0367 105.171 86.1372 105.247C85.1064 103.911 85.4584 101.643 87.0424 100.005Z" fill="#2C2C2C"/>
<path d="M92.4732 99.0729C92.3978 98.9973 91.7441 98.4933 91.6435 98.4429C92.6743 99.7533 92.8755 102.424 91.2915 104.088C89.7075 105.751 87.4698 106.204 86.1121 105.222C86.1875 105.322 86.2629 105.398 86.3383 105.474C87.6458 106.734 90.0846 106.33 91.7692 104.541C93.5041 102.802 93.8058 100.333 92.4732 99.0729Z" fill="#2C2C2C"/>
<path d="M78.6698 107.817L80.9829 106.834C80.9829 106.834 82.1395 105.852 82.8938 105.549C83.6481 105.247 84.2012 105.297 84.6789 105.348C85.1566 105.398 86.1875 105.751 85.9361 106.305C85.7601 106.683 85.3829 106.507 84.8046 106.381C84.2263 106.255 83.3715 106.532 83.3715 106.532C83.3715 106.532 84.8801 107.364 84.9555 108.271C84.9555 108.271 85.0058 108.825 84.2515 108.699C84.2515 108.699 84.2766 109.556 83.4469 109.38C83.4469 109.38 82.8686 108.649 82.3909 108.346L82.1143 108.22C82.1143 108.22 82.7932 109.254 82.7178 109.581C82.6423 109.909 82.4663 110.161 82.1395 110.06C81.8126 109.934 81.8126 109.38 81.4355 109.153C81.4355 109.153 81.1086 109.606 80.9578 109.783C80.8069 109.984 78.4686 111.068 78.4686 111.068C78.4686 111.068 79.0218 109.808 79.2229 109.128C79.4743 108.321 78.6698 107.817 78.6698 107.817Z" fill="#F4B298"/>
<path d="M84.1007 106.91C83.7235 106.457 83.1201 106.23 82.5418 106.331C82.4161 106.356 82.4664 106.532 82.5921 106.507C83.095 106.431 83.6481 106.633 83.9498 107.036C84.0504 107.137 84.1761 107.011 84.1007 106.91Z" fill="#ED796A"/>
<path d="M84.2263 108.699C83.7989 107.843 83.0195 107.213 82.1143 106.935C81.9886 106.91 81.9383 107.087 82.064 107.112C82.9189 107.364 83.648 107.994 84.0755 108.8C84.1257 108.901 84.2766 108.8 84.2263 108.699Z" fill="#ED796A"/>
<path d="M87.3943 104.869C88.6263 105.02 89.9338 104.516 90.6881 103.533C90.7635 103.432 90.6378 103.306 90.5623 103.407C89.8081 104.365 88.6012 104.844 87.3943 104.692C87.2686 104.667 87.2686 104.844 87.3943 104.869Z" fill="#DBE0DD"/>
<path d="M93.2275 100.207C93.0515 98.7704 91.4172 98.342 90.2104 98.4176C88.903 98.4932 87.6458 99.1232 86.791 100.156C86.7155 100.257 86.8412 100.383 86.9167 100.282C87.671 99.4004 88.727 98.7956 89.8835 98.6444C91.0401 98.4932 92.8504 98.7704 93.0515 100.207C93.0515 100.333 93.2275 100.333 93.2275 100.207Z" fill="#DBE0DD"/>
<path d="M67.8834 86.8507C68.8891 86.7751 69.8697 87.1531 70.7497 87.6067C71.6548 88.0603 72.4091 89.0431 73.3645 89.3455C74.9485 89.8243 77.0857 88.8415 78.7451 88.6903C80.4045 88.5391 81.7874 88.5895 83.1703 89.4967C84.2514 90.2023 85.1565 91.6135 85.2571 92.9239C85.3325 94.0831 84.176 97.7119 81.0331 99.4003C80.6811 99.6019 80.304 99.7531 79.8765 99.8791L79.9268 99.8539C75.552 101.442 71.5794 99.7279 69.0651 99.2239C67.6571 98.9467 66.224 98.4931 65.0423 97.6615C63.8605 96.8299 62.9051 95.5699 62.6788 94.1335C62.4525 92.6971 63.056 91.1095 64.3131 90.3787C64.6903 90.1519 65.1428 90.0007 65.3691 89.6227C65.5702 89.2951 65.5451 88.8919 65.6205 88.5391C65.8468 87.5815 66.8777 86.9263 67.8834 86.8507Z" fill="#2C2C2C"/>
<path d="M79.4491 97.9639C79.3988 98.0395 77.9154 100.963 77.9154 100.963L74.496 99.1987L76.5577 95.0155L79.4491 97.9639Z" fill="#F6C2A1"/>
<path d="M79.248 99.0475C79.248 99.0475 81.6114 99.8287 82.8686 97.4095C83.296 96.5779 83.7486 95.6959 84.3771 94.0579C85.056 92.2939 84.1509 90.9583 82.3657 90.0763L82.1897 90.0007C80.2034 89.1691 78.4686 89.5723 77.7646 91.4875L77.0857 93.3271C77.0606 93.2767 74.9737 96.9559 79.248 99.0475Z" fill="#F6C2A1"/>
<path d="M82.9439 95.6203C82.8937 95.7715 82.7177 95.8219 82.5668 95.7715C82.4159 95.6959 82.3405 95.5447 82.4159 95.3935C82.4662 95.2423 82.6422 95.1919 82.7931 95.2423C82.9439 95.2927 82.9942 95.4691 82.9439 95.6203Z" fill="#2C2C2C"/>
<path d="M80.4297 94.5367C80.3794 94.6879 80.2034 94.7383 80.0525 94.6879C79.9017 94.6123 79.8262 94.4611 79.9017 94.3099C79.9519 94.1587 80.1279 94.1083 80.2788 94.1587C80.4297 94.2343 80.5051 94.3855 80.4297 94.5367Z" fill="#2C2C2C"/>
<path d="M79.7257 93.302C80.0274 93.2768 80.3291 93.4028 80.5051 93.6548C80.5303 93.7052 80.5805 93.7052 80.6308 93.68C80.6811 93.6548 80.7063 93.6044 80.656 93.554C80.4548 93.2516 80.0777 93.0752 79.7005 93.1004C79.6503 93.1004 79.6 93.1508 79.6 93.2012C79.6503 93.2516 79.6754 93.302 79.7257 93.302Z" fill="#2C2C2C"/>
<path d="M82.4914 94.5872C82.7932 94.562 83.0949 94.688 83.2709 94.94C83.296 94.9904 83.3463 94.9904 83.3966 94.9652C83.4469 94.94 83.472 94.8896 83.4217 94.8392C83.2206 94.5368 82.8434 94.3604 82.4663 94.3856C82.416 94.3856 82.3657 94.436 82.3657 94.4864C82.416 94.5368 82.4412 94.5872 82.4914 94.5872Z" fill="#2C2C2C"/>
<path d="M82.8434 93.8059C82.9189 93.8311 82.9943 93.8563 83.0697 93.8815C83.0446 93.8815 83.0194 93.8563 82.9943 93.8563C83.1703 93.9319 83.3211 94.0327 83.472 94.1335C83.5223 94.1839 83.648 94.1839 83.7234 94.1587C83.7989 94.1335 83.8743 94.0831 83.8994 94.0075C83.9497 93.9319 83.9497 93.8563 83.9246 93.7555C83.9246 93.7303 83.8994 93.7051 83.8994 93.6799C83.8743 93.6295 83.824 93.6043 83.7989 93.5791C83.5726 93.4027 83.296 93.2767 83.0194 93.2011C82.944 93.1759 82.8434 93.2011 82.768 93.2263C82.6926 93.2767 82.6423 93.3271 82.6171 93.4027C82.592 93.5791 82.6674 93.7303 82.8434 93.8059Z" fill="#2C2C2C"/>
<path d="M80.0777 92.6971C80.1531 92.7223 80.2285 92.7475 80.304 92.7727C80.2788 92.7727 80.2537 92.7475 80.2285 92.7475C80.4045 92.8231 80.5554 92.9239 80.7062 93.0247C80.7565 93.0751 80.8822 93.0751 80.9577 93.0499C81.0331 93.0247 81.1085 92.9743 81.1337 92.8987C81.184 92.8231 81.184 92.7475 81.1588 92.6467C81.1588 92.6215 81.1337 92.5963 81.1337 92.5711C81.1085 92.5207 81.0583 92.4955 81.0331 92.4703C80.8068 92.2939 80.5303 92.1679 80.2537 92.0923C80.1783 92.0671 80.0777 92.0923 80.0023 92.1175C79.9268 92.1679 79.8765 92.2183 79.8514 92.2939C79.8263 92.4703 79.9017 92.6467 80.0777 92.6971Z" fill="#2C2C2C"/>
<path d="M77.0102 93.302C77.5634 94.6628 79.4994 92.6972 80.8822 92.168C81.888 91.79 83.6982 91.664 84.3771 90.782C84.3771 90.782 82.8434 88.514 80.5051 88.8416C78.1417 89.1692 76.8845 91.3364 76.8845 91.3364L77.0102 93.302Z" fill="#2C2C2C"/>
<path d="M76.7839 92.8736C77.1359 92.8988 77.4377 93.176 77.6388 93.5036L76.8594 95.066C76.4822 95.0408 76.1302 94.8644 75.9291 94.5368C75.7279 94.2344 75.7028 93.7808 75.8788 93.428C76.0548 93.0752 76.4068 92.8484 76.7839 92.8736Z" fill="#F6C2A1"/>
<path d="M77.0857 94.0075C77.1611 93.7303 76.9851 93.4027 76.7337 93.2515C76.6331 93.2011 76.5577 93.1759 76.4571 93.1759C76.3314 93.1759 76.3314 93.3523 76.4571 93.3775C76.4822 93.3775 76.5074 93.3775 76.5325 93.3775C76.5074 93.3775 76.5576 93.3775 76.5576 93.3775H76.5828H76.6079C76.6079 93.3775 76.6331 93.4027 76.6331 93.3775C76.6582 93.3775 76.6582 93.4027 76.6834 93.4027C76.6834 93.4027 76.7085 93.4027 76.7085 93.4279C76.7085 93.4279 76.7337 93.4531 76.7337 93.4279C76.7588 93.4531 76.7588 93.4531 76.7839 93.4783C76.8091 93.5035 76.8091 93.5035 76.8342 93.5287C76.8342 93.5287 76.8342 93.5539 76.8594 93.5539C76.8594 93.5791 76.8845 93.5791 76.8845 93.6043C76.8845 93.6043 76.8845 93.6295 76.9097 93.6295C76.9097 93.6295 76.9348 93.6547 76.9097 93.6295C76.9348 93.6547 76.9348 93.7051 76.9348 93.7303V93.7555C76.9348 93.7555 76.9348 93.7555 76.9348 93.7807C76.9348 93.7555 76.9348 93.7555 76.9348 93.7807C76.9348 93.8059 76.9348 93.8059 76.9348 93.8311C76.9348 93.8563 76.9348 93.8563 76.9348 93.8815C76.9348 93.8563 76.9348 93.9067 76.9348 93.8815V93.9067C76.9348 93.9571 76.9599 94.0075 77.0102 94.0327C77.0102 94.0831 77.0605 94.0579 77.0857 94.0075Z" fill="#ED796A"/>
<path d="M79.2228 98.9719C78.5691 98.7199 78.016 98.1655 77.7645 97.5103C77.7142 97.4095 77.5382 97.4347 77.5885 97.5607C77.8651 98.2915 78.4434 98.8711 79.1725 99.1483C79.2731 99.1987 79.3234 99.0223 79.2228 98.9719Z" fill="#ED796A"/>
<path d="M81.36 94.7132C81.3097 94.8896 81.2594 95.0912 81.184 95.2676C81.1589 95.3684 81.1337 95.444 81.1086 95.5448C81.0834 95.6204 81.0583 95.696 81.1086 95.7716C81.1337 95.822 81.184 95.8724 81.2594 95.8976C81.2846 95.9228 81.3852 95.948 81.3852 95.9732C81.3852 95.9984 81.3097 96.0236 81.2846 96.0236C81.2343 96.0488 81.2092 96.074 81.1589 96.074C81.0583 96.1244 80.9829 96.1496 80.8823 96.2C80.7817 96.2504 80.8572 96.4268 80.9829 96.3512C81.0834 96.3008 81.1589 96.2756 81.2594 96.2252C81.3349 96.1748 81.4354 96.1496 81.5109 96.0992C81.6366 95.9732 81.5612 95.822 81.4354 95.7464C81.3852 95.7212 81.2846 95.696 81.2846 95.6456C81.2846 95.5952 81.3097 95.5448 81.3349 95.4944C81.36 95.444 81.36 95.3936 81.3852 95.3432C81.4354 95.1416 81.5109 94.94 81.5612 94.7384C81.5863 94.6376 81.4103 94.5872 81.36 94.7132Z" fill="#2C2C2C"/>
<path d="M79.4994 95.9227C79.5496 95.8975 79.6251 95.8723 79.7005 95.8723C79.7759 95.8975 79.8262 95.9731 79.8765 96.0487C80.0525 96.3007 80.2536 96.6283 80.4045 96.9055C80.2034 97.0063 79.9016 97.1323 79.6754 97.0567C79.4491 96.9811 79.2731 96.7795 79.2228 96.5527C79.1976 96.3259 79.2982 96.0487 79.4994 95.9227Z" fill="#ED796A"/>
<path d="M82.1393 89.018C80.3039 88.136 78.2925 89.0432 76.4571 89.3708C75.3759 89.5472 74.2948 89.5472 73.3142 88.9676C72.3085 88.3628 71.6296 87.3548 70.8502 86.498C70.0708 85.616 69.0902 84.7844 67.8582 84.6836C67.7325 84.6836 67.7325 84.86 67.8582 84.8852C70.2719 85.0868 71.2525 87.8336 73.0376 89.0432C74.7473 90.2024 76.7839 89.4968 78.6193 89.0936C79.7508 88.8416 80.9576 88.6904 82.0388 89.1944C82.1645 89.2448 82.2651 89.0684 82.1393 89.018Z" fill="#2C2C2C"/>
<path d="M74.6971 100.207C74.9485 99.6272 74.9234 98.9216 74.5965 98.3672C74.2948 97.8632 73.7668 97.5104 73.1885 97.4096C73.0628 97.3844 73.0125 97.5608 73.1382 97.586C73.6662 97.6616 74.144 97.964 74.4205 98.4176C74.7222 98.9216 74.7725 99.5516 74.5462 100.081C74.496 100.232 74.6468 100.333 74.6971 100.207Z" fill="#2C2C2C"/>
<path d="M60.1897 109.934C59.36 110.262 58.48 110.614 57.8765 111.27C57.2731 111.925 56.9714 112.983 57.4491 113.739C56.5942 113.941 55.7645 114.369 55.2365 115.075C54.6834 115.755 54.4571 116.738 54.7588 117.544C55.0605 118.376 55.9405 118.981 56.7954 118.88C56.192 120.14 56.7451 121.803 57.952 122.458C59.1588 123.114 60.8685 122.66 61.5725 121.476C62.2765 120.291 61.8994 118.578 60.768 117.796C61.8994 117.595 62.704 116.41 62.6285 115.276C62.5531 114.142 61.7485 113.109 60.7177 112.63C61.3965 112.177 61.7737 111.118 61.1702 110.74L61.7234 109.959L60.7428 109.354L60.1897 109.934Z" fill="#DBE0DD"/>
<path d="M67.9839 95.9984C66.9782 95.948 66.0228 96.3764 65.2433 97.0064C64.4639 97.6364 63.8605 98.4428 63.3325 99.2744C62.6788 100.308 62.1005 101.366 61.6228 102.475C61.2456 103.332 60.9188 104.239 61.0445 105.171C61.2205 106.305 62.0753 107.212 63.081 107.767C64.0868 108.296 65.2182 108.523 66.3245 108.724L73.3645 98.6192C72.3839 97.8632 69.2159 96.0488 67.9839 95.9984Z" fill="#6E82BA"/>
<path d="M65.3793 105.726L63.2804 104.339L60.6783 108.294L62.7772 109.681L65.3793 105.726Z" fill="#6E82BA"/>
<path d="M59.4606 108.548L60.6674 108.296L62.7794 109.682L62.9051 110.841L59.4606 108.548Z" fill="#6E82BA"/>
<path d="M61.5976 106.658C62.2765 107.112 62.9553 107.59 63.6342 108.044C63.7348 108.12 63.8353 108.17 63.9108 108.246C64.0113 108.321 64.1119 108.145 64.0113 108.094C63.3325 107.641 62.6536 107.162 61.9748 106.708C61.8742 106.633 61.7736 106.582 61.6982 106.507C61.5725 106.431 61.4971 106.582 61.5976 106.658Z" fill="#2C2C2C"/>
<path d="M60.6171 108.372C61.2457 108.75 61.8491 109.153 62.4777 109.531C62.5531 109.581 62.6537 109.632 62.7291 109.707C62.8297 109.783 62.9302 109.606 62.8297 109.556C62.2011 109.178 61.5977 108.775 60.9691 108.397C60.8937 108.346 60.7931 108.296 60.7177 108.22C60.6171 108.145 60.5165 108.321 60.6171 108.372Z" fill="#2C2C2C"/>
<path d="M75.4766 97.5608C75.6023 97.7876 77.0354 98.9216 78.192 100.434C79.1223 101.668 77.9657 105.499 77.7646 106.406C77.312 108.422 80.8823 113.638 77.6891 113.008C73.3394 112.126 64.0869 114.646 64.4137 110.942C64.7657 106.91 67.8834 98.594 71.328 97.8128C73.44 97.3088 75.4766 97.5608 75.4766 97.5608Z" fill="#DBE0DD"/>
<path d="M67.4057 106.658L63.9611 107.716C63.9108 108.624 64.1622 109.556 64.7405 110.262C65.3188 110.967 66.224 111.396 67.1291 111.345C68.1851 111.27 69.0902 110.514 69.8697 109.783C68.864 108.901 68.0342 107.842 67.4057 106.658Z" fill="#6E82BA"/>
<path d="M70.1714 98.4176C67.7326 100.509 66.928 102.601 65.6206 104.869C65.1428 105.675 64.6903 106.532 64.6148 107.464C64.4891 108.976 65.4446 110.488 66.8526 111.068C67.9589 111.522 69.1909 111.622 70.3726 111.723C74.8229 112.126 78.6948 111.194 78.6948 111.194L79.7257 106.759L71.328 106.381L74.3703 101.114" fill="#DBE0DD"/>
<path d="M70.0959 98.342C68.5622 99.6776 67.4559 101.29 66.5005 103.054C66.0228 103.911 65.4948 104.768 65.0674 105.65C64.6399 106.507 64.3634 107.464 64.5645 108.422C64.7405 109.254 65.1931 110.01 65.8468 110.564C66.6011 111.194 67.5817 111.471 68.5371 111.622C70.6994 111.95 72.9371 112 75.0994 111.824C76.3062 111.723 77.5382 111.572 78.7199 111.295C78.7451 111.295 78.7702 111.27 78.7954 111.219C79.1474 109.732 79.4742 108.271 79.8262 106.784C79.8514 106.734 79.8011 106.658 79.7257 106.658C77.2617 106.557 74.8228 106.431 72.3588 106.33C72.0068 106.305 71.6799 106.305 71.3279 106.28C71.3531 106.33 71.3782 106.381 71.4034 106.431C72.2834 104.894 73.1885 103.357 74.0685 101.82C74.1942 101.593 74.3199 101.391 74.4457 101.164C74.4959 101.064 74.3451 100.963 74.2948 101.064C73.4148 102.601 72.5097 104.138 71.6297 105.675C71.5039 105.902 71.3782 106.104 71.2525 106.33C71.2274 106.406 71.2525 106.482 71.3279 106.482C73.7919 106.582 76.2308 106.708 78.6948 106.809C79.0468 106.834 79.3737 106.834 79.7257 106.86C79.7005 106.809 79.6754 106.784 79.6251 106.734C79.3485 107.893 79.0719 109.077 78.7954 110.236C78.7451 110.488 78.6697 110.74 78.6194 110.992C78.6194 111.043 78.5691 111.118 78.5942 111.144C78.5942 111.093 78.6948 111.118 78.5942 111.093C78.4182 111.068 78.1417 111.194 77.9908 111.219C77.6137 111.295 77.2114 111.345 76.8342 111.396C74.1188 111.774 71.3028 111.824 68.5874 111.396C67.2548 111.194 65.9725 110.715 65.2182 109.506C64.8914 108.976 64.6902 108.372 64.6651 107.767C64.6399 107.011 64.9165 106.255 65.2685 105.6C65.5954 104.944 65.9977 104.314 66.3245 103.684C66.6514 103.105 66.9531 102.5 67.3051 101.92C68.0845 100.61 69.0399 99.4256 70.2217 98.4176C70.3222 98.3924 70.1965 98.2664 70.0959 98.342Z" fill="#2C2C2C"/>
<path d="M70.5737 97.3592C71.5292 96.8804 72.736 96.8552 73.7166 97.3088C74.6972 97.7624 75.4514 98.6696 75.7029 99.728C75.9292 100.66 75.7783 101.643 75.4514 102.55C75.1246 103.458 74.6217 104.264 74.1189 105.096C73.8674 105.499 73.1132 106.482 73.0126 106.507L71.2777 106.381C71.2777 106.381 72.1074 104.995 72.6606 103.886C73.1634 102.903 74.0183 101.82 74.1943 100.988C74.4457 99.9044 73.9932 98.6444 73.0377 98.09C72.3086 97.6616 71.3783 97.712 70.5234 97.7624" fill="#6E82BA"/>
<path d="M52.144 111.496C52.0434 112.378 52.6972 113.16 53.552 113.235C54.432 113.336 55.2114 112.681 55.2869 111.824C55.3874 110.942 54.7337 110.161 53.8789 110.085C53.024 109.984 52.2446 110.614 52.144 111.496Z" stroke="#DBE0DD" stroke-miterlimit="10"/>
<path d="M76.3063 180.771C78.2675 180.166 79.6252 178.302 79.6 176.235C79.6 176.109 79.3989 176.109 79.3989 176.235C79.424 178.226 78.1166 179.99 76.2309 180.595C76.1555 180.62 76.2058 180.796 76.3063 180.771Z" fill="#DBE0DD"/>
<path d="M76.6835 184.375C78.3681 183.518 80.2035 182.56 80.9829 180.746C81.7623 179.007 81.5109 176.815 82.8938 175.328C82.9692 175.227 82.8435 175.101 82.7681 175.202C81.4606 176.588 81.5612 178.579 80.9829 180.267C80.2789 182.283 78.3932 183.316 76.5829 184.224C76.4823 184.249 76.5829 184.425 76.6835 184.375Z" fill="#DBE0DD"/>
<path d="M84.4778 175.479C83.5475 176.386 83.8995 177.798 84.0001 178.932C84.0755 179.713 84.0755 180.494 83.6481 181.174C83.3212 181.729 82.8686 182.182 82.5921 182.737C82.3658 183.19 82.2149 183.795 82.5418 184.249C82.8938 184.728 83.4469 184.602 83.8995 184.375C85.0309 183.846 85.9863 182.989 86.6652 181.956C87.5201 180.67 87.8972 179.083 87.7463 177.546C87.7463 177.42 87.5452 177.42 87.5452 177.546C87.7715 179.99 86.6401 182.434 84.5783 183.77C84.1258 184.072 83.2206 184.728 82.7178 184.198C82.2401 183.669 82.6926 182.863 83.0195 182.384C83.3212 181.93 83.6983 181.527 83.9246 181.023C84.1509 180.519 84.2263 179.99 84.2012 179.436C84.1509 178.226 83.5726 176.588 84.5783 175.63C84.7041 175.53 84.5532 175.404 84.4778 175.479Z" fill="#DBE0DD"/>
<path d="M79.3235 185.282C79.1977 185.383 79.072 185.534 79.1223 185.71C79.1475 185.836 79.2732 185.937 79.3989 185.962C79.5497 186.013 79.7257 185.988 79.8766 185.962C80.0526 185.937 80.2537 185.862 80.4046 185.786C80.6812 185.635 81.0332 185.383 80.8572 185.03C80.6812 184.677 80.2035 184.728 79.9017 184.854C79.7006 184.98 79.5246 185.131 79.3235 185.282C79.248 185.332 79.3486 185.509 79.4492 185.433C79.7509 185.206 80.128 184.879 80.5303 185.005C80.656 185.03 80.7566 185.156 80.7566 185.282C80.7566 185.408 80.6309 185.484 80.5555 185.559C80.304 185.736 80.0275 185.836 79.7257 185.836C79.6252 185.836 79.4743 185.836 79.3989 185.761C79.2732 185.66 79.424 185.509 79.4995 185.433C79.5497 185.358 79.424 185.206 79.3235 185.282Z" fill="#DBE0DD"/>
<path d="M81.5109 188.533C82.9692 187.197 85.0309 186.92 86.6652 185.836C88.1486 184.854 89.1795 183.039 89.4561 181.3C89.4812 181.174 89.3052 181.124 89.2801 181.25C88.9783 183.09 87.8721 184.929 86.2378 185.887C84.6538 186.819 82.7681 187.147 81.3852 188.407C81.3098 188.482 81.4355 188.608 81.5109 188.533Z" fill="#DBE0DD"/>
<path d="M82.6675 188.81C86.3889 188.81 89.4058 185.786 89.4058 182.056C89.4058 178.326 86.3889 175.303 82.6675 175.303C78.946 175.303 75.9292 178.326 75.9292 182.056C75.9292 185.786 78.946 188.81 82.6675 188.81Z" stroke="#2C2C2C" stroke-miterlimit="10"/>
<path d="M131.897 171.976C132.727 171.876 133.406 172.506 133.883 173.186C135.015 174.774 135.643 176.764 135.669 178.856C135.669 179.41 135.643 180.015 135.417 180.544C135.191 181.074 134.738 181.578 134.185 181.704C133.104 181.83 131.067 178.528 130.489 176.386C130.263 175.58 130.062 174.723 130.238 173.866C130.389 172.959 131.067 172.077 131.897 171.976Z" fill="#E7A5DD"/>
<path d="M134.663 187.701C135.417 183.644 134.839 179.385 132.978 175.706C132.928 175.605 132.752 175.681 132.827 175.807C134.638 179.461 135.241 183.669 134.487 187.676C134.462 187.777 134.638 187.827 134.663 187.701Z" fill="#2C2C2C"/>
<path d="M141.099 175C141.502 175.454 141.401 176.109 141.2 176.638C140.722 177.949 139.792 179.108 138.61 179.965C138.283 180.192 137.931 180.418 137.504 180.494C137.102 180.57 136.624 180.494 136.347 180.242C135.845 179.662 136.951 177.142 137.982 175.933C138.359 175.479 138.786 175 139.365 174.774C139.918 174.496 140.697 174.547 141.099 175Z" fill="#E7A5DD"/>
<path d="M139.189 176.689C138.434 177.722 137.655 178.73 136.901 179.763C136.171 180.771 135.367 181.804 134.789 182.938C134.738 183.039 134.889 183.14 134.939 183.039C135.493 181.905 136.297 180.872 137.051 179.864C137.806 178.831 138.585 177.823 139.339 176.79C139.44 176.689 139.264 176.588 139.189 176.689Z" fill="#2C2C2C"/>
<path d="M93.5542 172.657C92.7496 172.934 92.4479 173.816 92.3222 174.622C92.0205 176.563 92.3474 178.629 93.2525 180.494C93.5039 180.998 93.7805 181.502 94.2331 181.88C94.6856 182.258 95.2891 182.485 95.8422 182.359C96.8731 182.006 97.2251 178.125 96.7976 175.933C96.6468 175.101 96.4456 174.244 95.8925 173.564C95.3394 172.858 94.3588 172.38 93.5542 172.657Z" fill="#E7A5DD"/>
<path d="M98.2307 187.878C95.7667 184.627 94.4342 180.595 94.4342 176.512C94.4342 176.386 94.2582 176.386 94.233 176.512C94.233 180.62 95.5907 184.702 98.0547 187.978C98.1302 188.054 98.3062 187.953 98.2307 187.878Z" fill="#2C2C2C"/>
<path d="M86.6651 179.461C86.5142 180.04 86.8914 180.57 87.3188 180.973C88.3245 181.93 89.6822 182.56 91.1154 182.787C91.5177 182.838 91.92 182.888 92.3222 182.762C92.7245 182.661 93.1017 182.384 93.2525 182.006C93.4537 181.25 91.3165 179.486 89.8834 178.856C89.3302 178.629 88.752 178.377 88.1234 178.428C87.52 178.503 86.8411 178.881 86.6651 179.461Z" fill="#E7A5DD"/>
<path d="M89.0285 180.292C90.16 180.872 91.3165 181.426 92.448 182.006C93.5543 182.586 94.736 183.14 95.7417 183.921C95.8423 183.997 95.9428 183.82 95.8423 183.77C94.8365 183.014 93.6548 182.434 92.5485 181.855C91.4171 181.275 90.2857 180.721 89.1291 180.141C89.0034 180.091 88.928 180.242 89.0285 180.292Z" fill="#2C2C2C"/>
<path d="M168.002 184.551H127.648V189.163H168.002V184.551Z" fill="#E7A5DD"/>
<path d="M133.305 184.702C133.305 186.189 133.305 187.676 133.305 189.163C133.305 189.289 133.506 189.289 133.506 189.163C133.506 187.676 133.506 186.189 133.506 184.702C133.506 184.576 133.305 184.576 133.305 184.702Z" fill="#DBE0DD"/>
<path d="M138.258 184.702C138.258 186.189 138.258 187.676 138.258 189.163C138.258 189.289 138.459 189.289 138.459 189.163C138.459 187.676 138.459 186.189 138.459 184.702C138.434 184.576 138.258 184.576 138.258 184.702Z" fill="#DBE0DD"/>
<path d="M143.186 184.702C143.186 186.189 143.186 187.676 143.186 189.163C143.186 189.289 143.387 189.289 143.387 189.163C143.387 187.676 143.387 186.189 143.387 184.702C143.362 184.576 143.186 184.576 143.186 184.702Z" fill="#DBE0DD"/>
<path d="M148.089 184.702C148.089 186.189 148.089 187.676 148.089 189.163C148.089 189.289 148.29 189.289 148.29 189.163C148.29 187.676 148.29 186.189 148.29 184.702C148.29 184.576 148.089 184.576 148.089 184.702Z" fill="#DBE0DD"/>
<path d="M153.017 184.702C153.017 186.189 153.017 187.676 153.017 189.163C153.017 189.289 153.218 189.289 153.218 189.163C153.218 187.676 153.218 186.189 153.218 184.702C153.193 184.576 153.017 184.576 153.017 184.702Z" fill="#DBE0DD"/>
<path d="M157.92 184.702C157.92 186.189 157.92 187.676 157.92 189.163C157.92 189.289 158.121 189.289 158.121 189.163C158.121 187.676 158.121 186.189 158.121 184.702C158.096 184.576 157.92 184.576 157.92 184.702Z" fill="#DBE0DD"/>
<path d="M162.823 184.702C162.823 186.189 162.823 187.676 162.823 189.163C162.823 189.289 163.024 189.289 163.024 189.163C163.024 187.676 163.024 186.189 163.024 184.702C163.024 184.576 162.823 184.576 162.823 184.702Z" fill="#DBE0DD"/>
<path d="M47.6434 174.37C49.3531 175 51.1885 174.27 52.5211 173.161C54.0297 171.876 55.0354 170.112 56.368 168.675C57.1223 167.869 57.952 167.163 58.9828 166.735C59.0834 166.684 59.008 166.533 58.8823 166.584C55.3623 168.096 54.3314 172.531 50.8365 174.043C49.856 174.471 48.7497 174.597 47.7188 174.219C47.568 174.144 47.5177 174.32 47.6434 174.37Z" fill="#DBE0DD"/>
<path d="M64.3885 166.911C64.0365 170.137 61.1702 172.178 58.5302 173.539C55.8651 174.925 52.8479 176.084 51.0125 178.629C50.3085 179.612 49.7051 181.124 50.5348 182.208C51.2136 183.14 52.5211 183.19 53.5519 182.964C54.8342 182.661 55.9908 181.88 56.9965 181.074C58.1531 180.141 59.1336 179.032 60.1645 177.949C62.3771 175.605 65.3691 172.707 68.8891 173.564C69.0148 173.589 69.0651 173.413 68.9394 173.388C66.0731 172.707 63.4834 174.471 61.4971 176.336C59.4102 178.327 57.6754 180.771 55.0856 182.157C54.0045 182.737 52.5714 183.216 51.3897 182.661C49.8308 181.93 50.2834 180.04 51.0628 178.881C52.8228 176.286 55.9154 175.101 58.5805 173.715C61.2959 172.304 64.2125 170.212 64.5645 166.886C64.5896 166.785 64.3885 166.785 64.3885 166.911Z" fill="#DBE0DD"/>
<path d="M68.9394 177.697C67.6068 177.42 66.2239 177.445 64.8914 177.747C63.5336 178.075 62.3519 178.705 61.2708 179.612C58.9828 181.552 57.2982 184.098 55.1359 186.189C53.9291 187.348 52.5965 188.382 51.0125 189.012C50.9119 189.062 50.9371 189.238 51.0628 189.188C53.7028 188.155 55.6639 186.013 57.4742 183.896C59.3599 181.704 61.2959 179.083 64.1371 178.125C65.6456 177.621 67.2799 177.546 68.8639 177.848C69.0148 177.898 69.0651 177.722 68.9394 177.697Z" fill="#DBE0DD"/>
<path d="M59.3599 189.289C59.9382 188.482 60.5919 187.752 61.3211 187.122C61.6982 186.794 62.1005 186.492 62.5279 186.214C62.9554 185.937 63.4582 185.61 63.9862 185.559C64.9416 185.458 65.4696 186.466 65.3188 187.298C65.1679 188.155 64.5394 188.709 63.8102 189.087C63.7096 189.138 63.8102 189.314 63.9108 189.238C64.5394 188.911 65.0674 188.482 65.3439 187.802C65.5954 187.197 65.5954 186.517 65.2434 185.962C64.2376 184.4 62.2011 186.114 61.2708 186.895C60.4914 187.55 59.7874 188.331 59.1839 189.163C59.1085 189.289 59.2845 189.364 59.3599 189.289Z" fill="#DBE0DD"/>
<path d="M68.9142 189.062C68.1599 189.062 67.4057 189.062 66.6765 189.062C64.8914 189.062 63.1062 189.062 61.3211 189.062C59.1588 189.062 56.9714 189.062 54.8091 189.062C52.9485 189.062 51.0628 189.062 49.2022 189.062C48.5737 189.062 47.9702 189.062 47.3417 189.062C47.1405 189.062 46.9645 189.062 46.7634 189.062C46.6879 189.062 46.5119 189.037 46.4617 189.062C46.4617 189.062 46.4365 189.062 46.4114 189.062C46.4365 189.087 46.4617 189.112 46.5119 189.163C46.5119 188.407 46.5119 187.651 46.5119 186.92C46.5119 185.131 46.5119 183.342 46.5119 181.552C46.5119 179.385 46.5119 177.193 46.5119 175.026C46.5119 173.161 46.5119 171.271 46.5119 169.406C46.5119 168.776 46.5119 168.171 46.5119 167.541C46.5119 167.34 46.5119 167.163 46.5119 166.962C46.5119 166.886 46.5371 166.71 46.5119 166.659C46.5119 166.659 46.5119 166.634 46.5119 166.609C46.4868 166.634 46.4617 166.659 46.4114 166.71C47.1657 166.71 47.9199 166.71 48.6491 166.71C50.4342 166.71 52.2194 166.71 54.0045 166.71C56.1668 166.71 58.3542 166.71 60.5165 166.71C62.3771 166.71 64.2628 166.71 66.1234 166.71C66.7519 166.71 67.3554 166.71 67.9839 166.71C68.1851 166.71 68.3611 166.71 68.5622 166.71C68.6377 166.71 68.8137 166.735 68.8639 166.71C68.8639 166.71 68.8891 166.71 68.9142 166.71C68.8891 166.684 68.8639 166.659 68.8137 166.609C68.8137 167.365 68.8137 168.121 68.8137 168.852C68.8137 170.641 68.8137 172.43 68.8137 174.219C68.8137 176.386 68.8137 178.579 68.8137 180.746C68.8137 182.611 68.8137 184.501 68.8137 186.366C68.8137 186.996 68.8137 187.6 68.8137 188.23C68.8137 188.508 68.7634 188.835 68.8137 189.112C68.8137 189.112 68.8137 189.138 68.8137 189.163C68.8137 189.289 69.0148 189.289 69.0148 189.163C69.0148 188.407 69.0148 187.651 69.0148 186.92C69.0148 185.131 69.0148 183.342 69.0148 181.552C69.0148 179.385 69.0148 177.193 69.0148 175.026C69.0148 173.161 69.0148 171.271 69.0148 169.406C69.0148 168.776 69.0148 168.171 69.0148 167.541C69.0148 167.264 69.0651 166.936 69.0148 166.659C69.0148 166.659 69.0148 166.634 69.0148 166.609C69.0148 166.558 68.9645 166.508 68.9142 166.508C68.1599 166.508 67.4057 166.508 66.6765 166.508C64.8914 166.508 63.1062 166.508 61.3211 166.508C59.1588 166.508 56.9714 166.508 54.8091 166.508C52.9485 166.508 51.0628 166.508 49.2022 166.508C48.5737 166.508 47.9702 166.508 47.3417 166.508C47.0651 166.508 46.7382 166.458 46.4617 166.508C46.4617 166.508 46.4365 166.508 46.4114 166.508C46.3611 166.508 46.3108 166.558 46.3108 166.609C46.3108 167.365 46.3108 168.121 46.3108 168.852C46.3108 170.641 46.3108 172.43 46.3108 174.219C46.3108 176.386 46.3108 178.579 46.3108 180.746C46.3108 182.611 46.3108 184.501 46.3108 186.366C46.3108 186.996 46.3108 187.6 46.3108 188.23C46.3108 188.508 46.2605 188.835 46.3108 189.112C46.3108 189.112 46.3108 189.138 46.3108 189.163C46.3108 189.213 46.3611 189.264 46.4114 189.264C47.1657 189.264 47.9199 189.264 48.6491 189.264C50.4342 189.264 52.2194 189.264 54.0045 189.264C56.1668 189.264 58.3542 189.264 60.5165 189.264C62.3771 189.264 64.2628 189.264 66.1234 189.264C66.7519 189.264 67.3554 189.264 67.9839 189.264C68.2605 189.264 68.5874 189.314 68.8639 189.264C68.8639 189.264 68.8891 189.264 68.9142 189.264C69.0399 189.264 69.0399 189.062 68.9142 189.062Z" fill="#2C2C2C"/>
<path d="M57.0469 140.451C57.0217 138.788 56.9966 137.1 56.6194 135.462C56.2423 133.824 55.9406 131.934 54.0046 130.825C52.5211 129.968 50.6103 129.968 49.0766 130.749C47.568 131.53 46.4617 133.042 46.0846 134.731C45.9086 135.462 45.8834 136.218 45.7577 136.948C45.632 137.679 45.4309 138.435 44.9531 139.015C44.7771 139.216 44.576 139.443 44.6011 139.695C44.6263 139.922 44.8023 140.098 44.9783 140.224C45.4811 140.602 46.0594 140.88 46.6629 141.056C47.9451 141.459 49.328 141.484 50.6606 141.484C52.3954 141.51 54.1303 141.535 55.8903 141.51C56.2423 141.51 56.6697 141.459 56.8709 141.182C57.0469 141.006 57.0469 140.703 57.0469 140.451Z" fill="#2C2C2C"/>
<path d="M52.6218 139.544C52.6218 139.645 52.6218 142.946 52.6218 142.946H48.7498V138.435L52.6218 139.544Z" fill="#F6C2A1"/>
<path d="M52.9234 140.628C52.9234 140.628 55.4125 140.25 55.4125 137.478C55.4125 136.52 55.4125 135.537 55.2114 133.773C55.0102 131.883 53.5771 131.102 51.5657 131.127H51.3645C49.2022 131.278 47.8445 132.463 48.0708 134.504L48.3222 136.47C48.3222 136.444 48.1462 140.728 52.9234 140.628Z" fill="#F6C2A1"/>
<path d="M54.6582 135.84C54.6582 135.991 54.5325 136.142 54.3817 136.142C54.2057 136.142 54.08 136.041 54.08 135.89C54.08 135.739 54.2057 135.588 54.3565 135.588C54.5074 135.562 54.6582 135.663 54.6582 135.84Z" fill="#2C2C2C"/>
<path d="M51.9176 136.016C51.9176 136.167 51.7919 136.318 51.6411 136.318C51.4651 136.318 51.3394 136.218 51.3394 136.066C51.3394 135.915 51.4651 135.764 51.6159 135.764C51.7668 135.739 51.9176 135.865 51.9176 136.016Z" fill="#2C2C2C"/>
<path d="M50.6857 135.159C50.9622 134.983 51.3394 134.958 51.6411 135.109" stroke="#2C2C2C" stroke-miterlimit="10" stroke-linecap="round" stroke-linejoin="round"/>
<path d="M53.7532 135.033C54.0297 134.857 54.4069 134.832 54.7086 134.983" stroke="#2C2C2C" stroke-miterlimit="10" stroke-linecap="round" stroke-linejoin="round"/>
<path d="M53.6777 133.95C53.9292 133.899 54.2057 133.899 54.4572 133.95" stroke="#2C2C2C" stroke-width="3" stroke-miterlimit="10" stroke-linecap="round" stroke-linejoin="round"/>
<path d="M50.6857 134.227C50.9371 134.176 51.2137 134.176 51.4651 134.227" stroke="#2C2C2C" stroke-width="3" stroke-miterlimit="10" stroke-linecap="round" stroke-linejoin="round"/>
<path d="M48.5991 136.596C49.6551 136.747 49.9065 134.731 51.7419 133.849C52.7225 133.37 53.5522 131.934 53.7533 130.825C53.7533 130.825 51.3396 129.489 49.3785 130.875C47.4173 132.261 47.2916 134.781 47.2916 134.781L48.5991 136.596Z" fill="#2C2C2C"/>
<path d="M48.8754 136.218C48.5486 136.041 48.1463 135.966 47.8194 136.117C47.4674 136.268 47.2663 136.696 47.2914 137.074C47.3166 137.478 47.568 137.83 47.92 137.982C48.272 138.158 48.6743 138.133 49.0011 137.931L48.8754 136.218Z" fill="#F6C2A1"/>
<path d="M48.6742 137.1C48.6239 136.923 48.4982 136.772 48.3474 136.696C48.1462 136.596 47.9199 136.596 47.7439 136.696C47.6936 136.722 47.6936 136.772 47.7188 136.822C47.7439 136.873 47.7942 136.873 47.8445 136.848C47.9954 136.772 48.1462 136.797 48.2719 136.873C48.3222 136.898 48.3976 136.948 48.4228 136.999C48.4479 137.049 48.4982 137.1 48.4982 137.15C48.5234 137.276 48.6994 137.226 48.6742 137.1Z" fill="#ED796A"/>
<path d="M52.8982 140.577C52.1691 140.653 51.44 140.426 50.912 139.947C50.8114 139.872 50.6857 139.998 50.7862 140.073C51.3645 140.602 52.144 140.854 52.9234 140.779C53.024 140.754 53.024 140.552 52.8982 140.577Z" fill="#ED796A"/>
<path d="M52.848 135.764C52.8732 135.94 52.9235 136.142 52.9486 136.318C52.9738 136.419 52.9738 136.52 52.9989 136.621C53.024 136.696 53.024 136.772 53.0995 136.822C53.1498 136.848 53.2252 136.873 53.2755 136.873C53.3006 136.873 53.4263 136.848 53.4263 136.898C53.4263 136.923 53.376 136.999 53.3509 136.999C53.3258 137.024 53.3006 137.074 53.2755 137.1C53.2252 137.175 53.1498 137.251 53.0995 137.326C53.024 137.427 53.1498 137.553 53.2252 137.452C53.3006 137.377 53.3509 137.276 53.4263 137.2C53.4766 137.125 53.552 137.049 53.5772 136.974C53.6526 136.822 53.5269 136.696 53.376 136.671C53.3258 136.671 53.2252 136.696 53.1749 136.671C53.1498 136.646 53.1498 136.545 53.1498 136.52C53.1498 136.47 53.1246 136.419 53.1246 136.369C53.0743 136.142 53.0492 135.94 52.9989 135.714C52.9989 135.588 52.8229 135.638 52.848 135.764Z" fill="#2C2C2C"/>
<path d="M51.7166 137.704C51.7418 137.654 51.792 137.578 51.8675 137.578C51.9429 137.553 52.0435 137.604 52.0938 137.654C52.3703 137.805 52.6218 137.956 52.8983 138.108L52.9738 138.284C52.848 138.486 52.6218 138.612 52.3955 138.662C52.1692 138.687 51.9178 138.612 51.7669 138.41C51.6412 138.183 51.5909 137.931 51.7166 137.704Z" fill="#ED796A"/>
<path d="M53.9291 156.529C55.5131 156.882 56.9211 157.764 57.9519 158.998C58.0274 159.099 58.1531 158.948 58.0776 158.872C57.0216 157.612 55.5634 156.705 53.9542 156.352C53.8536 156.327 53.8034 156.504 53.9291 156.529Z" fill="#26244A"/>
<path d="M37.4102 190.272C37.4102 190.272 36.9577 187.323 40.4274 186.114L39.6982 183.594L47.7188 181.779L49.4537 187.903L37.4102 190.272Z" fill="#6E82BA"/>
<path d="M38.5919 186.718C39.2456 186.844 39.8742 187.046 40.4776 187.273C40.6034 187.323 40.6285 187.122 40.5279 187.096C39.9245 186.87 39.2959 186.668 38.6422 186.542C38.5416 186.517 38.4914 186.693 38.5919 186.718Z" fill="#2C2C2C"/>
<path d="M39.3463 186.315C39.9245 186.517 40.4777 186.718 41.056 186.92C41.1817 186.97 41.232 186.769 41.1063 186.744C40.528 186.542 39.9748 186.34 39.3965 186.139C39.2708 186.088 39.2205 186.265 39.3463 186.315Z" fill="#2C2C2C"/>
<path d="M23.5817 184.828C23.5817 184.828 24.8388 182.132 28.384 183.039L29.1885 180.519L36.8571 183.468L34.9462 189.541L23.5817 184.828Z" fill="#6E82BA"/>
<path d="M26.5234 182.535C26.976 182.989 27.4034 183.493 27.7805 184.022C27.856 184.123 28.0068 184.022 27.9314 183.921C27.5542 183.392 27.1268 182.863 26.6491 182.409C26.5737 182.308 26.448 182.46 26.5234 182.535Z" fill="#2C2C2C"/>
<path d="M27.3531 182.586C27.7051 183.064 28.0823 183.568 28.4343 184.047C28.5097 184.148 28.6605 184.047 28.5851 183.946C28.2331 183.468 27.856 182.964 27.504 182.485C27.4537 182.384 27.2777 182.485 27.3531 182.586Z" fill="#2C2C2C"/>
<path d="M41.1816 169.935L37.1085 184.702C36.9576 184.702 28.5348 181.502 28.5348 181.502L34.4182 163.056L43.4445 161.266L41.1816 169.935Z" fill="#2C2C2C"/>
<path d="M48.3222 156.453L48.4982 159.427C48.4982 159.427 37.9884 160.032 36.153 160.788C34.3176 161.544 33.7644 162.577 33.9153 165.324C34.0662 168.07 39.3964 184.476 39.3964 184.476L49.0262 182.989L44.2742 168.726H55.4124C57.3233 168.726 59.1587 167.768 60.1142 166.105C60.6422 165.198 60.969 164.038 60.7176 162.602C60.3656 160.485 58.153 156.655 58.153 156.655L48.3222 156.453Z" fill="#2C2C2C"/>
<path d="M49.0765 183.064C46.2605 183.493 43.4445 183.946 40.6285 184.375C40.2263 184.425 39.8491 184.501 39.4468 184.551C39.4971 184.576 39.5223 184.602 39.5725 184.627C39.296 183.745 39.0445 182.863 38.768 181.981C38.1897 180.066 37.6114 178.15 37.0331 176.21C36.4548 174.32 35.9017 172.43 35.3234 170.54C35.0971 169.759 34.8708 168.978 34.6194 168.222C34.368 167.44 34.1668 166.659 34.0411 165.853C33.8651 164.794 33.7143 163.484 34.2423 162.476C34.3428 162.274 34.4937 162.073 34.6948 161.922C34.7954 161.846 34.6445 161.72 34.5691 161.796C33.7645 162.426 33.6891 163.635 33.7394 164.593C33.7897 165.651 33.9908 166.71 34.2925 167.718C34.4937 168.448 34.72 169.179 34.9463 169.91C35.4743 171.699 36.0274 173.488 36.5554 175.278C37.1588 177.294 37.7623 179.31 38.3657 181.3C38.592 182.031 38.8183 182.787 39.0445 183.518C39.1451 183.871 39.2205 184.274 39.3714 184.602C39.3714 184.627 39.3714 184.627 39.3965 184.652C39.4217 184.702 39.472 184.728 39.5223 184.728C42.3383 184.299 45.1543 183.846 47.9703 183.417C48.3725 183.367 48.7497 183.291 49.152 183.241C49.2525 183.216 49.2023 183.039 49.0765 183.064Z" fill="#6E82BA"/>
<path d="M54.7839 159.175C50.8867 159.2 46.9896 159.452 43.0925 159.88C42.9667 159.905 42.9667 160.082 43.0925 160.082C46.9645 159.653 50.8616 159.427 54.7839 159.376C54.9096 159.351 54.9096 159.175 54.7839 159.175Z" fill="#6E82BA"/>
<path d="M59.7874 155.949C59.7371 154.588 59.008 147.457 58.0274 144.937C57.0469 142.442 52.8731 142.114 52.7474 142.114C51.1634 143.022 49.1771 143.324 48.7246 142.366C48.7246 142.366 47.4926 142.593 46.8891 142.82C46.2103 143.072 44.4503 143.702 43.9474 145.441C43.4446 147.205 42.5143 152.774 42.5143 152.774L38.0389 153.48L36.6309 157.839C36.6309 157.839 43.7714 158.217 44.576 157.814C45.3806 157.411 46.4114 157.083 46.8891 155.798C46.9143 155.748 46.9143 155.722 46.9394 155.672L47.1909 156.428C47.2663 156.856 47.6183 157.159 48.0457 157.159H53.3257C54.1303 157.94 55.5886 159.074 57.1474 159.2C59.5863 159.402 59.8377 157.285 59.7874 155.949Z" fill="#DBE0DD"/>
<path d="M38.4662 153.58L35.9771 153.681C35.9771 153.681 34.5439 153.278 33.7394 153.328C32.9348 153.379 32.4571 153.656 32.0799 153.908C31.6777 154.135 30.8982 154.916 31.3508 155.294C31.6777 155.546 31.9291 155.244 32.3817 154.891C32.8342 154.538 33.7142 154.412 33.7142 154.412C33.7142 154.412 32.7085 155.798 33.0354 156.63C33.0354 156.63 33.2365 157.134 33.8399 156.73C33.8399 156.73 34.1668 157.512 34.8457 157.008C34.8457 157.008 35.0468 156.126 35.3485 155.647L35.5497 155.42C35.5497 155.42 35.3737 156.63 35.5748 156.882C35.7759 157.134 36.0525 157.31 36.2788 157.058C36.5051 156.831 36.5554 156.378 36.7817 156C36.7817 156 37.2594 156.1 37.4605 156.201C38.3908 156.655 38.5668 156.201 38.5668 156.201C38.5668 156.201 38.5668 155.748 38.4914 155.017C38.4914 154.135 38.4662 153.58 38.4662 153.58Z" fill="#F6C2A1"/>
<path d="M33.4125 155.118C33.5382 154.614 33.9153 154.21 34.4182 154.084C34.5439 154.059 34.4936 153.858 34.3679 153.908C33.8147 154.059 33.3622 154.513 33.2365 155.067C33.2113 155.168 33.3873 155.218 33.4125 155.118Z" fill="#ED796A"/>
<path d="M34.0662 156.705C34.0914 155.823 34.4937 154.966 35.1474 154.361C35.2479 154.286 35.0971 154.135 35.0217 154.235C34.3177 154.865 33.9154 155.773 33.8902 156.705C33.8651 156.831 34.0662 156.831 34.0662 156.705Z" fill="#ED796A"/>
<path d="M37.0834 154.387C36.5554 154.412 36.0776 154.639 35.7508 155.042C35.4491 155.445 35.2982 156 35.4491 156.504C35.4994 156.705 35.6251 156.907 35.8262 157.008C36.0022 157.083 36.2285 157.083 36.3794 156.957C36.5554 156.806 36.5302 156.554 36.6056 156.352C36.7062 156.075 37.0582 156.1 37.2845 156.201C37.5611 156.302 37.8125 156.504 38.1394 156.478C38.3656 156.453 38.5668 156.352 38.6422 156.126C38.6925 156 38.4914 155.949 38.4662 156.075C38.3908 156.277 38.1394 156.327 37.9382 156.277C37.7119 156.226 37.5108 156.1 37.3096 156C36.9828 155.874 36.5805 155.924 36.4296 156.277C36.3542 156.453 36.3794 156.68 36.2285 156.806C36.0525 156.982 35.7759 156.806 35.6754 156.63C35.4491 156.252 35.5496 155.697 35.7508 155.319C36.0274 154.866 36.5051 154.563 37.0582 154.563C37.2091 154.588 37.2091 154.387 37.0834 154.387Z" fill="#ED796A"/>
<path d="M54.1805 152.446C53.8787 150.43 54.0296 148.364 53.7279 146.348C53.7027 146.222 53.5267 146.272 53.5519 146.398C53.8536 148.414 53.7027 150.481 54.0045 152.497C54.0296 152.623 54.2056 152.572 54.1805 152.446Z" fill="#2C2C2C"/>
<path d="M54.0799 152.547L51.7919 151.564C51.7919 151.564 50.6605 150.582 49.9062 150.304C49.1519 150.002 48.5988 150.052 48.1462 150.103C47.6936 150.153 46.6628 150.506 46.9142 151.035C47.0902 151.413 47.4673 151.237 48.0205 151.111C48.5736 150.985 49.4285 151.262 49.4285 151.262C49.4285 151.262 47.9199 152.094 47.8696 152.976C47.8696 152.976 47.8193 153.505 48.5736 153.404C48.5736 153.404 48.5485 154.261 49.353 154.084C49.353 154.084 49.9313 153.379 50.3839 153.051L50.6605 152.925C50.6605 152.925 49.9816 153.933 50.057 154.261C50.1325 154.588 50.3085 154.84 50.6102 154.714C50.9119 154.588 50.937 154.034 51.3142 153.807C51.3142 153.807 51.641 154.261 51.7919 154.437C51.9428 154.614 52.8479 155.37 52.8479 155.37C52.8479 155.37 53.2502 154.488 53.5016 153.807C53.8536 153.076 54.0799 152.547 54.0799 152.547Z" fill="#F6C2A1"/>
<path d="M48.8501 151.791C49.177 151.388 49.705 151.186 50.2079 151.262C50.3336 151.287 50.3839 151.111 50.2581 151.086C49.6799 150.985 49.1016 151.212 48.7244 151.665C48.649 151.766 48.7747 151.892 48.8501 151.791Z" fill="#ED796A"/>
<path d="M48.7748 153.53C49.1771 152.749 49.9062 152.119 50.7359 151.867C50.8616 151.842 50.8114 151.64 50.6856 151.69C49.7805 151.968 49.0262 152.598 48.5988 153.429C48.5485 153.53 48.7245 153.631 48.7748 153.53Z" fill="#ED796A"/>
<path d="M57.4994 153.757C56.4434 153.127 55.2868 152.724 54.1051 152.446C54.0548 152.421 54.0046 152.472 53.9794 152.522C53.4514 153.807 52.9234 155.092 52.3954 156.378C52.3451 156.478 52.5211 156.529 52.5714 156.428C53.0994 155.143 53.6274 153.858 54.1554 152.572C54.1051 152.598 54.08 152.623 54.0297 152.648C55.2114 152.925 56.3428 153.303 57.3737 153.933C57.5246 153.984 57.6 153.832 57.4994 153.757Z" fill="#2C2C2C"/>
<path d="M47.4925 156.705C45.9085 153.429 45.2548 149.75 45.5817 146.146C45.5817 146.02 45.4057 146.02 45.3805 146.146C45.0537 149.8 45.7325 153.505 47.3165 156.806C47.392 156.907 47.568 156.806 47.4925 156.705Z" fill="#2C2C2C"/>
<path d="M47.8948 141.384L47.9954 142.518C47.9954 142.644 48.0708 142.77 48.1714 142.845L49.9565 144.181C50.1074 144.282 50.2834 144.307 50.4343 144.231L53.2251 142.845C53.376 142.77 53.4765 142.593 53.4765 142.442V141.459C53.4765 141.207 53.2754 141.006 53.024 141.006L48.3474 140.905C48.0708 140.88 47.8697 141.106 47.8948 141.384Z" fill="#DBE0DD"/>
<path d="M40.3771 161.241H31.3256C30.9485 161.241 30.6216 161.014 30.4708 160.687L26.8251 152.472C26.5485 151.867 27.0011 151.161 27.6799 151.161H36.7062C37.0833 151.161 37.4102 151.388 37.5611 151.716L41.2068 159.931C41.4833 160.561 41.0559 161.241 40.3771 161.241Z" fill="#E7A5DD"/>
<path d="M31.0994 161.241H41.3828L46.8639 159.376C47.0399 159.301 47.0148 158.948 46.8137 158.948H36.4297L31.0994 161.241Z" fill="#E7A5DD"/>
<path d="M37.6113 151.993C38.8182 154.941 39.9999 157.89 41.2822 160.813C41.3325 160.914 41.4833 160.838 41.4331 160.712C40.1508 157.814 38.9942 154.866 37.7873 151.942C37.7622 151.816 37.5862 151.867 37.6113 151.993Z" fill="#26244A"/>
<path d="M33.7394 155.118C33.2114 155.067 32.7588 155.395 32.6834 155.949C32.6582 156.075 32.6834 156.176 32.7085 156.302C32.8091 156.856 33.3622 157.31 33.8651 157.234C34.368 157.184 34.7451 156.63 34.6445 156.075C34.544 155.697 34.2674 155.193 33.7394 155.118Z" fill="#DBE0DD"/>
<path d="M148.466 190.272C148.466 190.272 149.371 187.449 146.153 185.685L147.259 183.291L139.616 180.217L136.926 186.013L148.466 190.272Z" fill="#6E82BA"/>
<path d="M147.863 186.391C147.209 186.416 146.53 186.492 145.902 186.643C145.776 186.668 145.826 186.844 145.952 186.819C146.581 186.693 147.234 186.618 147.863 186.567C147.963 186.592 147.963 186.391 147.863 186.391Z" fill="#2C2C2C"/>
<path d="M147.159 185.887C146.555 185.988 145.977 186.114 145.374 186.214C145.248 186.24 145.298 186.416 145.424 186.391C146.027 186.29 146.606 186.164 147.209 186.063C147.335 186.038 147.284 185.862 147.159 185.887Z" fill="#2C2C2C"/>
<path d="M163.451 189.919C163.451 189.919 163.275 186.945 159.63 186.517L159.806 183.896L151.584 183.846L151.182 190.196L163.451 189.919Z" fill="#6E82BA"/>
<path d="M161.465 186.542C160.862 186.819 160.283 187.122 159.73 187.474C159.63 187.55 159.73 187.701 159.831 187.626C160.384 187.273 160.962 186.945 161.566 186.693C161.666 186.668 161.566 186.492 161.465 186.542Z" fill="#2C2C2C"/>
<path d="M160.66 186.29C160.158 186.618 159.63 186.92 159.127 187.248C159.026 187.323 159.127 187.474 159.227 187.399C159.73 187.071 160.258 186.769 160.761 186.441C160.862 186.391 160.761 186.24 160.66 186.29Z" fill="#2C2C2C"/>
<path d="M162.32 144.66L162.169 150.078C162.32 155.244 162.597 158.822 162.194 163.66C161.465 172.909 160.962 179.284 160.107 185.71L151.257 185.484C151.257 185.484 152.816 171.145 153.545 167.743L154.425 145.693L158.85 145.088L162.32 144.66Z" fill="#6E82BA"/>
<path d="M148.466 147.255L145.449 165.248L138.837 182.082L147.687 185.71C147.687 185.71 153.671 170.338 154.224 167.793C154.777 165.298 156.537 155.647 156.562 155.521L156.688 149.347L148.466 147.255Z" fill="#6E82BA"/>
<path d="M157.97 151.111C157.719 154.236 157.065 157.335 156.311 160.384C155.481 163.686 154.501 166.936 153.369 170.137C152.866 171.624 152.313 173.085 151.735 174.522C151.458 175.202 151.182 175.882 150.93 176.563C150.327 178.176 149.749 179.814 149.145 181.426C148.617 182.838 148.114 184.249 147.586 185.66C147.637 185.635 147.662 185.61 147.712 185.584C145.122 184.526 142.533 183.468 139.943 182.384C139.591 182.233 139.214 182.082 138.862 181.93C138.761 181.88 138.711 182.056 138.811 182.107C141.401 183.165 143.991 184.224 146.581 185.307C146.933 185.458 147.31 185.61 147.662 185.761C147.712 185.786 147.762 185.736 147.787 185.685C148.215 184.501 148.667 183.291 149.095 182.107C149.723 180.368 150.377 178.629 151.006 176.916C151.71 175 152.514 173.11 153.193 171.17C154.325 167.995 155.33 164.744 156.21 161.493C157.015 158.419 157.719 155.294 158.071 152.144C158.121 151.791 158.146 151.438 158.171 151.111C158.171 150.985 157.97 150.985 157.97 151.111Z" fill="#2C2C2C"/>
<path d="M157.543 127.675C157.543 127.776 157.769 131.253 157.769 131.253L153.419 131.53L153.093 126.289L157.543 127.675Z" fill="#AB5A44"/>
<path d="M157.769 128.859C157.769 128.859 160.384 128.28 160.208 125.356C160.158 124.348 160.057 123.29 159.755 121.425C159.403 119.434 157.844 118.704 155.707 118.88L155.506 118.905C153.218 119.233 151.86 120.568 152.238 122.71L152.615 124.777C152.615 124.752 152.715 129.288 157.769 128.859Z" fill="#AB5A44"/>
<path d="M158.775 123.819C158.8 123.97 158.674 124.147 158.498 124.147C158.322 124.172 158.171 124.046 158.146 123.895C158.121 123.744 158.247 123.567 158.423 123.567C158.599 123.542 158.75 123.668 158.775 123.819Z" fill="#2C2C2C"/>
<path d="M155.732 123.996C155.758 124.147 155.632 124.298 155.456 124.323C155.28 124.348 155.129 124.222 155.104 124.071C155.079 123.92 155.204 123.744 155.38 123.744C155.556 123.718 155.707 123.844 155.732 123.996Z" fill="#2C2C2C"/>
<path d="M155.079 123.29C155.33 123.088 155.707 123.038 156.009 123.189C156.059 123.214 156.11 123.214 156.135 123.164C156.16 123.114 156.16 123.063 156.11 123.038C155.758 122.887 155.305 122.912 155.003 123.139C154.953 123.164 154.953 123.214 154.978 123.265C154.978 123.29 155.028 123.315 155.079 123.29Z" fill="#2C2C2C"/>
<path d="M158.322 122.962C158.574 122.761 158.951 122.71 159.252 122.862C159.303 122.887 159.353 122.887 159.378 122.836C159.403 122.786 159.403 122.736 159.353 122.71C159.001 122.559 158.548 122.584 158.247 122.811C158.196 122.836 158.196 122.887 158.222 122.937C158.222 122.962 158.272 122.988 158.322 122.962Z" fill="#2C2C2C"/>
<path d="M158.373 122.206C158.448 122.181 158.549 122.181 158.624 122.156C158.599 122.156 158.574 122.156 158.549 122.156C158.75 122.131 158.951 122.131 159.127 122.156C159.202 122.156 159.303 122.106 159.353 122.055C159.403 122.005 159.454 121.904 159.454 121.828C159.454 121.753 159.429 121.652 159.353 121.602C159.328 121.576 159.303 121.576 159.278 121.551C159.227 121.526 159.177 121.501 159.127 121.501C158.825 121.476 158.498 121.501 158.197 121.576C158.046 121.627 157.92 121.803 157.97 121.954C158.046 122.156 158.197 122.257 158.373 122.206Z" fill="#2C2C2C"/>
<path d="M155.054 122.559C155.129 122.534 155.23 122.534 155.305 122.509C155.28 122.509 155.255 122.509 155.23 122.509C155.431 122.484 155.632 122.484 155.808 122.509C155.883 122.509 155.984 122.458 156.034 122.408C156.085 122.358 156.135 122.257 156.135 122.181C156.135 122.106 156.11 122.005 156.034 121.954C156.009 121.929 155.984 121.929 155.959 121.904C155.909 121.879 155.858 121.854 155.808 121.854C155.506 121.828 155.179 121.854 154.878 121.929C154.727 121.98 154.601 122.156 154.651 122.307C154.727 122.484 154.878 122.584 155.054 122.559Z" fill="#2C2C2C"/>
<path d="M153.168 124.449C152.816 124.273 152.389 124.222 152.037 124.424C151.685 124.626 151.483 125.054 151.534 125.482C151.584 125.886 151.886 126.264 152.263 126.415C152.64 126.566 153.067 126.516 153.419 126.314" fill="#AB5A44"/>
<path d="M153.017 125.407C152.967 125.23 152.816 125.079 152.64 125.004C152.439 124.903 152.187 124.903 151.986 125.029C151.886 125.079 151.986 125.256 152.087 125.18C152.238 125.104 152.389 125.079 152.539 125.155C152.615 125.18 152.665 125.23 152.715 125.281C152.741 125.306 152.766 125.331 152.766 125.356C152.791 125.382 152.791 125.407 152.816 125.432C152.891 125.583 153.067 125.533 153.017 125.407Z" fill="#822C29"/>
<path d="M157.593 128.758C156.839 128.884 156.059 128.683 155.456 128.204C155.355 128.128 155.23 128.254 155.33 128.33C155.984 128.859 156.839 129.061 157.643 128.91C157.744 128.91 157.694 128.733 157.593 128.758Z" fill="#822C29"/>
<path d="M157.367 123.693C157.417 123.895 157.467 124.096 157.518 124.298C157.543 124.399 157.568 124.5 157.593 124.6C157.618 124.676 157.618 124.752 157.694 124.802C157.744 124.852 157.819 124.852 157.895 124.852C157.92 124.852 158.046 124.827 158.071 124.852C158.071 124.878 158.021 124.953 157.995 124.978C157.97 125.029 157.945 125.054 157.92 125.104C157.87 125.18 157.794 125.281 157.744 125.356C157.669 125.457 157.845 125.558 157.895 125.457C157.945 125.356 158.021 125.281 158.071 125.18C158.121 125.104 158.197 125.029 158.222 124.928C158.272 124.752 158.121 124.651 157.97 124.651C157.92 124.651 157.794 124.701 157.769 124.626C157.744 124.525 157.719 124.424 157.694 124.323C157.643 124.096 157.593 123.87 157.518 123.668C157.518 123.542 157.342 123.592 157.367 123.693Z" fill="#2C2C2C"/>
<path d="M151.483 123.769C151.408 123.643 151.282 123.466 151.182 123.315C150.779 122.736 150.503 122.055 150.427 121.299C150.377 120.644 150.654 119.964 151.156 119.535C151.508 119.233 152.715 119.182 152.715 119.182C152.715 119.182 153.369 117.897 153.872 117.469C154.425 116.99 155.054 116.562 155.783 116.436C156.512 116.284 157.317 116.436 157.845 116.914C157.995 117.04 158.121 117.192 158.272 117.267C158.574 117.418 158.951 117.343 159.278 117.318C160.007 117.242 160.811 117.418 161.314 117.973C161.817 118.527 161.893 119.46 161.365 119.964C161.138 120.165 160.811 120.342 160.786 120.644C160.761 120.846 160.912 121.022 160.987 121.198C161.138 121.551 161.088 121.954 160.887 122.257C160.686 122.559 160.308 122.71 159.956 122.71L159.831 122.055C159.831 122.055 159.705 120.342 159.202 120.669C158.121 121.4 157.14 120.896 156.537 120.543C156.21 120.342 155.833 120.342 155.456 120.367C154.526 120.417 153.922 121.098 153.897 122.03C153.872 122.988 154.174 124.273 154.098 124.802C154.073 124.928 154.098 125.331 153.646 125.356C153.646 125.356 153.495 125.482 153.294 125.054C153.092 124.626 152.866 124.197 151.961 124.525L151.483 123.769Z" fill="#2C2C2C"/>
<path d="M157.442 126.087C157.065 126.163 156.713 125.936 156.613 125.583C156.587 125.457 156.411 125.508 156.437 125.634C156.487 125.86 156.613 126.037 156.814 126.163C157.015 126.289 157.266 126.339 157.493 126.289C157.618 126.264 157.568 126.062 157.442 126.087Z" fill="#822C29"/>
<path d="M166.821 139.317C166.821 139.317 167.902 141.686 168.002 142.467C168.078 143.248 167.902 145.113 165.387 144.66L162.848 142.82L161.767 140.325L166.821 139.317Z" fill="#AB5A44"/>
<path d="M142.507 137.578L147.963 140.426L151.358 135.94L148.617 131.102C148.617 131.102 146.807 131.026 145.298 133.496C144.544 134.756 142.507 137.578 142.507 137.578Z" fill="#DBE0DD"/>
<path d="M158.699 130.8C158.699 130.8 161.691 130.27 163.401 132.362C164.13 133.244 167.273 139.191 167.273 139.191L161.138 140.829L158.699 130.8Z" fill="#DBE0DD"/>
<path d="M149.246 145.819L148.693 137.604L160.082 133.849C160.535 135.26 160.384 136.772 160.837 138.183C161.038 138.813 161.289 140.199 161.666 141.862L162.999 147.784C153.973 153.429 148.29 148.162 148.24 147.734C148.139 146.877 149.246 145.819 149.246 145.819Z" fill="#DBE0DD"/>
<path d="M153.344 130.422C153.872 131.001 155.858 131.48 157.643 130.396C157.643 130.396 159.68 130.699 161.038 131.102L160.334 138.435C160.032 140.754 159.78 142.518 159.63 143.475L149.522 143.727L148.617 131.102L153.344 130.422Z" fill="#DBE0DD"/>
<path d="M148.165 131.707C149.019 132.362 149.573 133.395 149.623 134.504C149.623 134.63 149.824 134.63 149.824 134.504C149.774 133.37 149.221 132.286 148.315 131.581C148.215 131.505 148.064 131.631 148.165 131.707Z" fill="#2C2C2C"/>
<path d="M161.691 141.888C161.339 139.972 160.987 138.032 160.635 136.117C160.585 135.84 160.535 135.562 160.484 135.285C160.459 135.159 160.283 135.21 160.308 135.336C160.66 137.251 161.012 139.191 161.364 141.106C161.415 141.384 161.465 141.661 161.515 141.938C161.54 142.064 161.716 142.014 161.691 141.888Z" fill="#26244A"/>
<path d="M157.744 146.802C155.582 147.154 153.344 146.877 151.358 145.97C151.257 145.92 151.156 146.071 151.257 146.121C153.294 147.054 155.582 147.331 157.794 146.978C157.92 146.978 157.87 146.776 157.744 146.802Z" fill="#26244A"/>
<path d="M169.662 132.211L178.688 131.984C179.065 131.984 179.392 131.757 179.518 131.404L182.962 123.088C183.214 122.458 182.761 121.778 182.082 121.803L173.056 122.03C172.679 122.03 172.352 122.257 172.226 122.61L168.782 130.926C168.505 131.556 168.983 132.236 169.662 132.211Z" fill="#2C2C2C"/>
<path d="M178.914 131.984L168.656 132.236L163.125 130.497C162.949 130.422 162.974 130.069 163.175 130.069L173.534 129.817L178.914 131.984Z" fill="#2C2C2C"/>
<path d="M176.149 125.936C176.651 125.86 177.154 126.188 177.23 126.742C177.255 126.843 177.255 126.969 177.23 127.095C177.129 127.65 176.601 128.103 176.098 128.078C175.595 128.028 175.193 127.498 175.294 126.944C175.344 126.516 175.595 126.012 176.149 125.936Z" fill="#DBE0DD"/>
<path d="M173.232 131.707C173.508 131.379 173.609 130.497 173.634 130.119C173.659 129.741 173.534 129.313 173.156 129.187C172.83 129.086 172.478 129.338 172.327 129.64C172.176 129.943 172.151 130.296 172.126 130.648C172.1 131.001 172.025 131.354 171.799 131.606C171.346 132.11 170.491 131.934 169.888 132.261C169.435 132.488 169.159 132.992 169.058 133.496C168.958 134 169.033 134.706 168.782 135.21L172.276 136.394C173.006 134.731 173.182 134.832 173.559 134.504C173.936 134.202 174.715 133.874 175.118 133.597C176.073 132.942 176.551 131.682 176.274 130.573C176.199 130.296 176.073 129.993 175.796 129.918C175.52 129.817 175.168 130.018 175.118 130.321C175.067 130.724 175.042 130.9 175.042 131.203C175.042 131.505 174.967 131.959 174.766 132.034C174.766 132.034 175.243 129.867 174.715 129.514C174.187 129.162 174.062 129.439 173.86 129.741C173.659 130.044 173.735 131.026 173.534 131.455C173.358 131.883 173.232 131.707 173.232 131.707Z" fill="#AB5A44"/>
<path d="M169.184 134.504L172.452 135.991L169.209 144.408C168.958 145.038 168.53 145.567 167.952 145.92C166.544 146.751 164.759 146.323 163.879 144.937L162.848 142.795L165.312 141.308L169.184 134.504Z" fill="#AB5A44"/>
<path d="M168.907 134.932C167.675 137.15 166.318 139.317 165.161 141.585C165.111 141.661 164.834 142.114 165.035 142.165C165.161 142.19 165.211 142.014 165.086 141.988C165.136 142.014 165.111 142.089 165.161 142.064C165.161 142.064 165.161 142.039 165.186 142.014C165.211 141.988 165.236 141.913 165.236 141.888C165.312 141.736 165.387 141.61 165.463 141.459C165.689 141.031 165.94 140.602 166.167 140.174C166.82 139.04 167.474 137.906 168.128 136.747C168.455 136.167 168.782 135.588 169.108 135.008C169.108 134.907 168.958 134.806 168.907 134.932Z" fill="#822C29"/>
<path d="M150.327 145.365C150.729 145.189 151.584 145.34 151.961 145.416C152.338 145.491 152.715 145.743 152.715 146.121C152.715 146.474 152.389 146.726 152.062 146.802C151.735 146.877 151.383 146.776 151.031 146.701C150.704 146.625 150.327 146.6 150.025 146.751C149.422 147.054 149.346 147.91 148.869 148.414C148.517 148.792 147.963 148.918 147.461 148.868C146.958 148.818 145.525 148.188 145.047 147.986L145.701 143.904C146.782 144.357 147.335 144.508 147.737 144.206C148.139 143.929 148.667 143.274 149.045 142.946C149.925 142.215 151.282 142.089 152.263 142.669C152.514 142.82 152.766 143.022 152.766 143.324C152.766 143.626 152.489 143.904 152.187 143.853C151.785 143.778 151.609 143.752 151.333 143.677C151.056 143.601 150.603 143.551 150.453 143.702C150.453 143.702 152.665 143.853 152.866 144.458C153.042 145.063 152.766 145.088 152.414 145.214C152.062 145.34 151.157 144.987 150.679 145.063C150.201 145.189 150.327 145.365 150.327 145.365Z" fill="#AB5A44"/>
<path d="M140.119 141.686L142.784 137.704L147.058 139.947L144.242 143.626L140.119 141.686Z" fill="#AB5A44"/>
<path d="M146.656 144.307L140.597 141.106C140.597 141.106 139.189 142.442 139.767 143.979C140.496 146.02 145.122 148.011 145.122 148.011L146.656 144.307Z" fill="#AB5A44"/>
<path d="M145.097 143.45C144.217 142.87 143.312 142.291 142.432 141.711C142.331 141.636 142.231 141.812 142.331 141.862C143.211 142.442 144.117 143.022 144.997 143.601C145.097 143.677 145.198 143.526 145.097 143.45Z" fill="#822C29"/>
<path d="M160.283 185.61C157.618 185.61 154.953 185.635 152.288 185.635C151.911 185.635 151.534 185.635 151.157 185.635C151.031 185.635 151.031 185.836 151.157 185.836C153.822 185.836 156.487 185.811 159.152 185.811C159.529 185.811 159.906 185.811 160.283 185.811C160.384 185.786 160.384 185.61 160.283 185.61Z" fill="#2C2C2C"/>
<path d="M152.917 100.03H170.994C171.472 100.03 171.849 99.6524 171.849 99.1736V87.758C171.849 87.2792 171.472 86.9012 170.994 86.9012H152.917C152.439 86.9012 152.062 87.2792 152.062 87.758V99.1736C152.062 99.6524 152.439 100.03 152.917 100.03Z" fill="#DBE0DD"/>
<path d="M159.278 89.4213C157.568 89.4213 155.833 89.4213 154.124 89.4213C153.922 89.4213 153.922 89.7237 154.124 89.7237C155.833 89.7237 157.568 89.7237 159.278 89.7237C159.479 89.7237 159.479 89.4213 159.278 89.4213Z" fill="#6E82BA"/>
<path d="M169.31 92.8233C167.826 91.8909 165.84 92.0673 164.558 93.2517C164.206 93.5793 163.879 93.9573 163.502 94.2597C163.049 94.6377 162.521 94.8141 161.943 94.8393C160.812 94.9149 159.756 94.4865 158.649 94.3353C157.442 94.1841 156.185 94.3605 155.079 94.8393C154.903 94.9149 154.978 95.2173 155.154 95.1417C156.16 94.7385 157.241 94.5369 158.322 94.6125C159.378 94.6881 160.409 95.0913 161.465 95.1417C162.421 95.1921 163.276 94.9149 163.954 94.2597C164.306 93.9321 164.608 93.5793 164.96 93.2769C165.312 92.9745 165.74 92.7729 166.192 92.6469C167.198 92.3697 168.279 92.5209 169.134 93.0753C169.335 93.2265 169.486 92.9493 169.31 92.8233Z" fill="#6E82BA"/>
<path d="M169.31 95.192H169.662C169.989 95.192 170.24 94.9148 170.24 94.5872L170.139 90.782C170.139 90.4544 169.863 90.2024 169.536 90.2024H169.184C168.857 90.2024 168.606 90.4796 168.606 90.8072L168.706 94.6124C168.706 94.94 168.983 95.192 169.31 95.192Z" fill="#E7A5DD"/>
<path d="M166.569 94.6124H166.921C167.248 94.6124 167.5 94.3352 167.5 94.0076L167.399 90.2024C167.399 89.8748 167.122 89.6228 166.796 89.6228H166.444C166.117 89.6228 165.865 89.9 165.865 90.2276L165.966 94.0328C165.966 94.3604 166.242 94.6124 166.569 94.6124Z" fill="#F9CA51"/>
<path d="M154.802 96.0992H155.154C155.481 96.0992 155.733 95.822 155.733 95.4944L155.632 91.6892C155.632 91.3616 155.356 91.1096 155.029 91.1096H154.677C154.35 91.1096 154.098 91.3868 154.098 91.7144L154.199 95.5196C154.199 95.8472 154.476 96.0992 154.802 96.0992Z" fill="#6E82BA"/>
<path d="M161.893 97.6616H162.245C162.571 97.6616 162.823 97.3844 162.823 97.0568L162.722 93.2516C162.722 92.924 162.446 92.672 162.119 92.672H161.767C161.44 92.672 161.189 92.9492 161.189 93.2768L161.289 97.082C161.289 97.4348 161.566 97.6868 161.893 97.6616Z" fill="#F9CA51"/>
<path d="M164.055 95.7969H164.407C164.734 95.7969 164.985 95.5197 164.985 95.1921L164.885 91.3869C164.885 91.0593 164.608 90.8073 164.281 90.8073H163.929C163.602 90.8073 163.351 91.0845 163.351 91.4121L163.452 95.2173C163.452 95.5449 163.728 95.7969 164.055 95.7969Z" fill="#6E82BA"/>
<path d="M159.554 96.2505H159.906C160.233 96.2505 160.485 95.9733 160.485 95.6457L160.384 91.8405C160.384 91.5129 160.107 91.2609 159.781 91.2609H159.429C159.102 91.2609 158.85 91.5381 158.85 91.8657L158.951 95.6709C158.951 95.9985 159.227 96.2757 159.554 96.2505Z" fill="#E7A5DD"/>
<path d="M157.266 97.2333H157.618C157.945 97.2333 158.197 96.9561 158.197 96.6285L158.096 92.8233C158.096 92.4957 157.82 92.2437 157.493 92.2437H157.141C156.814 92.2437 156.562 92.5209 156.562 92.8485L156.663 96.6537C156.663 96.9813 156.94 97.2333 157.266 97.2333Z" fill="#F9CA51"/>
<path d="M167.776 108.447C167.776 108.85 167.424 109.178 167.022 109.178C166.619 109.178 166.293 108.825 166.293 108.422C166.293 108.019 166.645 107.691 167.047 107.691C167.449 107.691 167.776 108.044 167.776 108.447Z" fill="#6E82BA"/>
<path d="M167.701 110.665C167.701 111.068 167.349 111.396 166.946 111.396C166.544 111.396 166.217 111.043 166.217 110.64C166.217 110.237 166.569 109.909 166.972 109.909C167.399 109.934 167.726 110.262 167.701 110.665Z" fill="#6E82BA"/>
<path d="M167.65 112.882C167.65 113.286 167.298 113.613 166.896 113.613C166.494 113.613 166.167 113.26 166.167 112.857C166.167 112.454 166.519 112.126 166.921 112.126C167.349 112.152 167.676 112.479 167.65 112.882Z" fill="#6E82BA"/>
<path d="M165.337 116.587L183.918 116.562C184.521 116.562 184.999 116.083 184.999 115.478L184.974 104.743C184.974 104.138 184.496 103.659 183.893 103.659L165.312 103.684C164.709 103.684 164.231 104.163 164.231 104.768L164.256 115.503C164.231 116.083 164.734 116.587 165.337 116.587Z" stroke="#DBE0DD" stroke-miterlimit="10"/>
<path d="M177.33 108.926H183.063C183.365 108.926 183.616 108.674 183.616 108.372V108.296C183.616 107.994 183.365 107.742 183.063 107.742H177.33C177.029 107.742 176.777 107.994 176.777 108.296V108.372C176.777 108.674 177.029 108.926 177.33 108.926Z" fill="#E7A5DD"/>
<path d="M180.121 111.295H183.063C183.365 111.295 183.616 111.043 183.616 110.74V110.665C183.616 110.362 183.365 110.11 183.063 110.11H180.121C179.82 110.11 179.568 110.362 179.568 110.665V110.74C179.568 111.068 179.82 111.295 180.121 111.295Z" fill="#F9CA51"/>
<path d="M171.472 113.513H174.414C174.716 113.513 174.967 113.261 174.967 112.958V112.883C174.967 112.58 174.716 112.328 174.414 112.328H171.472C171.17 112.328 170.919 112.58 170.919 112.883V112.958C170.894 113.261 171.145 113.513 171.472 113.513Z" fill="#F9CA51"/>
<path d="M174.967 111.32H177.909C178.21 111.32 178.462 111.068 178.462 110.766V110.69C178.462 110.388 178.21 110.136 177.909 110.136H174.967C174.665 110.136 174.414 110.388 174.414 110.69V110.766C174.414 111.068 174.665 111.32 174.967 111.32Z" fill="#6E82BA"/>
<path d="M177.33 113.563H182.912C183.214 113.563 183.465 113.311 183.465 113.009V112.933C183.465 112.631 183.214 112.379 182.912 112.379H177.33C177.029 112.379 176.777 112.631 176.777 112.933V113.009C176.777 113.311 177.029 113.563 177.33 113.563Z" fill="#E7A5DD"/>
<path d="M169.008 108.951H174.741C175.042 108.951 175.294 108.699 175.294 108.397V108.321C175.294 108.019 175.042 107.767 174.741 107.767H169.008C168.706 107.767 168.455 108.019 168.455 108.321V108.397C168.455 108.699 168.706 108.951 169.008 108.951Z" fill="#E7A5DD"/>
<path d="M164.281 106.23C169.637 106.23 175.017 106.23 180.373 106.23C181.906 106.23 183.465 106.23 184.999 106.23C185.2 106.23 185.2 105.927 184.999 105.927C179.644 105.927 174.263 105.927 168.908 105.927C167.374 105.927 165.815 105.927 164.281 105.927C164.08 105.927 164.08 106.23 164.281 106.23Z" fill="#DBE0DD"/>
<path d="M167.298 104.894C167.298 105.146 167.097 105.348 166.846 105.348C166.594 105.348 166.393 105.146 166.393 104.894C166.393 104.642 166.594 104.441 166.846 104.441C167.072 104.441 167.298 104.642 167.298 104.894Z" fill="#DBE0DD"/>
<path d="M168.631 104.894C168.631 105.146 168.43 105.348 168.178 105.348C167.927 105.348 167.726 105.146 167.726 104.894C167.726 104.642 167.927 104.441 168.178 104.441C168.43 104.441 168.631 104.642 168.631 104.894Z" fill="#DBE0DD"/>
<path d="M169.989 104.894C169.989 105.146 169.787 105.348 169.536 105.348C169.285 105.348 169.083 105.146 169.083 104.894C169.083 104.642 169.285 104.441 169.536 104.441C169.787 104.441 169.989 104.642 169.989 104.894Z" fill="#DBE0DD"/>
<path d="M170.768 149.826C170.894 151.161 171.045 152.547 171.497 153.832C171.925 155.067 172.679 156.075 173.76 156.806C174.363 157.209 175.042 157.537 175.671 157.94C176.249 158.318 176.777 158.772 177.23 159.276C178.135 160.258 178.839 161.418 179.417 162.627C180.071 163.988 180.574 165.424 181.026 166.886C181.051 167.012 181.253 166.962 181.202 166.836C180.473 164.391 179.543 161.896 177.959 159.855C177.154 158.797 176.174 158.016 175.042 157.36C174.363 156.982 173.685 156.604 173.106 156.075C172.603 155.622 172.226 155.042 171.95 154.437C171.271 153.026 171.12 151.413 170.969 149.851C170.944 149.725 170.743 149.725 170.768 149.826Z" fill="#DBE0DD"/>
<path d="M175.897 149.851C175.872 151.388 176.375 152.9 177.355 154.059C178.286 155.168 179.643 155.748 181.051 156C181.177 156.025 181.227 155.848 181.102 155.823C179.744 155.596 178.462 155.067 177.557 154.009C176.576 152.875 176.048 151.363 176.073 149.851C176.098 149.725 175.922 149.725 175.897 149.851Z" fill="#DBE0DD"/>
<path d="M168.002 160.057C168.757 160.939 169.888 161.342 170.944 161.67C172.126 162.022 173.408 162.274 174.489 162.879C175.797 163.585 176.375 164.895 176.777 166.256C177.255 167.894 177.657 169.582 177.984 171.246C178.336 173.01 178.588 174.824 178.487 176.613C178.437 177.445 178.286 178.327 177.733 179.007C177.255 179.587 176.526 179.94 175.772 179.738C174.037 179.284 173.71 177.294 173.886 175.782C174.062 174.244 174.69 172.632 174.238 171.094C173.509 168.625 170.441 167.138 168.028 167.415C167.902 167.44 167.902 167.617 168.028 167.617C169.31 167.466 170.642 167.844 171.749 168.474C172.83 169.104 173.836 170.112 174.112 171.372C174.489 173.06 173.685 174.774 173.634 176.462C173.609 177.848 174.137 179.41 175.57 179.889C176.928 180.343 178.085 179.234 178.437 177.999C178.663 177.218 178.688 176.386 178.663 175.58C178.638 174.673 178.562 173.791 178.437 172.884C178.16 171.019 177.708 169.204 177.255 167.39C176.903 166.054 176.576 164.618 175.646 163.56C174.716 162.501 173.257 162.148 171.95 161.77C170.592 161.392 169.058 161.04 168.078 159.931C168.053 159.83 167.927 159.956 168.002 160.057Z" fill="#DBE0DD"/>
<path d="M168.053 173.942C168.882 174.295 169.737 174.673 170.441 175.252C170.768 175.53 171.07 175.882 171.246 176.311C171.472 176.89 171.447 177.52 171.346 178.125C171.145 179.31 170.818 180.469 170.642 181.678C170.466 182.838 170.366 183.997 170.341 185.156C170.29 186.517 170.366 187.852 170.491 189.213C170.517 189.339 170.693 189.339 170.693 189.213C170.416 186.643 170.466 184.047 170.869 181.502C170.969 180.872 171.095 180.217 171.221 179.587C171.346 179.007 171.497 178.453 171.573 177.873C171.698 176.89 171.447 175.983 170.718 175.278C169.989 174.572 169.033 174.144 168.103 173.766C168.002 173.715 167.952 173.892 168.053 173.942Z" fill="#DBE0DD"/>
<path d="M177.104 184.199C177.104 184.703 176.777 185.181 176.299 185.358C175.822 185.534 175.269 185.383 174.917 184.98C174.59 184.577 174.54 183.997 174.816 183.569C175.068 183.14 175.596 182.888 176.098 182.989C176.702 183.115 177.104 183.619 177.104 184.199C177.104 184.325 177.305 184.325 177.305 184.199C177.305 183.619 176.928 183.065 176.375 182.863C175.822 182.636 175.143 182.838 174.766 183.291C174.389 183.745 174.338 184.425 174.64 184.929C174.942 185.433 175.545 185.711 176.124 185.61C176.802 185.484 177.28 184.879 177.28 184.199C177.305 184.073 177.104 184.073 177.104 184.199Z" fill="#DBE0DD"/>
<path d="M181.102 189.213C179.618 189.213 178.16 189.213 176.677 189.213C174.313 189.213 171.975 189.213 169.611 189.213C169.058 189.213 168.53 189.213 167.977 189.213C168.002 189.238 168.027 189.264 168.078 189.314C168.078 188.004 168.078 186.693 168.078 185.383C168.078 182.233 168.078 179.083 168.078 175.933C168.078 172.153 168.078 168.348 168.078 164.568C168.078 161.266 168.078 157.99 168.078 154.689C168.078 153.606 168.078 152.522 168.078 151.438C168.078 151.111 168.078 150.758 168.078 150.43C168.078 150.279 168.128 150.052 168.078 149.901C168.078 149.876 168.078 149.851 168.078 149.826C168.053 149.851 168.027 149.876 167.977 149.926C169.461 149.926 170.919 149.926 172.402 149.926C174.766 149.926 177.104 149.926 179.467 149.926C180.021 149.926 180.549 149.926 181.102 149.926C181.077 149.901 181.051 149.876 181.001 149.826C181.001 151.136 181.001 152.446 181.001 153.757C181.001 156.907 181.001 160.057 181.001 163.207C181.001 166.987 181.001 170.792 181.001 174.572C181.001 177.873 181.001 181.149 181.001 184.45C181.001 185.534 181.001 186.618 181.001 187.701C181.001 188.205 180.951 188.734 181.001 189.238C181.001 189.264 181.001 189.289 181.001 189.314C181.001 189.44 181.202 189.44 181.202 189.314C181.202 188.004 181.202 186.693 181.202 185.383C181.202 182.233 181.202 179.083 181.202 175.933C181.202 172.153 181.202 168.348 181.202 164.568C181.202 161.266 181.202 157.99 181.202 154.689C181.202 153.606 181.202 152.522 181.202 151.438C181.202 150.934 181.253 150.405 181.202 149.901C181.202 149.876 181.202 149.851 181.202 149.826C181.202 149.775 181.152 149.725 181.102 149.725C179.618 149.725 178.16 149.725 176.677 149.725C174.313 149.725 171.975 149.725 169.611 149.725C169.058 149.725 168.53 149.725 167.977 149.725C167.927 149.725 167.877 149.775 167.877 149.826C167.877 151.136 167.877 152.446 167.877 153.757C167.877 156.907 167.877 160.057 167.877 163.207C167.877 166.987 167.877 170.792 167.877 174.572C167.877 177.873 167.877 181.149 167.877 184.45C167.877 185.534 167.877 186.618 167.877 187.701C167.877 188.205 167.826 188.734 167.877 189.238C167.877 189.264 167.877 189.289 167.877 189.314C167.877 189.364 167.927 189.415 167.977 189.415C169.461 189.415 170.919 189.415 172.402 189.415C174.766 189.415 177.104 189.415 179.467 189.415C180.021 189.415 180.549 189.415 181.102 189.415C181.227 189.415 181.227 189.213 181.102 189.213Z" fill="#2C2C2C"/>
<path d="M100.971 185.03H68.9143V189.163H100.971V185.03Z" fill="#6E82BA"/>
<path d="M92.2971 185.181C92.2971 186.466 92.2971 187.752 92.2971 189.062C92.2971 189.188 92.4983 189.188 92.4983 189.062C92.4983 187.777 92.4983 186.492 92.4983 185.181C92.4983 185.055 92.2971 185.055 92.2971 185.181Z" fill="#DBE0DD"/>
<path d="M87.4446 185.181C87.4446 186.466 87.4446 187.752 87.4446 189.062C87.4446 189.188 87.6457 189.188 87.6457 189.062C87.6457 187.777 87.6457 186.492 87.6457 185.181C87.6457 185.055 87.4446 185.055 87.4446 185.181Z" fill="#DBE0DD"/>
<path d="M82.6172 185.181C82.6172 186.466 82.6172 187.752 82.6172 189.062C82.6172 189.188 82.8183 189.188 82.8183 189.062C82.8183 187.777 82.8183 186.492 82.8183 185.181C82.7932 185.055 82.6172 185.055 82.6172 185.181Z" fill="#DBE0DD"/>
<path d="M77.7646 185.181C77.7646 186.466 77.7646 187.752 77.7646 189.062C77.7646 189.188 77.9658 189.188 77.9658 189.062C77.9658 187.777 77.9658 186.492 77.9658 185.181C77.9658 185.055 77.7646 185.055 77.7646 185.181Z" fill="#DBE0DD"/>
<path d="M72.9371 185.181C72.9371 186.466 72.9371 187.752 72.9371 189.062C72.9371 189.188 73.1383 189.188 73.1383 189.062C73.1383 187.777 73.1383 186.492 73.1383 185.181C73.1131 185.055 72.9371 185.055 72.9371 185.181Z" fill="#DBE0DD"/>
<path d="M56.4938 98.0648C55.1612 98.0648 53.8286 98.0648 52.496 98.0648C49.5292 98.0648 46.5623 98.0648 43.5955 98.0648C40.5532 98.0648 37.5109 98.0648 34.4686 98.0648C32.9098 98.0648 31.3509 98.1152 29.792 98.0648C29.3143 98.0396 29.1635 97.712 29.1635 97.2836C29.1635 96.704 29.1635 96.1244 29.1635 95.5448C29.1635 94.2092 29.1383 92.8988 29.1635 91.5632C29.1886 90.782 29.8423 90.8828 30.3955 90.8828C31.2252 90.8828 32.08 90.8828 32.9098 90.8828C35.7509 90.8828 38.6172 90.8828 41.4583 90.8828C44.576 90.8828 47.6686 90.8828 50.7863 90.8828C52.6218 90.8828 54.432 90.8828 56.2675 90.8828C56.4938 90.8828 56.72 90.8576 56.9212 91.0592C57.1978 91.3364 57.0972 92.0168 57.0972 92.3696C57.0972 93.8312 57.0972 95.318 57.0972 96.7796C57.072 97.2836 57.1726 98.0144 56.4938 98.0648C56.2926 98.0648 56.2926 98.3924 56.4938 98.3672C56.9966 98.342 57.3738 97.9892 57.3989 97.46C57.3989 97.3592 57.3989 97.2332 57.3989 97.1324C57.3989 96.4772 57.3989 95.822 57.3989 95.1668C57.3989 93.932 57.4492 92.6972 57.3989 91.4876C57.3738 90.9332 56.9715 90.5804 56.4435 90.5804C56.2675 90.5804 56.0663 90.5804 55.8903 90.5804C55.0355 90.5804 54.1806 90.5804 53.3006 90.5804C50.3338 90.5804 47.3669 90.5804 44.4252 90.5804C41.2572 90.5804 38.0892 90.5804 34.9463 90.5804C33.2366 90.5804 31.552 90.5552 29.8423 90.5804C29.3143 90.5804 28.8869 90.9332 28.8618 91.4876C28.8366 91.8908 28.8618 92.294 28.8618 92.672C28.8618 94.1336 28.8618 95.6204 28.8618 97.082C28.8618 97.208 28.8618 97.334 28.8618 97.46C28.8869 97.9136 29.1886 98.2916 29.6412 98.342C29.7669 98.3672 29.9178 98.342 30.0435 98.342C30.7475 98.342 31.4766 98.342 32.1806 98.342C34.9966 98.342 37.7875 98.342 40.6035 98.342C43.8469 98.342 47.0652 98.342 50.3086 98.342C52.2698 98.342 54.256 98.342 56.2172 98.342C56.3178 98.342 56.4183 98.342 56.4938 98.342C56.6949 98.3924 56.6949 98.0648 56.4938 98.0648Z" fill="#DBE0DD"/>
<path d="M33.2366 95.948C34.1669 95.948 34.9211 95.192 34.9211 94.2596C34.9211 93.3271 34.1669 92.5712 33.2366 92.5712C32.3062 92.5712 31.552 93.3271 31.552 94.2596C31.552 95.192 32.3062 95.948 33.2366 95.948Z" fill="#DBE0DD"/>
<path d="M37.5863 94.9149C42.5394 94.9149 47.4926 94.9149 52.4457 94.9149C52.6469 94.9149 52.6469 94.6125 52.4457 94.6125C47.4926 94.6125 42.5394 94.6125 37.5863 94.6125C37.3851 94.5873 37.3851 94.9149 37.5863 94.9149Z" fill="#DBE0DD"/>
<path d="M28.9371 133.723H43.6457C44.1234 133.723 44.5006 133.345 44.5006 132.866V123.693C44.5006 123.214 44.1234 122.836 43.6457 122.836H28.9371C28.4594 122.836 28.0823 123.214 28.0823 123.693V132.866C28.0823 133.345 28.4594 133.723 28.9371 133.723Z" fill="#DBE0DD"/>
<path d="M34.0663 124.903C32.6331 124.903 31.2251 124.903 29.792 124.903C29.5908 124.903 29.5908 125.205 29.792 125.205C31.2251 125.205 32.6331 125.205 34.0663 125.205C34.2674 125.205 34.2674 124.903 34.0663 124.903Z" fill="#6E82BA"/>
<path d="M43.2937 128.179C42.2377 126.919 40 126.944 38.7428 127.851C38.3154 128.154 37.9885 128.582 37.5863 128.935C37.0834 129.363 36.4297 129.489 35.776 129.439C34.7451 129.363 33.7394 129.01 32.7085 128.985C31.7531 128.96 30.496 129.061 29.7165 129.666C29.5657 129.792 29.7165 130.069 29.8674 129.943C30.5714 129.388 31.6525 129.313 32.5074 129.313C33.488 129.313 34.4434 129.59 35.424 129.741C35.9268 129.817 36.4548 129.817 36.9577 129.666C37.4354 129.514 37.8377 129.187 38.1897 128.834C38.5165 128.506 38.8183 128.179 39.2205 127.952C39.5977 127.776 40 127.65 40.4023 127.599C41.3577 127.473 42.4137 127.65 43.0674 128.431C43.2183 128.557 43.4194 128.33 43.2937 128.179Z" fill="#6E82BA"/>
<path d="M107.458 85.238L106.83 85.616C106.679 85.6916 106.704 85.9184 106.83 85.994L107.483 86.3216C107.508 86.3468 107.559 86.372 107.559 86.3972L107.936 87.0272C108.011 87.1784 108.238 87.1532 108.313 87.0272L108.64 86.372C108.665 86.3468 108.69 86.2964 108.715 86.2964L109.344 85.9184C109.495 85.8428 109.47 85.616 109.344 85.5404L108.69 85.2128C108.665 85.1876 108.615 85.1624 108.615 85.1372L108.238 84.5072C108.162 84.356 107.936 84.3812 107.86 84.5072L107.534 85.1624C107.534 85.1876 107.483 85.2128 107.458 85.238Z" fill="#DBE0DD"/>
<path d="M115.529 90.5804L114.901 90.9584C114.75 91.034 114.775 91.2608 114.901 91.3364L115.554 91.664C115.579 91.6892 115.63 91.7144 115.63 91.7396L116.007 92.3696C116.082 92.5208 116.309 92.4956 116.384 92.3696L116.711 91.7144C116.736 91.6892 116.761 91.6388 116.786 91.6388L117.415 91.2608C117.566 91.1852 117.541 90.9584 117.415 90.8828L116.761 90.5552C116.736 90.53 116.686 90.5048 116.686 90.4796L116.309 89.8496C116.233 89.6984 116.007 89.7236 115.931 89.8496L115.605 90.5048C115.579 90.53 115.554 90.5552 115.529 90.5804Z" fill="#DBE0DD"/>
<path d="M114.146 157.562L113.518 157.94C113.367 158.016 113.392 158.242 113.518 158.318L114.171 158.646C114.196 158.671 114.247 158.696 114.247 158.721L114.624 159.351C114.699 159.502 114.926 159.477 115.001 159.351L115.328 158.696C115.353 158.671 115.378 158.62 115.403 158.62L116.032 158.242C116.183 158.167 116.158 157.94 116.032 157.864L115.378 157.537C115.353 157.512 115.303 157.486 115.303 157.461L114.926 156.831C114.85 156.68 114.624 156.705 114.548 156.831L114.222 157.486C114.222 157.512 114.196 157.537 114.146 157.562Z" fill="#DBE0DD"/>
<path d="M106.05 159.477L105.698 159.679C105.623 159.729 105.623 159.83 105.698 159.88L106.05 160.057C106.075 160.057 106.075 160.082 106.1 160.107L106.302 160.46C106.352 160.536 106.452 160.536 106.503 160.46L106.679 160.107C106.679 160.082 106.704 160.082 106.729 160.057L107.081 159.855C107.156 159.805 107.156 159.704 107.081 159.654L106.729 159.477C106.704 159.477 106.704 159.452 106.679 159.427L106.478 159.074C106.427 158.998 106.327 158.998 106.276 159.074L106.1 159.427C106.1 159.452 106.075 159.452 106.05 159.477Z" fill="#DBE0DD"/>
<path d="M128.729 145.088L128.302 145.34C128.201 145.39 128.201 145.542 128.302 145.592L128.754 145.819C128.779 145.819 128.804 145.844 128.804 145.869L129.056 146.298C129.106 146.398 129.257 146.398 129.307 146.298L129.534 145.844C129.534 145.819 129.559 145.794 129.584 145.794L130.011 145.542C130.112 145.491 130.112 145.34 130.011 145.29L129.559 145.063C129.534 145.038 129.508 145.038 129.508 145.012L129.257 144.584C129.207 144.483 129.056 144.483 129.006 144.584L128.779 145.038C128.779 145.063 128.754 145.088 128.729 145.088Z" fill="#DBE0DD"/>
<path d="M95.9176 138.99L95.2388 139.393C95.0879 139.494 95.0879 139.72 95.2388 139.796L95.9428 140.149C95.993 140.174 96.0182 140.199 96.0433 140.224L96.4456 140.905C96.5462 141.056 96.7725 141.056 96.8479 140.905L97.1999 140.199C97.225 140.149 97.2502 140.124 97.2753 140.098L97.9542 139.695C98.105 139.594 98.105 139.368 97.9542 139.292L97.2502 138.939C97.1999 138.914 97.1747 138.889 97.1496 138.864L96.7473 138.183C96.6468 138.032 96.4205 138.032 96.345 138.183L95.993 138.889C95.993 138.939 95.9679 138.964 95.9176 138.99Z" fill="#DBE0DD"/>
<path d="M37.5611 104.617L37.1085 104.894C37.0079 104.944 37.0079 105.096 37.1085 105.171L37.5862 105.423C37.6114 105.448 37.6365 105.448 37.6365 105.474L37.9131 105.927C37.9634 106.028 38.1142 106.028 38.1897 105.927L38.4411 105.448C38.4662 105.423 38.4662 105.398 38.4914 105.398L38.9439 105.121C39.0445 105.07 39.0445 104.919 38.9439 104.844L38.4662 104.592C38.4411 104.566 38.4159 104.566 38.4159 104.541L38.1394 104.088C38.0891 103.987 37.9382 103.987 37.8628 104.088L37.6114 104.566C37.6114 104.566 37.5862 104.592 37.5611 104.617Z" fill="#FFFFFC"/>
<path d="M33.9657 108.094L33.6891 108.271C33.6137 108.296 33.6388 108.397 33.6891 108.447L33.9908 108.598C34.0159 108.598 34.0159 108.624 34.0411 108.624L34.2171 108.901C34.2422 108.976 34.3428 108.951 34.3931 108.901L34.5439 108.598C34.5439 108.573 34.5691 108.573 34.5691 108.548L34.8457 108.372C34.9211 108.346 34.8959 108.246 34.8457 108.195L34.5439 108.044C34.5188 108.044 34.5188 108.019 34.4937 108.019L34.3177 107.742C34.2925 107.666 34.1919 107.691 34.1417 107.742L33.9908 108.044C33.9908 108.069 33.9657 108.069 33.9657 108.094Z" fill="#FFFFFC"/>
<path d="M43.1931 130.321C41.232 130.472 40.1006 128.506 38.7429 127.448C37.9383 126.818 36.9074 126.289 35.9269 126.843C34.9211 127.423 34.5943 128.557 34.0914 129.489C33.4377 130.724 32.2057 131.48 30.7977 131.329C30.5966 131.304 30.5966 131.631 30.7977 131.631C31.8537 131.732 32.9097 131.354 33.664 130.623C34.5189 129.766 34.6949 128.506 35.4743 127.624C37.2091 125.659 39.1954 128.431 40.4777 129.514C41.232 130.17 42.1371 130.699 43.1931 130.623C43.3943 130.623 43.3943 130.296 43.1931 130.321Z" fill="#E7A5DD"/>
<path d="M121.739 147.684L106.779 148.414C105.799 148.465 104.969 147.709 104.919 146.726L104.894 146.197C104.843 145.214 105.598 144.382 106.578 144.332L121.589 143.601C122.569 143.551 123.399 144.307 123.449 145.29L123.474 145.768C123.55 146.776 122.77 147.633 121.739 147.684Z" fill="#6E82BA"/>
<path d="M119.527 151.539L109.721 152.018C108.715 152.068 107.861 151.287 107.81 150.279L107.785 149.8C107.735 148.792 108.514 147.936 109.52 147.885L119.326 147.406C120.331 147.356 121.186 148.137 121.237 149.145L121.262 149.624C121.312 150.632 120.533 151.489 119.527 151.539Z" fill="#6E82BA"/>
<path d="M112.361 138.082C123.22 138.082 132.023 129.259 132.023 118.376C132.023 107.492 123.22 98.6696 112.361 98.6696C101.502 98.6696 92.6995 107.492 92.6995 118.376C92.6995 129.259 101.502 138.082 112.361 138.082Z" fill="#F9CA51"/>
<path d="M104.315 135.688L107.483 142.946L121.111 142.165L124.053 132.841L104.315 135.688Z" fill="#F9CA51"/>
<path d="M110.4 142.316C109.344 139.065 108.439 135.789 107.735 132.438C107.006 129.061 106.402 125.634 106.126 122.206C106 120.72 106.151 118.855 107.584 118.023C108.816 117.292 110.425 117.822 111.355 118.779C112.386 119.863 112.839 121.45 112.914 122.912C112.965 123.693 112.839 124.525 112.235 125.079C111.707 125.583 110.903 125.709 110.35 125.18C109.47 124.298 109.721 122.66 110.023 121.576C110.425 120.19 111.33 118.956 112.789 118.578C114.171 118.2 115.68 118.628 116.786 119.535C117.893 120.468 118.622 121.803 118.974 123.189C119.175 123.97 119.301 124.903 118.823 125.608C118.345 126.289 117.49 126.39 116.862 125.835C116.258 125.306 116.133 124.399 116.133 123.618C116.133 122.962 116.258 122.307 116.51 121.677C116.987 120.468 117.943 119.46 119.25 119.208C120.407 118.981 121.765 119.359 122.443 120.392C123.323 121.753 122.72 123.517 122.142 124.878C121.513 126.39 120.885 127.902 120.357 129.464C119.301 132.614 118.546 135.84 118.094 139.116C117.993 139.897 117.893 140.678 117.817 141.484C117.792 141.686 118.119 141.686 118.119 141.484C118.471 137.704 119.225 133.95 120.382 130.321C120.96 128.506 121.664 126.768 122.393 125.004C122.997 123.567 123.6 121.753 122.72 120.291C122.066 119.208 120.734 118.729 119.502 118.855C118.144 118.981 117.038 119.888 116.434 121.072C115.781 122.307 115.504 124.096 116.133 125.407C116.434 126.012 117.038 126.516 117.742 126.516C118.421 126.516 118.974 126.037 119.25 125.432C119.602 124.626 119.451 123.718 119.225 122.912C119.024 122.181 118.722 121.45 118.295 120.795C117.49 119.51 116.283 118.502 114.775 118.2C113.291 117.897 111.733 118.3 110.752 119.485C109.847 120.543 109.394 122.106 109.445 123.492C109.495 124.676 110.199 126.138 111.632 125.76C113.266 125.306 113.342 123.366 113.141 121.98C112.889 120.468 112.286 118.88 110.953 117.973C109.822 117.192 108.213 117.04 107.106 117.948C105.749 119.056 105.723 120.997 105.874 122.584C106.075 124.474 106.327 126.364 106.654 128.229C107.282 132.06 108.162 135.865 109.269 139.594C109.545 140.527 109.822 141.434 110.123 142.341C110.149 142.593 110.45 142.518 110.4 142.316Z" fill="#2C2C2C"/>
<path d="M122.846 143.803L105.749 144.634C104.743 144.685 103.888 143.904 103.838 142.896L103.813 142.417C103.762 141.409 104.542 140.552 105.547 140.502L122.645 139.67C123.65 139.62 124.505 140.401 124.555 141.409L124.581 141.888C124.631 142.896 123.851 143.752 122.846 143.803Z" fill="#6E82BA"/>
<path d="M105.497 144.76C109.973 144.559 114.448 144.357 118.898 144.181C120.155 144.13 121.438 144.08 122.695 144.004C122.896 144.004 122.896 143.677 122.695 143.702C118.219 143.904 113.744 144.105 109.294 144.282C108.037 144.332 106.754 144.382 105.497 144.458C105.296 144.458 105.296 144.786 105.497 144.76Z" fill="#2C2C2C"/>
<path d="M108.137 148.591C112.411 148.364 116.686 148.112 120.96 147.885C121.161 147.885 121.161 147.558 120.96 147.583C116.686 147.81 112.411 148.062 108.137 148.288C107.936 148.288 107.936 148.591 108.137 148.591Z" fill="#2C2C2C"/>
<path d="M124.053 106.204C126.491 107.641 127.975 110.186 128.83 112.807C129.81 115.806 130.062 119.006 129.433 122.106C129.081 123.87 128.478 125.558 127.598 127.12C127.497 127.297 127.774 127.448 127.874 127.272C129.433 124.424 130.213 121.173 130.062 117.922C129.936 114.898 129.106 111.723 127.472 109.153C126.617 107.842 125.536 106.708 124.178 105.902C124.053 105.826 123.877 106.104 124.053 106.204Z" fill="#DBE0DD"/>
<g opacity="0.3">
<path d="M106.302 102.802C108.866 103.029 109.193 105.121 108.917 106.91C108.64 108.699 107.408 110.186 106.151 111.496C104.894 112.807 103.536 114.092 102.857 115.806C102.455 116.839 102.329 117.973 102.002 119.056C101.675 120.115 101.047 121.198 100.016 121.602C98.7841 122.106 97.3258 121.501 96.4961 120.442C95.6664 119.409 95.3898 118.023 95.3395 116.713C95.0378 110.614 98.3566 104.768 104.19 103.029C104.19 103.029 105.648 102.752 106.302 102.802Z" fill="#DBE0DD"/>
</g>
<g opacity="0.68">
<path d="M147.285 104.995C146.983 104.239 146.203 104.163 145.55 104.188L76.9851 105.348C76.1303 108.85 80.1531 119.812 81.4606 123.038C87.872 138.813 93.3029 154.261 99.7143 170.036L127.975 170.313C134.613 148.616 140.471 128.582 147.109 106.885C147.335 106.255 147.511 105.574 147.285 104.995Z" fill="url(#paint0_linear_812_64)"/>
</g>
<path d="M128.88 169.834H98.3566V189.163H128.88V169.834Z" fill="#6E82BA"/>
<path d="M105.899 170.061C105.899 174.975 105.899 179.864 105.899 184.778C105.899 186.164 105.899 187.55 105.899 188.936C105.899 189.062 106.101 189.062 106.101 188.936C106.101 184.022 106.101 179.133 106.101 174.219C106.101 172.833 106.101 171.447 106.101 170.061C106.101 169.935 105.899 169.935 105.899 170.061Z" fill="#DBE0DD"/>
<path d="M118.069 189.163V181.855L128.905 176.588" stroke="#DBE0DD" stroke-miterlimit="10"/>
<path d="M98.3063 169.96C98.3063 174.925 98.3063 179.889 98.3063 184.854C98.3063 186.265 98.3063 187.701 98.3063 189.112C98.3063 189.238 98.5074 189.238 98.5074 189.112C98.5074 184.148 98.5074 179.184 98.5074 174.219C98.5074 172.808 98.5074 171.372 98.5074 169.96C98.4823 169.86 98.3063 169.86 98.3063 169.96Z" fill="#DBE0DD"/>
<path d="M108.841 171.901C108.841 172.102 108.665 172.279 108.464 172.279C108.263 172.279 108.087 172.102 108.087 171.901C108.087 171.699 108.263 171.523 108.464 171.523C108.665 171.523 108.841 171.674 108.841 171.901Z" fill="#DBE0DD"/>
<path d="M108.841 177.041C108.841 177.243 108.665 177.419 108.464 177.419C108.263 177.419 108.087 177.243 108.087 177.041C108.087 176.84 108.263 176.663 108.464 176.663C108.665 176.663 108.841 176.815 108.841 177.041Z" fill="#DBE0DD"/>
<path d="M108.841 182.182C108.841 182.384 108.665 182.56 108.464 182.56C108.263 182.56 108.087 182.384 108.087 182.182C108.087 181.981 108.263 181.804 108.464 181.804C108.665 181.804 108.841 181.956 108.841 182.182Z" fill="#DBE0DD"/>
<path d="M108.841 187.323C108.841 187.525 108.665 187.701 108.464 187.701C108.263 187.701 108.087 187.525 108.087 187.323C108.087 187.121 108.263 186.945 108.464 186.945C108.665 186.945 108.841 187.096 108.841 187.323Z" fill="#DBE0DD"/>
<path d="M120.407 187.222C120.407 187.424 120.231 187.6 120.03 187.6C119.828 187.6 119.652 187.424 119.652 187.222C119.652 187.021 119.828 186.844 120.03 186.844C120.231 186.844 120.407 187.021 120.407 187.222Z" fill="#DBE0DD"/>
<path d="M120.407 183.342C120.407 183.543 120.231 183.72 120.03 183.72C119.828 183.72 119.652 183.543 119.652 183.342C119.652 183.14 119.828 182.964 120.03 182.964C120.231 182.964 120.407 183.14 120.407 183.342Z" fill="#DBE0DD"/>
<path d="M94.4595 117.292C94.0823 120.316 94.5349 123.391 95.7669 126.163C96.8983 128.708 98.7086 130.926 100.921 132.614C102.178 133.546 103.536 134.302 104.994 134.857C105.195 134.932 105.271 134.63 105.07 134.554C99.8149 132.538 95.9178 127.851 94.8869 122.307C94.5852 120.644 94.5349 118.956 94.7612 117.267C94.8115 117.091 94.4846 117.116 94.4595 117.292Z" fill="#DBE0DD"/>
<defs>
<linearGradient id="paint0_linear_812_64" x1="112.974" y1="170.478" x2="112.113" y2="104.608" gradientUnits="userSpaceOnUse">
<stop stop-color="white"/>
<stop offset="1" stop-color="white" stop-opacity="0"/>
</linearGradient>
</defs>
</svg>
