<svg
    width="1016"
    height="923"
    viewBox="0 0 1016 923"
    fill="none"
    xmlns="http://www.w3.org/2000/svg"
>
    <g opacity="0.3" filter="url(#filter0_f_1_23)">
        <path
            d="M1112.24 -178.568C1120.25 -170.56 1320.3 -84.254 1426 -43.1029C1420.44 25.6306 1423.86 190.591 1399.3 225.825C1368.85 269.498 1321.33 241.651 1263.9 207.997L1262.44 207.141C1204.36 173.107 1118.91 238.504 1112.24 255.187C1105.56 271.87 849.876 275.207 810.488 280.545C771.101 285.884 580.173 243.176 544.791 207.141C509.409 171.105 483.374 16.2882 483.374 -5.73322C483.374 -27.7546 478.033 -153.877 483.374 -167.891C488.714 -181.905 658.948 -218.607 687.654 -242.63C710.619 -261.849 857.442 -275.551 927.984 -280C981.613 -248.859 1104.22 -186.576 1112.24 -178.568Z"
            fill="#FBBF24"
        />
        <path
            d="M1144.79 316.849C1153.93 315.854 1252.82 467.553 1310.44 539.363C1278.66 585.385 1214.16 702.65 1182.6 717.428C1143.48 735.745 1121.37 696.896 1094.65 649.948L1093.97 648.753C1066.93 601.272 980.337 612.524 968.877 621.532C957.418 630.541 776.306 529.101 746.45 516.863C716.593 504.626 670.069 409.016 659.807 369.342C649.546 329.668 685.041 222.663 693.972 207.194C702.903 191.725 723.145 117.163 732.583 109.487C742.021 101.812 832.825 47.9886 862.749 42.7658C886.689 38.5875 927.548 153.093 978.946 178.601C1004.02 222.245 1118.37 319.724 1144.79 316.849Z"
            fill="#3EC0B8"
        />
        <path
            d="M625.573 -230.11C632.416 -235.128 781.407 -159.444 860.574 -128.61C856.407 -77.1104 858.974 46.4896 840.573 72.8896C817.767 105.612 782.177 84.747 739.168 59.5314L738.073 58.8896C694.573 33.3896 630.573 82.3896 625.573 94.8896C620.573 107.39 429.073 109.89 399.573 113.89C370.073 117.89 288.797 62.8896 262.297 35.8896C235.797 8.88965 214.796 -93.1104 214.796 -109.61C214.796 -126.11 196.574 -195.11 200.574 -205.61C204.574 -216.11 252.296 -301.11 273.796 -319.11C290.996 -333.51 376.463 -260.777 429.296 -264.11C469.463 -240.777 605.796 -215.61 625.573 -230.11Z"
            fill="#5281F9"
        />
    </g>
    <defs>
        <filter
            id="filter0_f_1_23"
            x="0"
            y="-690"
            width="1626"
            height="1612.06"
            filterUnits="userSpaceOnUse"
            color-interpolation-filters="sRGB"
        >
            <feFlood flood-opacity="0" result="BackgroundImageFix" />
            <feBlend
                mode="normal"
                in="SourceGraphic"
                in2="BackgroundImageFix"
                result="shape"
            />
            <feGaussianBlur
                stdDeviation="100"
                result="effect1_foregroundBlur_1_23"
            />
        </filter>
    </defs>
</svg>