<svg width="230" height="250" viewBox="0 0 230 250" fill="none" xmlns="http://www.w3.org/2000/svg">
<rect width="230" height="250" fill="#252841"/>
<rect width="230" height="5" fill="#C976A3"/>
<path d="M138.67 81.9C138.61 81.93 137.86 81.03 136.63 79.44L136.57 79.35L136.6 79.2599C136.87 78.4199 137.23 77.37 137.59 76.23C137.68 76.32 137.8 76.4399 137.92 76.5599C136.99 76.8599 135.97 77.22 134.89 77.58L134.74 77.64L134.62 77.55C133.81 76.95 132.97 76.29 132.07 75.63C132.22 75.54 132.4 75.45 132.58 75.36C132.58 76.38 132.58 77.46 132.58 78.54V78.72L132.43 78.8099C131.53 79.4399 130.66 80.0399 129.79 80.6099C129.76 80.4299 129.73 80.22 129.7 80.04C130.75 80.4 131.77 80.7299 132.73 81.0299L132.88 81.09L132.91 81.24C133.24 82.35 133.51 83.37 133.78 84.2999C133.63 84.2699 133.45 84.2399 133.3 84.2099C134.05 83.2499 134.68 82.3799 135.22 81.6599L135.28 81.57H135.37C137.5 81.75 138.67 81.84 138.67 81.9C138.67 81.9599 137.5 82.02 135.46 82.02C135.52 81.99 135.55 81.9599 135.61 81.9299C135.1 82.6799 134.5 83.55 133.78 84.57L133.48 85.0199L133.33 84.5099C133.03 83.5799 132.73 82.5599 132.37 81.45C132.43 81.51 132.49 81.5699 132.58 81.6599C131.62 81.3599 130.6 81.03 129.52 80.7L128.89 80.49L129.43 80.1C130.27 79.5 131.14 78.9 132.04 78.27C131.98 78.36 131.95 78.45 131.89 78.54C131.89 77.46 131.89 76.38 131.89 75.36V74.7L132.4 75.09C133.27 75.78 134.14 76.44 134.92 77.04C134.83 77.01 134.74 77.01 134.65 76.98C135.76 76.65 136.78 76.32 137.71 76.02L138.22 75.87L138.04 76.38C137.62 77.52 137.23 78.54 136.93 79.38C136.93 79.32 136.9 79.26 136.9 79.2C138.1 80.88 138.73 81.8699 138.67 81.9Z" fill="#B3E0F7"/>
<path d="M46.51 139.2C46.45 139.17 46.75 138.03 47.38 136.11L47.41 136.02L47.5 135.99C48.37 135.72 49.39 135.42 50.56 135.09C50.53 135.24 50.5 135.39 50.47 135.54C49.69 134.97 48.82 134.34 47.89 133.65L47.77 133.56V133.41C47.8 132.42 47.86 131.34 47.89 130.23C48.04 130.32 48.22 130.41 48.4 130.5C47.56 131.1 46.69 131.7 45.79 132.33L45.64 132.42L45.49 132.36C44.47 131.97 43.48 131.61 42.49 131.22C42.64 131.1 42.76 130.95 42.91 130.83C43.24 131.91 43.54 132.93 43.81 133.89L43.87 134.04L43.78 134.16C43.06 135.06 42.37 135.87 41.77 136.62C41.71 136.47 41.62 136.32 41.56 136.2C42.79 136.26 43.84 136.29 44.74 136.32H44.86L44.92 136.41C45.97 138.15 46.57 139.17 46.51 139.2C46.45 139.23 45.76 138.3 44.59 136.65C44.65 136.68 44.68 136.71 44.74 136.74C43.84 136.74 42.76 136.74 41.56 136.74H41.02L41.35 136.32C41.95 135.54 42.61 134.7 43.3 133.8C43.27 133.89 43.27 133.98 43.24 134.07C42.94 133.11 42.61 132.09 42.28 131.01L42.1 130.41L42.73 130.65C43.69 131.01 44.71 131.37 45.73 131.76C45.64 131.76 45.52 131.79 45.43 131.79C46.33 131.16 47.2 130.56 48.04 129.96L48.58 129.57L48.55 130.23C48.49 131.34 48.43 132.42 48.4 133.41C48.37 133.32 48.31 133.23 48.28 133.17C49.18 133.86 50.05 134.52 50.8 135.12L51.22 135.45L50.71 135.57C49.54 135.87 48.49 136.14 47.62 136.35C47.68 136.32 47.71 136.26 47.74 136.23C47.02 138.15 46.57 139.23 46.51 139.2Z" fill="#B3E0F7"/>
<path d="M51.7 58.05C51.73 57.99 52.27 58.23 53.2 58.65C54.16 59.1 55.51 59.73 57.16 60.54L57.28 60.6L57.31 60.72C57.55 62.07 57.82 63.63 58.12 65.31L58.15 65.46L58.03 65.58C56.74 66.93 55.3 68.4 53.83 69.93L53.65 70.11L53.44 69.99C51.55 69.03 49.75 68.1 48.1 67.23L47.95 67.2L47.92 67.05C47.65 65.34 47.41 63.81 47.23 62.43L47.2 62.31L47.29 62.22C48.61 60.9 49.69 59.85 50.44 59.13C51.22 58.41 51.67 58.02 51.7 58.05C51.73 58.08 51.37 58.53 50.65 59.31C49.96 60.09 48.91 61.2 47.65 62.55C47.68 62.49 47.68 62.4 47.71 62.34C47.95 63.69 48.22 65.25 48.52 66.93C48.46 66.87 48.4 66.78 48.37 66.72C50.02 67.56 51.85 68.49 53.74 69.42C53.62 69.45 53.5 69.45 53.35 69.48C54.85 67.95 56.29 66.48 57.58 65.16C57.55 65.25 57.52 65.34 57.49 65.43C57.22 63.75 56.98 62.19 56.8 60.84C56.86 60.9 56.89 60.96 56.92 61.02C55.3 60.15 53.98 59.43 53.08 58.92C52.18 58.41 51.67 58.11 51.7 58.05Z" fill="#B3E0F7"/>
<path d="M48.2499 66.99C48.1299 66.87 49.6899 65.04 51.7299 62.91C51.9099 62.73 52.0599 62.58 52.2099 62.4C52.1799 62.49 52.1499 62.58 52.1199 62.67C51.6999 60.06 51.5199 58.05 51.6999 58.02C51.8499 57.99 52.3299 59.97 52.7799 62.55L52.8099 62.7L52.6899 62.82C52.5399 62.97 52.3599 63.15 52.2099 63.33C50.1399 65.49 48.3699 67.11 48.2499 66.99Z" fill="#B3E0F7"/>
<path d="M52.45 62.64C52.54 62.49 53.8 62.97 55.27 63.72C56.74 64.47 57.88 65.22 57.79 65.37C57.7 65.52 56.44 65.04 54.97 64.29C53.5 63.54 52.39 62.82 52.45 62.64Z" fill="#B3E0F7"/>
<path d="M78.19 178.89C78.22 178.86 78.73 179.1 79.63 179.61C80.53 180.12 81.82 180.87 83.41 181.8L83.53 181.86V181.98C83.65 183.33 83.83 184.89 83.98 186.57V186.72L83.86 186.81C82.48 188.04 80.95 189.39 79.36 190.83L79.18 190.98L78.97 190.86C77.17 189.75 75.46 188.7 73.9 187.74L73.78 187.65V187.5C73.66 185.79 73.54 184.23 73.42 182.88V182.76L73.51 182.67C74.92 181.47 76.06 180.51 76.87 179.85C77.68 179.22 78.16 178.86 78.19 178.89C78.22 178.92 77.83 179.34 77.08 180.06C76.33 180.78 75.22 181.8 73.87 183.06C73.9 183 73.93 182.91 73.96 182.85C74.11 184.2 74.26 185.76 74.41 187.47C74.35 187.38 74.32 187.32 74.26 187.23C75.85 188.19 77.56 189.24 79.36 190.32C79.24 190.32 79.09 190.35 78.97 190.35C80.56 188.94 82.09 187.59 83.5 186.39C83.47 186.48 83.44 186.57 83.41 186.66C83.29 184.98 83.17 183.42 83.05 182.04C83.08 182.1 83.14 182.19 83.17 182.22C81.61 181.23 80.38 180.42 79.51 179.85C78.64 179.28 78.16 178.95 78.19 178.89Z" fill="#B3E0F7"/>
<path d="M74.08 187.5C73.96 187.35 75.64 185.67 77.86 183.72C78.04 183.57 78.22 183.42 78.37 183.27C78.34 183.36 78.31 183.45 78.25 183.54C78.04 180.93 78.01 178.92 78.16 178.89C78.34 178.89 78.64 180.87 78.88 183.48L78.91 183.63L78.79 183.75C78.61 183.9 78.46 184.05 78.28 184.23C76.09 186.18 74.2 187.65 74.08 187.5Z" fill="#B3E0F7"/>
<path d="M78.5801 183.51C78.6701 183.36 79.9001 183.93 81.3101 184.8C82.7201 185.67 83.7701 186.48 83.6801 186.63C83.5901 186.78 82.3601 186.21 80.9501 185.34C79.5701 184.5 78.4901 183.66 78.5801 183.51Z" fill="#B3E0F7"/>
<path d="M170.62 129.39C170.59 129.36 171.04 128.61 171.91 127.32C172.78 126 174.04 124.14 175.63 121.86L175.69 121.77H175.81C177.88 121.71 180.25 121.62 182.83 121.56H182.98L183.07 121.68C184.81 123.9 186.7 126.33 188.68 128.88L188.83 129.06L188.68 129.27C186.85 131.88 185.08 134.37 183.46 136.65L183.37 136.77H183.22C180.64 136.8 178.27 136.86 176.2 136.89H176.08L175.99 136.8C174.28 134.58 172.93 132.75 172 131.46C171.1 130.14 170.59 129.42 170.62 129.39C170.65 129.36 171.25 130.02 172.24 131.25C173.23 132.48 174.67 134.25 176.41 136.44C176.35 136.41 176.29 136.38 176.2 136.35C178.27 136.29 180.64 136.2 183.22 136.14C183.13 136.17 183.07 136.23 182.98 136.26C184.57 133.98 186.34 131.46 188.17 128.85C188.17 128.97 188.17 129.12 188.17 129.24C186.19 126.69 184.3 124.23 182.59 122.01C182.68 122.04 182.77 122.1 182.83 122.13C180.25 122.16 177.88 122.22 175.81 122.25C175.87 122.22 175.96 122.19 176.02 122.13C174.4 124.38 173.08 126.21 172.12 127.47C171.22 128.73 170.68 129.42 170.62 129.39Z" fill="#B3E0F7"/>
<path d="M183.25 136.44C183.1 136.56 180.76 133.8 178.03 130.26C177.82 129.96 177.58 129.69 177.37 129.42C177.46 129.45 177.55 129.51 177.64 129.54C173.68 129.6 170.62 129.54 170.62 129.39C170.62 129.21 173.65 129 177.61 128.91H177.76L177.85 129.03C178.06 129.3 178.27 129.57 178.51 129.87C181.3 133.38 183.4 136.32 183.25 136.44Z" fill="#B3E0F7"/>
<path d="M177.64 129.24C177.49 129.15 178.54 127.38 179.98 125.34C181.42 123.3 182.71 121.71 182.86 121.83C183.01 121.92 181.96 123.69 180.52 125.73C179.08 127.77 177.79 129.33 177.64 129.24Z" fill="#B3E0F7"/>
<path d="M176.56 105.84C176.53 105.75 178.21 105.12 180.85 104.19L180.97 104.16L181.09 104.25C181.96 104.85 182.95 105.54 184.03 106.29L184.15 106.38V106.53C184.18 107.97 184.21 109.53 184.24 111.18V111.42L184 111.48C182.44 111.96 180.97 112.44 179.62 112.89L179.47 112.95L179.35 112.86C178.3 112.08 177.34 111.36 176.47 110.73L176.35 110.64V110.52C176.41 107.61 176.47 105.84 176.56 105.84C176.65 105.84 176.77 107.64 176.89 110.49C176.86 110.43 176.83 110.37 176.77 110.28C177.64 110.88 178.63 111.57 179.71 112.32C179.62 112.32 179.53 112.29 179.44 112.29C180.79 111.84 182.26 111.36 183.82 110.85C183.73 110.94 183.67 111.06 183.58 111.18C183.55 109.53 183.55 107.97 183.52 106.53C183.55 106.62 183.61 106.71 183.64 106.77C182.59 105.99 181.63 105.27 180.76 104.64C180.85 104.64 180.91 104.67 180.97 104.67C178.33 105.48 176.59 105.93 176.56 105.84Z" fill="#B3E0F7"/>
<path d="M179.53 112.56C179.35 112.56 179.17 110.73 179.14 108.45C179.14 108.27 179.14 108.09 179.14 107.91C179.2 108 179.23 108.09 179.29 108.18C177.67 106.98 176.47 105.96 176.59 105.84C176.68 105.69 178.03 106.5 179.68 107.64L179.8 107.73V107.91C179.8 108.09 179.8 108.27 179.8 108.45C179.83 110.7 179.71 112.56 179.53 112.56Z" fill="#B3E0F7"/>
<path d="M179.47 107.91C179.41 107.73 180.34 107.28 181.57 106.89C182.77 106.5 183.82 106.32 183.85 106.5C183.91 106.68 182.98 107.13 181.75 107.52C180.55 107.91 179.53 108.09 179.47 107.91Z" fill="#B3E0F7"/>
<path d="M104.74 165.63C104.74 165.6 105.07 165.39 105.7 164.97C106.36 164.55 107.32 163.95 108.55 163.2C111.04 161.7 114.61 159.54 119.02 156.9L119.14 156.84L119.26 156.9C122.77 158.37 126.82 160.08 131.23 161.91L131.38 161.97L131.41 162.12C132.64 167.16 133.96 172.71 135.37 178.53L135.43 178.77L135.22 178.89C130.12 181.89 125.26 184.77 120.82 187.38L120.7 187.47L120.55 187.41C116.14 185.52 112.12 183.81 108.64 182.31L108.52 182.25L108.49 182.13C107.32 177.09 106.36 172.98 105.73 170.13C105.4 168.69 105.16 167.58 105.01 166.83C104.77 166.02 104.71 165.63 104.74 165.63C104.77 165.63 104.89 166.02 105.1 166.77C105.31 167.52 105.58 168.63 105.94 170.04C106.66 172.86 107.68 176.97 108.94 182.01C108.88 181.95 108.85 181.89 108.79 181.83C112.3 183.3 116.35 184.98 120.76 186.84C120.67 186.84 120.58 186.84 120.49 186.87C124.93 184.23 129.79 181.35 134.86 178.35C134.8 178.47 134.77 178.59 134.71 178.71C133.33 172.92 131.98 167.37 130.78 162.3C130.84 162.36 130.9 162.45 130.96 162.51C126.58 160.62 122.53 158.91 119.05 157.41C119.14 157.41 119.2 157.41 119.29 157.38C114.85 159.96 111.25 162.06 108.73 163.5C107.47 164.22 106.48 164.79 105.82 165.15C105.1 165.45 104.74 165.66 104.74 165.63Z" fill="#C976A3"/>
<path d="M120.61 187.11C120.52 187.14 120.04 185.52 119.35 182.91C118.66 180.3 117.76 176.67 116.77 172.68C116.62 172.02 116.47 171.39 116.32 170.79C116.38 170.88 116.44 170.94 116.5 171C113.14 169.56 110.17 168.27 108.04 167.31C105.91 166.35 104.65 165.72 104.68 165.66C104.71 165.57 106.03 166.05 108.19 166.92C110.35 167.76 113.35 168.99 116.74 170.43L116.89 170.49L116.92 170.64C117.07 171.24 117.22 171.9 117.37 172.53C118.33 176.52 119.17 180.18 119.74 182.82C120.4 185.43 120.7 187.08 120.61 187.11Z" fill="#C976A3"/>
<path d="M116.68 170.7C116.59 170.55 119.74 168.51 123.7 166.17C127.69 163.83 130.99 162.03 131.08 162.21C131.17 162.36 128.02 164.4 124.03 166.74C120.07 169.05 116.77 170.85 116.68 170.7Z" fill="#C976A3"/>
<g opacity="0.87">
<path d="M111.94 76.3201L116.17 92.9101L101.53 101.7L97.27 85.1101L111.94 76.3201Z" fill="#5354B0"/>
<path d="M101.53 101.7L89.23 96.6901L84.97 80.1001L97.27 85.1101L101.53 101.7Z" fill="#6E6FBA"/>
<path d="M97.27 85.1101L84.97 80.1001L99.64 71.3401L111.94 76.3201L97.27 85.1101Z" fill="#7071BF"/>
<path d="M111.94 76.3201L99.64 71.3401L84.97 80.1001L89.23 96.6901L101.53 101.7L116.17 92.9101L111.94 76.3201Z" fill="url(#paint0_linear_812_61)"/>
</g>
<path d="M94.5401 91.7401C94.6001 91.8301 93.5201 92.5201 91.7801 93.6001C90.0401 94.6801 87.5801 96.1201 84.8801 97.7101C82.1801 99.2701 79.6901 100.68 77.8901 101.64C76.0901 102.63 74.9501 103.17 74.8901 103.11C74.8301 103.02 75.9101 102.33 77.6501 101.25C79.3901 100.17 81.8501 98.7301 84.5501 97.1401C87.2501 95.5801 89.7401 94.1701 91.5401 93.2101C93.3401 92.2201 94.4801 91.6801 94.5401 91.7401Z" fill="#C976A3"/>
<g opacity="0.87">
<path d="M88.1201 144.03L92.3801 160.62L77.7401 169.41L73.4801 152.82L88.1201 144.03Z" fill="#5354B0"/>
<path d="M77.7401 169.41L65.4401 164.4L61.1801 147.81L73.4801 152.82L77.7401 169.41Z" fill="#6E6FBA"/>
<path d="M73.4801 152.82L61.1801 147.81L75.8501 139.05L88.1201 144.03L73.4801 152.82Z" fill="#7071BF"/>
<path d="M88.12 144.03L75.8501 139.05L61.1801 147.81L65.4401 164.4L77.7401 169.41L92.3801 160.62L88.12 144.03Z" fill="url(#paint1_linear_812_61)"/>
</g>
<g opacity="0.87">
<path d="M168.1 141.27L172.36 157.83L157.69 166.62L153.46 150.03L168.1 141.27Z" fill="#5354B0"/>
<path d="M157.69 166.62L145.39 161.61L141.16 145.02L153.46 150.03L157.69 166.62Z" fill="#6E6FBA"/>
<path d="M153.46 150.03L141.16 145.02L155.8 136.26L168.1 141.27L153.46 150.03Z" fill="#7071BF"/>
<path d="M168.1 141.27L155.8 136.26L141.16 145.02L145.39 161.61L157.72 166.62L172.36 157.83L168.1 141.27Z" fill="url(#paint2_linear_812_61)"/>
</g>
<g opacity="0.87">
<path d="M125.41 122.55L129.64 139.11L115 147.9L110.74 131.31L125.41 122.55Z" fill="#5354B0"/>
<path d="M115 147.9L102.7 142.89L98.4401 126.3L110.74 131.31L115 147.9Z" fill="#6E6FBA"/>
<path d="M110.74 131.31L98.4401 126.3L113.11 117.54L125.41 122.55L110.74 131.31Z" fill="#7071BF"/>
<path d="M125.41 122.55L113.11 117.54L98.4401 126.3L102.7 142.89L115 147.9L129.64 139.11L125.41 122.55Z" fill="url(#paint3_linear_812_61)"/>
</g>
<path d="M106.72 137.55C106.78 137.64 105.82 138.27 104.29 139.23C102.73 140.19 100.6 141.48 98.17 142.89C95.77 144.27 93.58 145.5 91.96 146.37C90.34 147.24 89.35 147.72 89.29 147.63C89.23 147.54 90.19 146.91 91.72 145.95C93.28 144.99 95.41 143.7 97.84 142.29C100.24 140.91 102.43 139.68 104.05 138.81C105.67 137.97 106.69 137.46 106.72 137.55Z" fill="#C976A3"/>
<path d="M150.19 157.35C150.25 157.44 149.26 158.1 147.67 159.09C146.05 160.08 143.83 161.43 141.31 162.87C138.82 164.31 136.54 165.6 134.86 166.5C133.18 167.4 132.13 167.91 132.1 167.82C132.04 167.73 133.03 167.07 134.62 166.08C136.24 165.09 138.46 163.74 140.98 162.3C143.47 160.86 145.75 159.57 147.43 158.67C149.11 157.77 150.16 157.26 150.19 157.35Z" fill="#C976A3"/>
<path d="M111.94 125.34C111.85 125.37 111.43 123.93 110.8 121.56C110.17 119.22 109.36 115.95 108.49 112.35C107.62 108.75 106.87 105.48 106.36 103.08C105.85 100.71 105.58 99.2102 105.67 99.2102C105.76 99.1802 106.18 100.62 106.81 102.99C107.44 105.33 108.25 108.6 109.12 112.2C109.99 115.8 110.74 119.07 111.25 121.47C111.73 123.84 112 125.34 111.94 125.34Z" fill="#C976A3"/>
<path d="M73.9001 146.43C73.8101 146.46 73.3901 145.05 72.7901 142.77C72.1901 140.49 71.3801 137.34 70.5401 133.86C69.7001 130.38 68.9801 127.2 68.5001 124.89C68.0201 122.58 67.7501 121.14 67.8401 121.14C67.9301 121.11 68.3501 122.52 68.9501 124.8C69.5501 127.08 70.3601 130.23 71.2001 133.71C72.0401 137.19 72.7601 140.37 73.2701 142.68C73.7501 144.99 73.9901 146.4 73.9001 146.43Z" fill="#C976A3"/>
<path d="M155.14 142.65C155.05 142.68 154.66 141.36 154.06 139.2C153.49 137.04 152.71 134.07 151.93 130.74C151.12 127.44 150.46 124.44 149.98 122.25C149.53 120.06 149.26 118.71 149.35 118.68C149.44 118.65 149.83 119.97 150.43 122.13C151 124.29 151.78 127.26 152.56 130.59C153.37 133.89 154.03 136.89 154.51 139.08C154.99 141.27 155.23 142.62 155.14 142.65Z" fill="#C976A3"/>
<path d="M105.28 166.5C105.25 166.59 103.99 166.08 102.01 165.24C100.03 164.37 97.3 163.14 94.3 161.76C91.3 160.35 88.6 159.06 86.68 158.1C84.73 157.14 83.56 156.48 83.59 156.42C83.62 156.33 84.88 156.84 86.86 157.68C88.84 158.55 91.57 159.78 94.57 161.16C97.57 162.54 100.27 163.86 102.19 164.82C104.14 165.78 105.31 166.41 105.28 166.5Z" fill="#C976A3"/>
<path d="M142.06 144.48C142.03 144.57 140.77 144.12 138.79 143.37C136.81 142.59 134.05 141.48 131.05 140.22C128.05 138.96 125.32 137.79 123.37 136.89C121.42 136.02 120.22 135.42 120.28 135.33C120.31 135.24 121.57 135.69 123.55 136.44C125.53 137.22 128.29 138.33 131.29 139.59C134.29 140.85 137.02 142.02 138.97 142.92C140.89 143.82 142.09 144.42 142.06 144.48Z" fill="#C976A3"/>
<path d="M120.85 135.33C120.85 135.69 120.55 135.96 120.22 135.96C119.86 135.96 119.59 135.66 119.59 135.33C119.59 134.97 119.89 134.7 120.22 134.7C120.55 134.7 120.85 135 120.85 135.33Z" fill="#C976A3"/>
<path d="M112.57 125.34C112.57 125.7 112.27 125.97 111.94 125.97C111.58 125.97 111.31 125.67 111.31 125.34C111.31 124.98 111.61 124.71 111.94 124.71C112.27 124.71 112.57 124.98 112.57 125.34Z" fill="#C976A3"/>
<path d="M107.38 137.55C107.38 137.91 107.08 138.18 106.75 138.18C106.39 138.18 106.12 137.88 106.12 137.55C106.12 137.19 106.42 136.92 106.75 136.92C107.08 136.92 107.38 137.19 107.38 137.55Z" fill="#C976A3"/>
<path d="M84.55 156.39C84.55 156.75 84.25 157.02 83.92 157.02C83.56 157.02 83.29 156.72 83.29 156.39C83.29 156.03 83.59 155.76 83.92 155.76C84.28 155.73 84.55 156.03 84.55 156.39Z" fill="#C976A3"/>
<path d="M74.56 146.43C74.56 146.79 74.26 147.06 73.93 147.06C73.57 147.06 73.3 146.76 73.3 146.43C73.3 146.07 73.6 145.8 73.93 145.8C74.26 145.8 74.56 146.07 74.56 146.43Z" fill="#C976A3"/>
<path d="M155.77 142.65C155.77 143.01 155.47 143.28 155.14 143.28C154.78 143.28 154.51 142.98 154.51 142.65C154.51 142.32 154.81 142.02 155.14 142.02C155.5 141.99 155.77 142.29 155.77 142.65Z" fill="#C976A3"/>
<path d="M95.17 91.9501C95.17 92.3101 94.87 92.5801 94.54 92.5801C94.18 92.5801 93.91 92.2801 93.91 91.9501C93.91 91.5901 94.21 91.3201 94.54 91.3201C94.9 91.3201 95.17 91.6201 95.17 91.9501Z" fill="#C976A3"/>
<path d="M150.85 157.35C150.85 157.71 150.55 157.98 150.22 157.98C149.86 157.98 149.59 157.68 149.59 157.35C149.59 156.99 149.89 156.72 150.22 156.72C150.55 156.69 150.85 156.99 150.85 157.35Z" fill="#C976A3"/>
<path d="M47.41 102.06C47.41 102.03 47.74 101.82 48.37 101.4C49.03 100.98 49.99 100.38 51.22 99.63C53.71 98.13 57.28 95.97 61.69 93.33L61.81 93.27L61.93 93.33C65.44 94.8 69.49 96.51 73.9 98.34L74.05 98.4L74.08 98.55C75.31 103.59 76.63 109.14 78.04 114.96L78.1 115.2L77.89 115.32C72.79 118.32 67.93 121.2 63.49 123.81L63.37 123.9L63.22 123.84C58.81 121.95 54.79 120.24 51.31 118.74L51.19 118.68L51.16 118.56C49.99 113.52 49.03 109.41 48.4 106.56C48.07 105.12 47.83 104.01 47.68 103.26C47.44 102.48 47.38 102.06 47.41 102.06C47.44 102.06 47.56 102.45 47.77 103.2C47.98 103.95 48.25 105.06 48.61 106.47C49.33 109.29 50.35 113.4 51.61 118.44C51.55 118.38 51.52 118.32 51.46 118.26C54.97 119.73 59.02 121.41 63.43 123.27C63.34 123.27 63.25 123.27 63.16 123.3C67.6 120.66 72.46 117.78 77.53 114.75C77.47 114.87 77.44 114.99 77.38 115.11C76 109.32 74.65 103.77 73.45 98.7C73.51 98.76 73.57 98.85 73.63 98.91C69.25 97.02 65.2 95.31 61.72 93.81C61.81 93.81 61.87 93.81 61.96 93.78C57.52 96.36 53.92 98.46 51.4 99.9C50.14 100.62 49.15 101.19 48.49 101.55C47.77 101.91 47.41 102.09 47.41 102.06Z" fill="#C976A3"/>
<path d="M63.28 123.54C63.19 123.57 62.71 121.95 62.02 119.34C61.33 116.73 60.43 113.1 59.44 109.11C59.29 108.45 59.14 107.82 58.99 107.22C59.05 107.31 59.11 107.37 59.17 107.43C55.81 105.99 52.84 104.7 50.71 103.74C48.58 102.78 47.32 102.15 47.35 102.09C47.38 102 48.7 102.48 50.86 103.35C53.02 104.19 56.02 105.42 59.41 106.86L59.56 106.92L59.59 107.07C59.74 107.67 59.89 108.33 60.04 108.96C61 112.95 61.84 116.61 62.41 119.25C63.07 121.86 63.37 123.51 63.28 123.54Z" fill="#C976A3"/>
<path d="M59.32 107.13C59.23 106.98 62.38 104.94 66.34 102.6C70.33 100.26 73.63 98.4601 73.72 98.6401C73.81 98.7901 70.66 100.83 66.67 103.17C62.71 105.51 59.44 107.28 59.32 107.13Z" fill="#C976A3"/>
<path d="M131.26 98.1001C131.26 98.0701 131.59 97.8601 132.22 97.4401C132.88 97.0201 133.84 96.4201 135.07 95.6701C137.56 94.1701 141.13 92.0101 145.54 89.3701L145.66 89.3101L145.78 89.3701C149.29 90.8401 153.34 92.5501 157.75 94.3801L157.9 94.4401L157.93 94.5901C159.16 99.6301 160.48 105.18 161.89 111L161.95 111.24L161.74 111.36C156.64 114.36 151.78 117.24 147.34 119.85L147.22 119.94L147.07 119.88C142.66 117.99 138.64 116.28 135.16 114.78L135.04 114.72L135.01 114.6C133.84 109.56 132.88 105.45 132.25 102.6C131.92 101.16 131.68 100.05 131.53 99.3001C131.29 98.5201 131.23 98.1001 131.26 98.1001C131.29 98.1001 131.41 98.4901 131.62 99.2401C131.83 99.9901 132.1 101.1 132.46 102.51C133.18 105.33 134.2 109.44 135.46 114.48C135.4 114.42 135.37 114.36 135.31 114.3C138.82 115.77 142.87 117.45 147.28 119.31C147.19 119.31 147.1 119.31 147.01 119.34C151.45 116.7 156.31 113.82 161.38 110.82C161.32 110.94 161.29 111.06 161.23 111.18C159.85 105.36 158.53 99.8401 157.3 94.7701C157.36 94.8301 157.42 94.9201 157.48 94.9801C153.1 93.0901 149.05 91.3801 145.57 89.8801C145.66 89.8801 145.72 89.8801 145.81 89.8501C141.37 92.4301 137.77 94.5301 135.25 95.9701C133.99 96.6901 133 97.2601 132.34 97.6201C131.62 97.9501 131.26 98.1301 131.26 98.1001Z" fill="#C976A3"/>
<path d="M147.13 119.58C147.04 119.61 146.56 117.99 145.87 115.38C145.18 112.77 144.28 109.14 143.29 105.15C143.14 104.49 142.99 103.86 142.84 103.26C142.9 103.35 142.96 103.41 143.02 103.47C139.66 102.03 136.69 100.74 134.56 99.7801C132.43 98.8201 131.17 98.1901 131.2 98.1301C131.23 98.0401 132.55 98.5201 134.71 99.3901C136.87 100.23 139.87 101.46 143.26 102.9L143.41 102.96L143.44 103.11C143.59 103.71 143.74 104.37 143.89 105C144.85 108.99 145.69 112.65 146.26 115.29C146.92 117.9 147.22 119.55 147.13 119.58Z" fill="#C976A3"/>
<path d="M143.17 103.17C143.08 103.02 146.23 100.98 150.19 98.6401C154.18 96.3001 157.48 94.5001 157.57 94.6801C157.66 94.8301 154.51 96.8701 150.52 99.2101C146.56 101.55 143.26 103.32 143.17 103.17Z" fill="#C976A3"/>
<defs>
<linearGradient id="paint0_linear_812_61" x1="117.29" y1="76.5786" x2="92.0094" y2="91.6236" gradientUnits="userSpaceOnUse">
<stop stop-color="#314897"/>
<stop offset="1" stop-color="#314897" stop-opacity="0"/>
</linearGradient>
<linearGradient id="paint1_linear_812_61" x1="93.4996" y1="144.289" x2="68.219" y2="159.334" gradientUnits="userSpaceOnUse">
<stop stop-color="#314897"/>
<stop offset="1" stop-color="#314897" stop-opacity="0"/>
</linearGradient>
<linearGradient id="paint2_linear_812_61" x1="173.463" y1="141.5" x2="148.182" y2="156.545" gradientUnits="userSpaceOnUse">
<stop stop-color="#314897"/>
<stop offset="1" stop-color="#314897" stop-opacity="0"/>
</linearGradient>
<linearGradient id="paint3_linear_812_61" x1="130.76" y1="122.779" x2="105.479" y2="137.824" gradientUnits="userSpaceOnUse">
<stop stop-color="#314897"/>
<stop offset="1" stop-color="#314897" stop-opacity="0"/>
</linearGradient>
</defs>
</svg>
