<svg width="555" height="583" viewBox="0 0 555 583" fill="none" xmlns="http://www.w3.org/2000/svg">
<rect width="555" height="583" fill="#3D4175"/>
<path d="M102.344 188.632C104.978 187.032 107.758 185.698 110.532 184.36C120.498 179.56 123.454 180.048 130.546 183.078C135.638 185.254 154.972 193.278 156.946 198.35C157.546 199.898 157.396 199.614 157.526 219.586C157.57 226.23 156.624 225.816 155.982 229.234C155.052 234.19 156.548 235.928 150.71 238.958C143.033 243.29 134.638 246.204 125.928 247.558C123.363 248.315 120.671 248.544 118.015 248.233C115.358 247.921 112.793 247.076 110.472 245.746C106.736 243.978 91.82 235.36 89.832 231.76C88.632 229.574 88.854 228.738 88.354 209.246C87.908 191.732 86.304 198.356 102.344 188.632Z" fill="#478AE6"/>
<path d="M153.172 190.576C125.184 178.706 124.014 177.114 118.682 179.336L92.282 190.336C90.3894 191.121 88.7725 192.451 87.636 194.156C86.4995 195.861 85.8947 197.865 85.898 199.914V229.644C85.895 231.694 86.5008 233.698 87.6384 235.403C88.776 237.107 90.3943 238.436 92.288 239.22C121.204 251.274 119.888 251.03 122.702 251.03C125.516 251.03 123.814 251.43 153.116 239.22C155.009 238.435 156.626 237.106 157.762 235.401C158.899 233.697 159.503 231.693 159.5 229.644V200.128C159.502 198.09 158.902 196.097 157.777 194.398C156.651 192.698 155.049 191.369 153.172 190.576ZM120.294 183.2C121.055 182.883 121.871 182.721 122.695 182.724C123.52 182.726 124.335 182.893 125.094 183.214C153.978 195.48 151.864 194.52 152.568 195L122.706 206.366L92.84 194.778C93.568 194.294 91.468 195.214 120.294 183.2ZM93.9 235.352C92.7727 234.884 91.8098 234.091 91.1333 233.075C90.4568 232.059 90.0972 230.865 90.1 229.644C90.1 197.778 89.794 198.93 90.832 196.994L121.308 208.818C121.308 250.596 121.73 246.952 120.326 246.368L93.9 235.352ZM155.3 229.644C155.302 230.865 154.942 232.058 154.266 233.074C153.59 234.091 152.627 234.883 151.5 235.352L125.082 246.368C123.682 246.954 124.098 250.614 124.098 208.824L154.58 197.224C155.588 199.108 155.308 197.846 155.308 229.644H155.3Z" fill="#1B1B1B"/>
<path d="M191.4 250C189 247 179.27 242.19 172.36 240.126C167.06 238.544 167.04 240.362 163.76 241.694C166.26 235.228 161.842 225.984 156.614 221.094C149.804 214.736 150.662 211.97 146.214 212.82C145.629 213.01 145.091 213.322 144.635 213.736C144.18 214.15 143.817 214.656 143.572 215.22C141.108 219.536 148.846 224.906 150.192 228.266C150.494 229.012 150.584 229.826 150.452 230.62C150.32 231.413 149.97 232.155 149.442 232.762C147.242 234.346 144.014 232.716 142.454 231.006C140.894 229.296 139.938 227.19 138.466 225.444C135.022 221.36 130.714 222.458 129.044 225.626C128.178 227.27 129.686 230.122 130.716 231.666C136.916 240.954 137.768 242.388 139.516 244.21C143.516 248.398 149.284 249.898 151.916 249.41C153.358 248.987 154.741 248.382 156.03 247.61C156.518 248.01 157.023 248.388 157.546 248.744C156.93 250.101 156.59 251.566 156.546 253.056C157.114 261.364 172.426 269.126 177.666 272.056C181.29 274.086 184.312 268.742 182.948 266.44C181.814 264.526 175.476 263.84 171.28 259.424C168.758 256.77 169.03 254.25 170.32 253.024C171.248 252.388 172.296 251.947 173.399 251.726C174.502 251.505 175.638 251.509 176.74 251.738C179.554 252.819 182.197 254.301 184.586 256.138C187.06 257.978 188.532 258.538 190.786 256.176C192.644 254.248 193.2 252.26 191.4 250Z" fill="#C976A3"/>
<path d="M193.306 251.98C193.28 251.232 193.028 250.509 192.585 249.906C192.141 249.303 191.526 248.848 190.82 248.6C185.538 243.024 174.942 236.144 166.62 237.888C168.282 228.912 157.108 219.038 151.124 213.916C150.464 213.356 150.84 213.014 149.42 212.292C145.976 210.544 141.666 213.958 142.594 217.352C143.766 221.952 149.02 226.74 149.272 230.294C149.398 232.182 148.462 232.804 146.798 232.342C143.076 231.294 137.822 223.542 135.742 222.596C131.118 220.518 126.26 225.396 129.01 229.678C129.676 230.654 133.256 240.93 141.61 247.262C145.546 250.182 150.098 252.082 154.634 250.278C154.397 252.589 154.741 254.922 155.634 257.066C156.528 259.21 157.942 261.097 159.75 262.556C163.614 265.99 174.174 271.318 177.05 272.408C177.536 273.464 179.972 274.262 182.65 270.878C185.288 267.55 183.418 265.18 182.3 265.042C180.33 263.258 172.808 258.77 171.38 255.978C170.526 254.25 171.78 252.966 173.544 252.662C176.79 252.082 182.944 256.436 186.478 257.752C188.652 260.644 193.686 256.2 193.306 251.98ZM130.878 230.58C130.464 229.2 129.186 227.092 131.206 225.132C131.906 224.542 132.75 224.147 133.652 223.987C134.554 223.828 135.482 223.91 136.342 224.224C137.202 228.364 143.402 236.988 148.884 235.872C147.368 240.024 149.6 244.108 152.684 247.272C143.544 249.892 132.864 232.98 130.878 230.574V230.58ZM171.376 260.8C179.858 266.93 182.076 264.882 182.294 266.722C182.392 267.556 182.004 268.322 181.012 269.574C178.314 272.99 177.884 271.73 177.212 271.286C169.366 264.814 157.386 260.4 158.012 251.516C160.894 253.367 164.311 254.203 167.722 253.89C167.2 256.828 169.03 259.018 171.376 260.8ZM187.084 257.064C185.562 254.756 178.174 248.882 173.424 249.236C173.594 248.584 173.611 247.901 173.472 247.242C173.333 246.582 173.043 245.964 172.624 245.436C171.906 244.656 170.506 243.45 171.562 246.118C171.771 246.725 171.812 247.377 171.681 248.005C171.549 248.633 171.249 249.214 170.814 249.686C166.1 255.144 148.698 243.856 151.296 236.042C152.398 232.432 155.284 232.878 155.438 232.462C155.608 232.184 154.238 231.424 152.598 231.96C152.913 229.903 152.421 227.803 151.224 226.1C149.209 223.177 146.775 220.566 144 218.352C143.929 217.615 144.049 216.871 144.35 216.194C144.65 215.517 145.12 214.928 145.714 214.486C146.792 213.787 148.097 213.527 149.36 213.76C152.76 218.908 163.19 227.848 163.34 235.89C163.391 236.6 163.292 237.312 163.051 237.982C162.81 238.652 162.432 239.263 161.94 239.778C160.832 238.037 159.825 236.234 158.924 234.378C157.658 232.52 156.076 232.268 155.924 232.68C155.724 233.08 156.452 233.88 156.87 235.408C157.252 237.97 158.305 240.385 159.922 242.408C160.801 243.553 161.978 244.434 163.325 244.953C164.672 245.472 166.136 245.609 167.556 245.35C169.614 244.796 171.5 244.538 169.756 243.566C168.29 242.7 166.672 243.512 164.944 242.404C164.686 242.248 164.728 242.302 164.83 242.148C173.554 237.84 185.006 246.836 190.674 249.762C192.728 252.502 189.51 257.76 187.084 257.072V257.064Z" fill="#1B1B1B"/>
<path d="M412.772 188.496C415.406 186.896 418.184 185.56 420.96 184.224C430.926 179.424 433.882 179.91 440.974 182.94C446.066 185.116 465.4 193.14 467.374 198.212C467.974 199.76 467.824 199.476 467.954 219.448C467.998 226.092 467.052 225.678 466.41 229.096C465.48 234.052 466.976 235.79 461.138 238.82C453.461 243.152 445.066 246.065 436.356 247.42C433.791 248.177 431.099 248.406 428.443 248.095C425.786 247.783 423.221 246.938 420.9 245.608C417.164 243.84 402.248 235.222 400.26 231.622C399.06 229.436 399.282 228.6 398.782 209.108C398.336 191.6 396.732 198.218 412.772 188.496Z" fill="#478AE6"/>
<path d="M463.77 190.576C435.684 178.664 434.57 177.128 429.278 179.336L402.878 190.336C400.986 191.121 399.369 192.451 398.233 194.156C397.097 195.861 396.492 197.865 396.496 199.914V229.644C396.492 231.693 397.097 233.696 398.233 235.401C399.369 237.106 400.986 238.435 402.878 239.22C431.794 251.276 430.478 251.03 433.292 251.03C436.238 251.03 435.692 250.9 463.706 239.22C465.599 238.435 467.216 237.106 468.352 235.401C469.489 233.697 470.094 231.693 470.09 229.644V200.128C470.092 198.091 469.494 196.098 468.37 194.399C467.246 192.7 465.646 191.37 463.77 190.576ZM430.89 183.2C431.651 182.884 432.468 182.723 433.292 182.725C434.116 182.728 434.931 182.894 435.69 183.214C464.582 195.466 462.464 194.514 463.17 194.986L433.306 206.36L403.44 194.772C404.15 194.302 401.83 195.318 430.89 183.2ZM404.49 235.346C403.363 234.877 402.4 234.085 401.724 233.069C401.047 232.053 400.688 230.859 400.69 229.638C400.69 197.7 400.396 198.906 401.422 196.988L431.9 208.812C431.9 250.59 432.32 246.946 430.916 246.362L404.49 235.346ZM465.89 229.638C465.893 230.859 465.533 232.053 464.857 233.069C464.18 234.085 463.217 234.878 462.09 235.346L435.67 246.362C434.27 246.948 434.688 250.608 434.688 208.818L465.168 197.218C466.186 199.108 465.904 197.846 465.904 229.644L465.89 229.638Z" fill="#1B1B1B"/>
<path d="M427.36 222.338C426.926 221.016 424.482 217.938 422.614 217.938C418.814 217.914 415.112 227.988 410.366 228.304C409.699 228.367 409.029 228.23 408.439 227.911C407.85 227.593 407.369 227.106 407.056 226.514C405.37 222.762 414.438 214.314 413.456 211.534C412.63 210.385 411.625 209.376 410.48 208.546C408.694 207.622 406.93 209.06 405.564 210.36C390.142 225.022 392.716 222.032 391.646 229.636C391.283 231.2 391.357 232.833 391.86 234.358C388.292 233.942 384.678 234.173 381.192 235.04C379.27 235.728 378.22 236.492 370.556 241.406C368.656 242.626 365.052 243.776 364.384 246.768C363.872 249.052 365.602 253.168 368.018 252.952C370.006 252.776 369.332 251.012 378.018 247.976C379.546 247.313 381.203 247 382.868 247.06C383.699 247.111 384.491 247.431 385.123 247.972C385.756 248.514 386.194 249.247 386.372 250.06C386.62 252.27 381.818 258.52 377.552 259.506C376.206 259.818 374.534 259.906 373.902 261.128C373.32 262.266 374.06 263.608 374.778 264.666C376.944 267.866 378.358 267.562 380.036 266.528C393.694 258.128 394.636 257.712 396.036 256.086C397.714 254.15 400.436 248.008 400.012 244.578C400.428 244.087 400.909 243.654 401.442 243.292C404.61 241.634 407.912 247.662 416.96 239.36C419.51 237.02 421.506 233.93 425.418 228.416C426.708 226.6 428.05 224.436 427.36 222.338Z" fill="#C976A3"/>
<path d="M428.67 221.986C428.573 220.753 428.039 219.594 427.165 218.719C426.291 217.844 425.133 217.309 423.9 217.21C423.047 217.103 422.181 217.222 421.388 217.553C420.595 217.884 419.902 218.417 419.378 219.098C417.552 220.95 410.486 229.548 408.192 227.286C403.792 223.962 419.738 212.836 412.366 207.838C409.638 205.946 406.19 207.468 406.076 208.724C399.466 214.252 390.574 222.27 390.122 230.862C389.984 233.372 390.854 233.018 389.412 232.81C381.14 231.72 371.012 238.452 366.064 243.672C365.527 243.82 365.041 244.116 364.664 244.526C360.878 248.504 367.62 256.526 370.396 252.826C373.902 251.508 380.104 247.158 383.326 247.736C385.126 248.048 386.326 249.346 385.49 251.052C384.068 253.834 376.516 258.358 374.57 260.116C373.352 260.264 371.598 262.64 374.218 265.952C376.996 269.45 379.394 268.436 379.818 267.484C385.953 264.893 391.76 261.584 397.118 257.628C398.926 256.17 400.342 254.283 401.236 252.139C402.129 249.995 402.473 247.661 402.236 245.35C406.768 247.15 411.32 245.258 415.26 242.334C421.028 237.964 423.672 233.148 426.896 226.67C428.264 223.884 428.736 223.516 428.67 221.986ZM369.8 252.144C367.382 252.828 364.154 247.556 366.214 244.836C372.312 241.688 383.378 232.922 392.058 237.224C392.16 237.374 392.2 237.322 391.944 237.48C390.19 238.564 388.592 237.776 387.132 238.64C386.57 238.954 386.394 239.288 386.476 239.486C386.558 239.684 386.906 239.772 387.364 239.886C389.235 240.696 391.339 240.791 393.276 240.154C398.9 237.622 399.476 232.22 400.014 230.492C400.432 228.964 401.164 228.172 400.962 227.766C400.818 227.352 399.234 227.606 397.962 229.464C397.058 231.319 396.051 233.121 394.946 234.864C394.806 234.776 394.664 234.692 394.522 234.61C390.048 226.79 402.954 215.038 406.744 209.936C407.69 208.674 407.374 208.854 407.892 208.796C408.448 208.698 409.018 208.713 409.568 208.839C410.118 208.965 410.638 209.2 411.096 209.53C411.554 209.86 411.941 210.278 412.235 210.76C412.528 211.242 412.723 211.778 412.806 212.336C412.976 213.886 413.222 212.864 409.562 216.44C407.244 218.816 404.59 221.782 404.198 225.074C403.944 227.8 404.96 226.928 403.358 226.874C401.946 226.798 401.358 227.41 401.444 227.554C401.534 227.802 402.176 227.718 403.072 228.1C405.424 229.088 407.124 232.932 404.598 236.92C402.454 240.372 396.694 245.272 391.552 246.058C386.378 246.968 384.324 243.492 385.318 241.21C385.674 240.314 386.234 239.896 386.102 239.676C385.888 239.096 382.622 240.604 383.454 244.336C378.788 243.966 371.318 249.836 369.8 252.144ZM378.946 267.024C377.586 266.962 376.808 265.836 375.874 264.654C374.458 262.854 374.408 262.164 374.76 261.02C377.68 260.762 390.304 255.472 389.178 248.97C392.588 249.283 396.005 248.447 398.886 246.596C399.556 256.234 384.314 261.516 378.944 267.024H378.946ZM404.2 242.338C407.29 239.166 409.508 235.08 408 230.938C412.224 231.796 416.2 227.31 418.51 223.688C421.476 218.974 419.578 219.378 421.572 219.088C425.312 218.506 427.542 221.336 426.542 224.104C425.042 228.61 412.644 244.77 404.2 242.338Z" fill="#1B1B1B"/>
<path d="M228.734 366.028C228.48 363.534 227.614 361.126 227.42 358.628C227.262 356.604 227.548 354.572 227.556 352.542C227.59 343.198 221.49 337.428 215.18 337.814C214.234 332.776 212.996 327.25 208.872 324.204C207.118 322.823 205.061 321.879 202.869 321.451C200.678 321.023 198.417 321.124 196.272 321.744C195.646 312.79 189.824 303.482 180.562 304.832C167.962 306.67 143.8 338.344 138.744 348.432C134.274 357.356 132.198 368.042 134.84 377.486C130.5 370.84 121.692 378.252 121.536 392.346C121.423 393.83 121.62 395.32 122.114 396.724C122.608 398.127 123.389 399.412 124.406 400.498C127.523 404.96 130.956 409.192 134.678 413.162C138.82 417.094 151.49 425.7 160.146 428.26C173.032 432.07 183.076 426.932 184.996 422.396C185.596 420.974 185.596 419.962 186.196 413.086C186.426 410.408 186.272 407.844 183.714 407.012C202.166 402.344 207.734 384.54 208.132 384.108C210.325 382.149 213.001 380.809 215.884 380.228C224.084 379.816 229.562 374.2 228.734 366.028ZM146.506 394.27C150.622 397.8 155.01 401.001 159.628 403.842C154.681 401.522 150.226 398.272 146.506 394.27ZM162.876 405.47C167.579 407.484 172.698 408.337 177.8 407.958C172.222 410.25 169 408.47 162.876 405.474V405.47Z" fill="#DBE0DD"/>
<path d="M227.654 356.358C232.672 349.398 227.036 336.704 219.39 336.042C219.006 327.302 208.19 317.938 198.324 320.136C198.278 315.586 196.489 311.227 193.324 307.957C190.159 304.688 185.86 302.757 181.314 302.564C174.43 302.306 169.692 306.684 165.296 311.978C150.43 330.316 127.802 350.088 131.758 373.378C119.758 375.834 112.248 393.516 128.996 410.476C140.17 421.442 163.338 437.232 177.996 431.166C180.583 430.119 182.907 428.513 184.801 426.463C186.695 424.413 188.113 421.97 188.952 419.308C190.015 415.602 189.644 411.633 187.914 408.188C198.294 403.882 205.542 393.426 210.934 383.496C216.636 381.774 223.036 381.816 227.592 376.628C232.6 371.06 232.244 362.4 227.654 356.358ZM217.724 343.578C218.326 342.363 218.776 341.078 219.064 339.752C222.346 341.458 225.864 348.168 224.912 353.456C222.038 351.023 218.626 349.31 214.958 348.456C213.4 348.052 215.064 348.896 217.724 343.578ZM214.63 336.868C214.48 340.968 212.744 344.85 209.786 347.694C204.838 347.399 199.875 347.961 195.118 349.354C175.096 355.212 184.384 358.908 176.852 351.036C186.896 343.352 196.934 334.53 198.214 323.744C206.084 322.738 214.454 330.624 214.63 336.868ZM185.248 418.212C184.492 420.22 183.318 422.045 181.803 423.564C180.288 425.084 178.466 426.263 176.46 427.024C164.01 431.876 141.792 416.132 132.336 407.074C117.948 392.906 123.566 379.092 132.478 376.614C137.736 395.776 163.478 415.632 184.788 409.296C186.08 412.099 186.245 415.291 185.248 418.212ZM224.178 373.692C219.336 379.518 207.958 376.998 194.062 389.278C191.52 391.534 190.406 393.066 190.616 393.3C191.16 393.91 196.578 389.07 206.122 385.216C199.27 395.654 192.698 404.03 180.75 405.99C160.848 408.92 136.088 387.668 136.17 368.114C136.116 351.154 152.192 334.804 163.214 321.884C170.37 313.596 176.626 302.07 187.874 309.13C194.474 313.188 196.954 323.82 190.154 333.246C185.533 338.997 180.272 344.204 174.472 348.764C164.954 340.338 154.472 341.152 154.454 342.424C154.424 344.39 164.366 342.662 177.242 357.524C174.994 358.908 159.758 369.452 160.58 370.602C161.062 371.28 169.558 365.712 177.502 361.438C218.842 339.22 232.466 363.724 224.178 373.692Z" fill="#1B1B1B"/>
<path d="M164.686 333.664C165.014 341.296 165.832 349.758 171.486 354.882C176.23 359.174 183.086 359.91 189.162 361.882C204.288 366.792 203.394 373.348 263.578 394.41C276.852 399.056 279.236 397.692 288.488 393.558C301.512 387.736 313.798 383.2 326.088 375.958C332.268 372.314 340.062 370.042 346.368 366.62C357.058 360.82 369.812 359.564 380.284 353.376C383.884 351.25 384.958 347.776 386.156 343.776C386.907 340.655 386.929 337.403 386.222 334.272C383.574 317.584 387.574 300.906 386.106 284.072C384.416 264.672 389.67 245.232 385.848 226.142C384.984 223.901 383.563 221.919 381.718 220.382C379.732 218.506 376.656 218.486 374.202 217.286C371.992 216.471 369.886 215.397 367.928 214.086C361.22 208.582 343.928 207.662 308.224 189.99C301.246 186.536 287.224 180.968 279.512 179.868C267.436 178.146 262.996 183.138 251.83 188.048C227.446 198.774 212.05 205.464 198.644 211.788C184.942 218.254 169.338 217.946 166.94 230.272C166.276 233.672 164.71 264.442 164.48 270.738C163.736 291.24 163.764 312.244 164.686 333.664Z" fill="#478AE6"/>
<path d="M243.932 246.844C245.367 248.075 247.006 249.045 248.776 249.71C250.468 250.286 250.5 246.328 250.6 245.31C250.762 243.636 251.2 242.278 250.486 242.218C248.686 242.06 247.764 243.312 246.446 244.258C245.784 244.724 243.524 245.812 243.932 246.844Z" fill="#45BFF5"/>
<path d="M291.026 369.3C286.876 369.752 285.976 371.132 285.79 373.802C285.524 377.602 286.696 381.738 287.408 382.314C287.67 382.464 287.962 382.552 288.263 382.573C288.564 382.594 288.866 382.546 289.146 382.434C301.606 379.422 301.306 378.954 301.308 375.568C301.308 374.192 301.29 369.076 300.376 368.036C298.562 365.966 291.376 368.588 288.86 370.036L291.026 369.3Z" fill="#45BFF5"/>
<path d="M360.662 249.288H360.838C360.602 247.302 363.758 246.858 364.572 246.628C364.94 246.524 373.474 242.73 375 244.076C375.938 244.902 375.088 247.232 375.2 249.588C375.51 255.84 384.676 264.292 370.23 267.988C365.476 269.204 362.068 270.738 362.908 267.03C364.242 261.16 357.2 258.568 360.662 249.288Z" fill="#45BFF5"/>
<path d="M389.012 229.86C389.123 227.227 388.42 224.624 386.998 222.405C385.576 220.186 383.505 218.459 381.066 217.46L282.168 178.116C275.25 175.364 279.704 175.116 172.24 219.046C169.771 220.011 167.637 221.677 166.102 223.838C164.567 226 163.698 228.563 163.6 231.212V345.152C163.495 347.741 164.175 350.302 165.551 352.497C166.926 354.693 168.934 356.422 171.31 357.456L270.212 399.018C271.856 399.705 273.621 400.054 275.403 400.046C277.185 400.038 278.946 399.672 280.584 398.97L380.6 355.862C383.007 354.863 385.077 353.196 386.566 351.057C388.055 348.918 388.899 346.398 389 343.794L389.012 229.86ZM384.076 311.528L352.256 325.186V288.536L384.076 274.764V311.528ZM311.984 342.544V305.892L348.842 290C349.678 290.326 349.462 283.32 349.462 326.384L311.984 342.544ZM349.462 329.434V363.96L311.984 380.116V345.588L349.462 329.434ZM275.4 358.316C238.936 343 242.58 345.138 242.58 343.158L276.238 329.4L309.094 342.47C309.24 342.108 309.19 341.946 309.19 343.75L275.4 358.316ZM277.44 210.158L310.24 224.972C302.622 228.546 293.276 232.972 278.486 240C275.42 241.454 281.42 243.19 242.578 225.508L277.44 210.158ZM239.176 223.958C229.016 219.34 218 214.372 207.736 209.82L243.042 195.388L273.544 208.822L239.176 223.958ZM280.21 208.342L310.518 194.658L345.8 208.69C330.98 215.384 323.368 218.84 313.588 223.41L280.21 208.342ZM349.462 286.696C348.514 287.096 352.512 288.46 314.608 273.38V226.94L349.462 242.678V286.696ZM309.19 339.496L277.628 326.94V291.94L309.19 304.494V339.496ZM242.638 261.554C243.824 258.854 239.954 262.344 269.882 247.296C271.882 246.296 273.558 245.414 274.902 244.756V288.662C274.902 289.116 277.416 287.9 242.58 302.14C242.58 259.77 242.438 261.466 242.638 261.554ZM277.7 287.354V243.436C286.562 239.236 303.012 231.452 311.814 227.322V273.4L277.7 287.354ZM277.628 288.844L277.672 288.956L277.628 288.938V288.844ZM242.58 305.158L274.834 291.974V326.956L242.58 340.138V305.158ZM312.27 302.728L279.4 289.654L313.21 275.834L345.162 288.546L312.27 302.728ZM314.528 226.904C312.328 226.904 312.306 227.092 313.6 226.486L314.528 226.904ZM273.086 242.57C266.97 245.586 255.03 251.806 241.268 257.898L205.154 242L239.154 227.024C254.438 233.966 267.614 240.042 273.086 242.57ZM239.786 260.298V303.658L203.076 288.23V244.13L239.786 260.298ZM200.282 287.056L168.6 273.74C168.928 227.302 168.8 230.642 169.17 229.198L200.282 242.9V287.056ZM168.444 276.762L200.282 290.086V326.75L168.444 313.316V276.762ZM203.076 291.26L239.786 306.688C239.786 344.434 239.704 341.764 239.786 341.964C239.786 343.952 245.326 345.682 203.076 327.924V291.26ZM239.786 346.382V380.926L203.076 365.5V330.956L239.786 346.382ZM384.228 271.712L352.256 285.492V242.154L384.27 227.7C384.646 229.2 384.552 226.024 384.228 271.712ZM383.142 225.144C347.108 241.414 350.628 239.544 350.962 240.29L316.938 224.926C326.232 220.6 334.128 217.022 349.4 210.126C382.282 223.2 381.216 222.238 383.142 225.144ZM274.11 182.69C278.31 180.976 278.63 181.972 306.91 193.222L276.368 207.022L246.636 193.918L274.11 182.69ZM204.148 211.29C214.332 215.792 225.412 220.78 235.748 225.47L201.69 240.47L170.31 226.648C172.212 223.818 171.096 224.8 204.148 211.288V211.29ZM168.2 345.186V316.338L200.29 329.782V364.326L173.2 352.948C171.687 352.301 170.402 351.216 169.511 349.833C168.62 348.449 168.163 346.831 168.2 345.186ZM242.58 382.1V347.558L274.162 360.884V395.056C272.728 394.83 274.776 395.632 242.58 382.1ZM276.958 395.03V360.63L309.2 346.8V381.32C275.966 395.638 278.32 394.784 276.958 395.03ZM378.67 351.372L352.256 362.756V328.23L383.822 314.58V343.758C383.789 345.389 383.286 346.975 382.371 348.326C381.457 349.677 380.172 350.735 378.67 351.372Z" fill="#1B1B1B"/>
<path d="M301.95 370.42C302.008 369.249 301.709 368.088 301.094 367.09C300.714 366.654 300.217 366.335 299.662 366.171C299.107 366.007 298.516 366.006 297.96 366.166C298.482 358.566 286.054 359.578 287.278 369.352C283.916 371.046 284.46 375.488 284.854 379.462C284.856 380.283 285.105 381.085 285.568 381.763C286.032 382.44 286.689 382.963 287.454 383.262C289.353 383.556 291.296 383.252 293.014 382.392C300.732 379.706 302.704 380.106 301.95 370.42ZM289.58 366.328C290.58 363.728 295.806 361.558 296.096 366.68C287.68 369.122 290.588 368.258 289.044 368.68C289.116 367.875 289.296 367.084 289.58 366.328ZM292.38 380.25C289.992 380.94 288.314 381.664 287.58 380.44C287.18 379.784 286.234 372.948 288.18 371.64C288.552 371.406 297.326 368.64 297.698 368.53C299.752 367.744 299.724 368.494 300.012 370.624C301.15 378.94 299.8 377.986 292.388 380.25H292.38Z" fill="#1B1B1B"/>
<path d="M293.884 372.428C292.252 372.384 292.524 377.584 294.146 377.368C295.768 377.152 295.52 372.474 293.884 372.428Z" fill="#1B1B1B"/>
<path d="M251.496 241.2C250.54 240.53 249.146 241.414 247.514 242.376C243.588 235.962 241.344 229.998 239.152 237.044C238.766 238.28 237.586 241.118 237.69 241.318C237.708 241.35 237.678 241.394 237.624 241.366C227.496 233.69 225.156 233.44 236.166 243.156C236.682 243.496 237.056 244.22 238.166 244.134C238.55 244.093 238.912 243.938 239.207 243.688C239.501 243.438 239.713 243.106 239.816 242.734C240.708 239.496 240.656 240.428 241.598 237.456L245.496 243.8C240.76 247.116 242.398 248.078 246.896 249.986C250.706 251.626 251.036 252.074 252.134 244.114C252.244 243.322 252.444 241.862 251.496 241.2ZM249.228 248.468C249.158 248.776 249.378 248.868 248.172 248.268C247.972 248.168 245.188 246.882 244.988 246.814C246.573 245.482 248.292 244.317 250.116 243.338C250.058 244 249.718 246.252 249.228 248.466V248.468Z" fill="#1B1B1B"/>
<path d="M378.734 258.268C378.334 254.736 375.508 253.382 375.512 246.556C375.5 242.556 376.712 241.474 368.002 244.632C362.988 246.462 360.732 247.178 359.878 251.106C358.49 257.322 362.124 260.972 362.59 263.362C363.71 268.762 358.462 272.898 370.156 268.896C375.522 267.088 379.32 263.938 378.734 258.268ZM376.194 264.578C373.847 265.01 371.549 265.68 369.338 266.578C361.204 269.36 363.164 270.7 364.394 266.978C365.612 262.944 364.372 261.164 363.148 258.56C361.832 255.295 361.316 251.763 361.646 248.258C363.272 248.95 371.426 246.658 374.634 243.956C373.86 245.676 373.475 247.546 373.507 249.432C373.539 251.317 373.986 253.173 374.818 254.866C377.2 259.764 376.854 258.674 376.2 264.578H376.194Z" fill="#1B1B1B"/>
<path d="M371.782 250.966C371.482 250.092 363.77 252.746 364.07 253.62C364.37 254.494 372.082 251.84 371.782 250.966Z" fill="#1B1B1B"/>
<path d="M372.67 255.108C372.38 254.232 365.178 256.61 365.47 257.486C365.762 258.362 372.96 255.984 372.67 255.108Z" fill="#1B1B1B"/>
<path d="M370.2 259.148C366.14 260.414 364.26 262.458 370.616 260.482C376.93 258.506 374.27 257.874 370.2 259.148Z" fill="#1B1B1B"/>
<path d="M259.894 108.914C262.528 107.314 265.306 105.978 268.08 104.642C278.048 99.842 281.004 100.328 288.096 103.36C293.188 105.534 312.522 113.56 314.496 118.63C315.096 120.178 314.946 119.896 315.076 139.866C315.118 146.512 314.174 146.096 313.532 149.514C312.602 154.47 314.096 156.208 308.26 159.238C300.583 163.57 292.188 166.483 283.478 167.838C280.913 168.594 278.221 168.824 275.564 168.512C272.908 168.2 270.342 167.354 268.022 166.024C264.286 164.256 249.37 155.638 247.382 152.04C246.182 149.852 246.404 149.018 245.904 129.524C245.458 112.012 243.854 118.638 259.894 108.914Z" fill="#478AE6"/>
<path d="M310.838 111.71C282.848 99.844 281.678 98.25 276.346 100.472L249.946 111.472C248.054 112.258 246.437 113.587 245.301 115.292C244.165 116.997 243.56 119.001 243.564 121.05V150.78C243.561 152.829 244.165 154.832 245.301 156.537C246.438 158.241 248.054 159.571 249.946 160.356C278.804 172.388 277.546 172.166 280.36 172.166C283.174 172.166 281.696 172.478 310.774 160.356C312.667 159.571 314.284 158.242 315.42 156.537C316.557 154.833 317.161 152.829 317.158 150.78V121.264C317.161 119.227 316.562 117.234 315.438 115.534C314.314 113.835 312.714 112.505 310.838 111.71ZM277.96 104.34C278.721 104.025 279.538 103.864 280.362 103.867C281.186 103.869 282.001 104.036 282.76 104.356C311.602 116.606 309.542 115.658 310.24 116.126L280.372 127.5L250.504 115.914C251.226 115.434 249.064 116.386 277.96 104.34ZM251.56 156.488C250.433 156.019 249.47 155.227 248.794 154.211C248.117 153.195 247.757 152.001 247.76 150.78C247.76 118.84 247.466 120.048 248.492 118.13L278.97 129.954C278.97 171.714 279.392 168.088 277.986 167.504L251.56 156.488ZM312.96 150.78C312.963 152.001 312.603 153.195 311.927 154.211C311.25 155.227 310.287 156.02 309.16 156.488L282.74 167.504C281.34 168.09 281.756 171.75 281.756 129.96L312.238 118.36C313.254 120.242 312.972 118.982 312.972 150.78H312.96Z" fill="#1B1B1B"/>
<path d="M462.988 378.326C461.378 373.828 457.426 370.65 453.656 367.716C452.363 366.423 450.618 365.681 448.79 365.648C448.092 370.666 449.456 362.686 444.404 349.478C442.404 344.254 438.626 336.418 434.27 332.454C433.458 331.714 423.6 322.926 416.922 317.424C405.588 308.084 393.47 298.386 378.94 296.252C375.623 295.651 372.212 295.814 368.968 296.73C359.518 299.764 361.412 307.33 359.468 311.55C358.385 313.385 357.178 315.144 355.854 316.814C350.064 325.898 356.032 339.042 369.536 341.894C367.704 346.894 359 341.094 359.37 354.008C359.856 370.966 364.37 370.3 370.228 377.134C373.05 380.426 374.73 384.534 377.118 388.134C382.096 395.68 394.974 405.7 399.118 407.306C408.054 410.77 419.438 405.47 427.518 401.616C419.212 407.74 415.032 405.962 409.176 409.122C405.726 410.984 404.344 412.512 408.054 418.122C426.844 446.57 469.546 396.654 462.988 378.326Z" fill="#DBE0DD"/>
<path d="M465.2 382.966C464.6 374.352 459.134 365.966 450.896 363.888C451.588 322.156 376.612 278.38 361.166 298.444C359.867 300.223 358.995 302.277 358.618 304.447C358.242 306.618 358.37 308.845 358.994 310.958C352.612 314.026 350.69 322.854 352.75 329.998C351.41 331.771 350.458 333.805 349.953 335.97C349.449 338.134 349.405 340.38 349.823 342.562C350.241 344.745 351.113 346.815 352.382 348.64C353.65 350.464 355.288 352.002 357.188 353.154C354.588 361.39 357.588 367.514 363.306 374.082C370.924 382.826 366.392 375.698 379.656 392.808C386.28 401.38 393.548 409.534 404.456 410.824C406.606 426.96 423.52 433.05 437.706 424.946C448.158 419.064 466.116 399.944 465.2 382.966ZM360.268 314.128C364.71 322.528 374.196 325.45 382.28 328.228C387.473 330.049 392.567 332.141 397.542 334.494C394.542 338.188 391.911 342.167 389.688 346.374C376.74 340.422 377.726 344.822 366.532 338.904C353.812 332.16 355.062 318.462 360.274 314.128H360.268ZM354.788 334.728C357.417 338.803 361.351 341.867 365.946 343.418C362.935 344.572 360.413 346.726 358.8 349.518C356.916 347.607 355.558 345.242 354.857 342.652C354.156 340.061 354.136 337.334 354.8 334.734L354.788 334.728ZM391.49 398.95C385.758 393.568 380.986 385.95 375.638 379.884C371.362 375.02 364.248 369.374 361.876 363.056C359.876 357.988 361.82 351.158 366.092 348.544C372.092 344.65 382.534 347.644 389.152 350.596C409.646 359.906 417.856 381.432 419.402 380.62C419.682 380.476 418.756 377.798 416.384 373.252C412.132 365.292 409.09 362.452 410.084 363.084C418.898 368.632 426.966 371.534 427.348 370.64C427.902 369.372 404.034 355.34 401.876 354.16C399.044 351.669 395.92 349.531 392.572 347.794C403.044 330.9 411.252 324.268 410.346 323.242C409.874 322.626 404.414 326.242 398.308 333.642C396.177 332.209 393.958 330.913 391.664 329.76C384.464 325.548 378.424 324.216 372.328 320.69C366.072 317.04 361.076 311.114 363.048 304.21C365.546 295.708 375.758 298.234 384.202 300.274C398.408 304.238 411.41 311.659 422.048 321.874C433.576 332.896 445.576 346.4 445.998 362.242C446.834 389.122 413.6 420.164 391.496 398.956L391.49 398.95ZM457.09 396.972C453.148 404.426 443.832 415.858 435.326 420.806C424.254 427.33 410.926 423.806 407.862 411.006C428.566 410.834 448.476 388.822 450.69 367.346C458.366 370.358 465.166 381.908 457.096 396.978L457.09 396.972Z" fill="#1B1B1B"/>
<path d="M322.018 351.702C321.326 352.822 320.018 354.348 320.838 354.596C328.052 356.796 334.668 353.08 350.38 359.136C358.206 362.152 367.25 367.662 372.362 374.838C376.388 380.494 376.982 384.744 377.6 383.488C379.544 379.542 378.16 379.488 382.058 374.94C386.458 369.796 391.536 367.892 398.556 365.358C406.094 362.638 414.216 359.254 422.372 360.114C426.372 360.536 424.372 358.514 421.972 346.46C419.25 332.848 423.638 322.06 433.99 314.766C435.024 313.996 436.123 313.318 437.274 312.738C438.411 312.346 439.475 311.766 440.42 311.022C443.064 308.636 421.02 307.706 408.594 293.33C405.194 289.296 402.52 284.703 400.692 279.754C399.672 277.304 398.958 274.632 397.788 272.258C395.848 268.324 396.43 262.51 394.922 263.98C389.536 269.232 388.264 275.22 379.136 278.352C362.778 283.968 345.234 287.162 328.074 284.952C337.52 306.636 328.24 341.67 322.018 351.702Z" fill="#DBE0DD"/>
<path d="M442.092 310.526C442.504 309.008 425.736 305.308 412.092 291.898C396.882 276.944 397.236 261.198 395.8 261.256C395.08 260.966 392.2 267.73 384.374 273.036C382.629 274.181 380.803 275.198 378.91 276.078C351.176 289.55 328.132 282.654 327.724 284.46C326.772 284.846 329.872 290.502 330.846 306.38C332.75 337.416 318.48 353.54 320.078 354.658C319.906 356.882 340.17 355.778 353.184 361.794C360.295 365.123 366.504 370.11 371.288 376.336C379.488 387.038 374.954 386.682 382.52 378.122C399.238 358.97 424.72 362.188 424.834 360.04C428.06 359.44 414.376 333.902 435.406 315.654C439.212 312.32 442.28 311.148 442.092 310.526ZM433.616 313.288C422.962 320.142 415.974 334.488 421.346 352.028C422.076 354.658 423.078 357.205 424.334 359.628C417.828 356.75 391.674 358.334 380.152 376.34C374.482 385.09 380.018 385.362 373.732 374.674C370.281 369.02 365.57 364.239 359.968 360.703C354.366 357.168 348.023 354.974 341.434 354.292C311.674 350.63 319.816 362.26 329.28 341.036C337.794 321.938 335.362 294.396 328.372 285.018C333.726 287.796 349.942 290.054 366.432 285.322C374.668 282.998 384.988 278.406 390.742 271.684C397.906 263.284 393.564 261.084 396.058 272.128C399.306 287.068 412.396 302.064 431.474 308.528C442.48 312.26 440.76 308.672 433.616 313.288Z" fill="#1B1B1B"/>
<path d="M294.908 145.084C294.014 142.8 293.08 142.254 290.97 142.3C289.04 142.342 286.77 142.98 286.17 144.818C285.77 146.066 286.414 154.948 284.448 158.096C284.212 158.564 283.858 158.962 283.421 159.25C282.983 159.539 282.478 159.708 281.955 159.74C281.432 159.773 280.91 159.668 280.44 159.436C279.971 159.204 279.57 158.853 279.278 158.418C273.328 152.312 278.598 141.79 272.528 141.892C271.122 141.946 269.787 142.522 268.782 143.507C267.778 144.492 267.176 145.816 267.094 147.22C267.012 148.64 267.322 150.062 267.156 151.48C266.462 157.414 265.144 152.196 268.45 167.07C269.296 170.88 270.312 174.184 274.758 176.27C268.758 178.07 267.882 187.048 267.158 194.056C266.49 200.63 267.558 205.276 274.032 207.688C277.586 209.012 277.656 208.16 277.388 208.986C275.666 208.134 273.784 207.657 271.864 207.586C265.612 207.06 264.064 220.64 264.292 226.446C264.434 230.006 265.746 230.738 268.516 230.714C270.582 230.696 271.59 230.42 272.328 228.576C273.636 225.32 273.542 220.63 278.19 221.2C280.39 221.47 281.04 222.548 281.218 224.664C281.512 228.154 278.618 230.204 282.102 231.452C286.812 233.136 289.25 234.232 289.818 220.954C290.161 217.908 289.543 214.831 288.05 212.154C288.377 210.8 288.59 209.42 288.684 208.03C290.524 207.734 292.7 208.106 294.528 204.21C297.644 197.568 295.964 185.472 293.858 178.31C293.552 177.268 293.274 176.948 292.206 176.73C289.15 176.106 289.486 176.812 289.406 176.038C299.574 172.524 297.75 152.358 294.908 145.084Z" fill="#C976A3"/>
<path d="M294.872 143C294.306 142.363 293.604 141.863 292.817 141.536C292.031 141.209 291.181 141.063 290.331 141.111C289.48 141.158 288.652 141.397 287.907 141.81C287.162 142.223 286.519 142.798 286.028 143.494C285.152 144.934 285.494 146.508 285.214 150.268C284.266 162.378 279.614 160.172 278.116 155.082C276.76 150.316 277.076 144.186 275.226 142.282C274.682 141.814 274.047 141.464 273.362 141.253C272.676 141.043 271.954 140.976 271.241 141.058C270.529 141.14 269.841 141.369 269.22 141.729C268.6 142.09 268.062 142.575 267.638 143.154C265.708 146.016 261.68 169.822 272.298 176.662C267.972 179.662 266.636 186.862 266.13 192.13C265.592 197.57 266.412 203.3 270.714 206.7C262.336 211.358 262.218 228.53 264.786 230.92C267.296 233.292 272.304 232.546 272.818 228.958C273.876 227.094 274.438 224.958 275.326 223.558C276.62 221.518 278.258 221.814 278.882 222.446C279.934 223.506 278.882 230.752 280.04 231.156C281.294 234.26 286.802 234.412 288.426 231.356C290.098 229.356 293.56 215.588 289.36 210.282C289.408 210.092 289.454 209.902 289.496 209.71C299.262 207.294 298.224 195.278 297.696 186.146C297.414 182.466 296.718 178.066 293.636 176.038C302.6 168.424 298.224 146.72 294.872 143ZM279.762 218.658C276.782 219.218 275.41 215.626 275.02 215.694C274.688 215.724 274.578 217.482 275.862 219.07C272.324 220.39 271.276 225.612 271.398 229.058C270.965 229.488 270.441 229.813 269.864 230.01C269.287 230.207 268.672 230.271 268.067 230.195C267.462 230.12 266.882 229.909 266.371 229.576C265.86 229.244 265.431 228.8 265.116 228.278C265.034 228.078 265.14 228.426 265.686 225.386C267.01 218.566 267.844 210.042 274.536 208.758C275.058 208.942 275.568 209.09 276.064 209.214C275.134 210.689 274.569 212.365 274.416 214.102C274.486 214.872 274.762 215.232 274.97 215.218C275.208 215.206 275.37 214.84 275.664 214.33C276.778 212.314 278.5 211.208 279.474 208.592C281.526 203.222 277.156 198.566 276.896 194.646C276.758 192.8 278.194 189.682 276.05 191.614C272.16 195.112 276.406 201.354 276.764 205.322C275.814 205.306 274.864 205.385 273.93 205.558C267.93 201.686 268.962 193.628 270.388 186.416C271.05 182.98 272.122 179.616 275.228 178.016C276.087 178.292 276.964 178.506 277.854 178.656C277.79 179.972 277.092 185.3 278.374 184.988C278.974 184.854 282.676 178.388 280.42 170.788C279.828 168.836 279.114 166.922 278.284 165.058C277.85 164.886 277.042 166.136 277.11 168.174C277.11 169.93 277.852 173.154 277.852 175.1C268.08 174.1 268.344 159.242 268.452 149.3C268.542 143.66 268.052 144.638 268.726 144.15C269.167 143.73 269.696 143.414 270.275 143.224C270.853 143.034 271.467 142.975 272.071 143.052C272.675 143.129 273.254 143.339 273.767 143.667C274.28 143.995 274.714 144.433 275.036 144.95C275.37 145.474 272.454 160.196 280.256 162.194C278.504 162.756 278.056 164.49 278.456 164.572C278.686 164.692 279.056 164.136 279.856 163.864C281.564 163.286 285.198 164.766 286.96 169.186C288.738 173.975 288.71 179.248 286.88 184.018C285.25 187.526 281.632 188.418 279.516 186.338C278.85 185.708 278.654 185.1 278.394 185.138C277.916 185.138 277.914 187.664 280.416 189.038C278.394 189.238 275.3 191.346 279.052 190.744C289.344 189.036 288.92 216.944 279.762 218.652V218.658ZM287.898 220.628C286.898 231.228 287.698 229.848 287.298 230.284C286.868 230.694 286.358 231.011 285.8 231.216C285.242 231.42 284.648 231.507 284.055 231.472C283.461 231.437 282.882 231.28 282.352 231.012C281.822 230.743 281.353 230.368 280.974 229.91C282.002 227.274 283.106 223.022 281.5 220.69C284.289 219.406 286.53 217.17 287.82 214.384C288.21 216.443 288.236 218.554 287.898 220.622V220.628ZM293.802 181.228C294.552 183.96 295.642 197.982 293.504 202.952C292.82 204.676 291.551 206.104 289.92 206.986C290.394 201.434 288.92 192.028 283.812 189.666C289.094 188.954 291.192 183.176 291.504 177.832C292.101 178.207 292.613 178.703 293.008 179.287C293.404 179.871 293.673 180.53 293.8 181.224L293.802 181.228ZM291.348 173.57C290.748 169.126 288.624 164.288 284.424 162.57C283.052 161.97 282.872 162.294 283.562 162.012C288.362 160.092 288.468 149.012 286.23 145.278C288.786 142.978 290.666 142.316 294.668 144.544C294.34 150.788 298.434 167.278 291.348 173.566V173.57Z" fill="#1B1B1B"/>
<path d="M340.326 331.776C339.91 335.576 340.476 336.622 343.108 338.728C369.266 359.656 379.392 359.62 403.84 349.372C408.152 347.572 408.764 346.322 409.172 342.902C413.016 310.598 413.224 311.066 412.56 309.27C411.13 305.406 399.226 299.87 395.496 298.07C381.594 291.376 379.652 290.182 376.634 289.92C370.89 289.42 353.278 296.836 347.974 299.142C345.036 300.418 345.082 302.022 344.272 306.106C342.587 314.59 341.271 323.147 340.326 331.776Z" fill="#45BFF5"/>
<path d="M410.156 301.912C383.508 287.28 382.502 285.578 376.974 287.252L349.6 295.538C347.638 296.128 345.895 297.287 344.592 298.869C343.289 300.45 342.485 302.383 342.282 304.422L339.282 333.996C339.072 336.034 339.471 338.089 340.43 339.899C341.388 341.71 342.863 343.196 344.666 344.168C371.608 358.748 371.22 359.038 374.796 359.038C376.996 359.038 375.882 359.172 405.184 350.302C407.146 349.712 408.889 348.553 410.192 346.971C411.495 345.39 412.299 343.457 412.502 341.418L415.478 312.054C415.688 310.027 415.294 307.984 414.348 306.18C413.401 304.376 411.943 302.891 410.156 301.912ZM378.188 291.262C378.977 291.026 379.804 290.948 380.623 291.033C381.442 291.119 382.235 291.366 382.958 291.76C410.44 306.84 408.464 305.708 409.11 306.244L378.254 314.546L349.706 300.006C350.472 299.6 348.254 300.322 378.188 291.262ZM346.67 340.482C345.595 339.902 344.716 339.017 344.145 337.937C343.573 336.858 343.335 335.633 343.46 334.418C346.684 302.618 346.27 303.808 347.482 302.018L376.61 316.856C372.4 358.404 373.184 354.842 371.844 354.116L346.67 340.482ZM408.34 341C408.219 342.215 407.74 343.368 406.963 344.31C406.187 345.253 405.148 345.944 403.978 346.296C374.268 355.296 376.332 354.708 375.578 354.802L379.396 317.138L410.892 308.664C411.698 310.642 411.548 309.36 408.34 341Z" fill="#1B1B1B"/>
<path d="M369.93 322.834C369.448 320.33 369.428 319.922 368.836 319.502C367.75 318.734 366.182 319.768 365.222 320.176C360.636 322.126 359.14 323.086 363.822 326.362L360.022 332.562C358.134 324.028 358.142 323.814 357.752 323.45C357.447 323.105 357.028 322.883 356.571 322.824C356.115 322.765 355.653 322.873 355.27 323.128C353.334 324.476 338.27 345.854 355.404 326.448C356.35 325.378 355.672 324.52 357.902 334.38C358.48 336.932 360.418 336.494 361.158 335.426L365.842 327.776C369.77 330.104 371.386 330.37 369.93 322.834ZM363.312 323.342C368.358 321.324 367.338 320.474 367.872 323.232C368.072 324.306 368.382 326.14 368.44 326.818C366.614 325.841 364.896 324.676 363.312 323.342Z" fill="#1B1B1B"/>
<path d="M369.652 346.226C351.272 354.106 362.23 370.546 369.334 377.936C371.568 380.26 377.164 381.994 379.242 384.46C381.648 387.7 384.275 390.77 387.104 393.648C389.38 395.742 446.284 405.34 403.564 359.564C395.334 350.746 380.75 341.466 369.652 346.226Z" fill="#DBE0DD"/>
<path d="M370.42 374.484C363.56 367.568 359.142 362.224 361.988 354.052C366.374 341.452 385.564 347.748 396.452 355.282C407.734 363.082 418.082 381.312 419.408 380.626C421.054 379.774 411.65 359.826 399.268 351.284C385.138 341.546 362.972 336.036 357.384 352.402C353.746 363.058 358.888 369.854 366.952 377.93C376.952 387.942 376.914 389.478 383.336 396.274C387.814 401.012 391.446 403.042 391.826 402.532C392.254 401.958 389.598 399.174 385.998 394.068C377.076 381.42 377.044 381.162 370.42 374.484Z" fill="#1B1B1B"/>
<path d="M228.124 373.684C236.104 363.872 219.574 345.846 200.924 350.41C189.402 353.23 159.064 369.648 157.324 374.88C156.48 377.43 158.924 380.028 160.268 382.348C161.713 384.621 163.596 386.583 165.806 388.122C171.986 392.77 178.95 399.798 186.27 397.306C190.942 395.716 195.59 388.106 200.04 386.132C200.696 385.844 224.134 378.588 228.124 373.684Z" fill="#DBE0DD"/>
<path d="M196.282 353.706C184.454 356.734 174.966 362.89 165.346 368.398C159.126 371.958 159.122 371.118 164.256 366.836C212.856 326.302 242.624 359.716 227.596 376.626C224.624 379.972 220.996 381.164 216.614 382.14C198.316 386.218 191.498 394.284 190.614 393.3C190.414 393.066 191.516 391.532 194.06 389.278C207.82 377.098 219.284 379.576 224.176 373.692C231.652 364.704 221.546 347.242 196.282 353.706Z" fill="#1B1B1B"/>
<path d="M240.2 318.24C239.292 308.022 242 263.118 240.624 260.65C239.874 259.31 236.224 257.928 227.29 253.85C224.19 252.436 220.744 251.868 217.662 250.372C212.358 247.8 208.696 245.772 203.474 243.034C200.982 241.732 196.274 241.56 193.956 239.974C186.688 235.389 178.9 231.685 170.756 228.94C167.79 228.044 166.694 229.406 166.126 232.34C165.802 234.008 166.192 233.312 166.152 234.982C165.862 246.982 165.324 238.432 165.842 257.508C166.134 268.244 166.566 270.202 165.52 273.012C168.06 301.962 160.624 309.812 172.038 317.398C179.976 322.67 202.07 326.892 218.358 335.466C224.558 338.732 230.894 342.044 237.808 343.202C239.264 343.446 240.356 343.118 240.654 340.264C241.289 336.68 241.591 333.044 241.556 329.404C241.248 325.718 240.2 321.942 240.2 318.24Z" fill="#DBE0DD"/>
<path d="M177.37 310.016C172.45 307.978 173.914 307.522 174.952 241.154C177.39 241.016 179.364 243.204 181.526 244.336C210.746 259.632 230.63 264.22 231.39 265.376C231.768 265.952 230.68 328.176 230.39 329.128C229.35 332.588 228.174 330.128 226.99 329.928C224.901 329.453 222.884 328.705 220.99 327.704C214.622 324.954 207.742 322.978 201.374 320.228C188.488 314.668 195.924 317.706 177.37 310.016Z" fill="#45BFF5"/>
<path d="M186.4 289.584C186.472 288.762 186.69 285.196 186.014 284.706C185.052 284.431 184.153 283.968 183.372 283.343C182.59 282.717 181.941 281.943 181.462 281.064C181.099 280.405 180.91 279.664 180.911 278.912C180.912 278.16 181.104 277.42 181.469 276.762C181.834 276.104 182.36 275.549 182.997 275.149C183.634 274.749 184.363 274.518 185.114 274.476C185.67 274.376 187.984 274.276 188.088 274.57C184.32 264.064 181.176 258.854 190.392 264.83C192.366 260.656 192.374 260.51 192.822 260.164C195.57 258.038 197.314 265.342 199.822 262.102C200.622 261.078 200.686 259.03 201.136 258.416C201.65 257.716 203.422 257.66 203.8 260.274C204.046 261.984 203.48 265.852 205.548 266.196C206.403 266.186 207.233 265.906 207.92 265.396C210.954 263.834 213.176 265.836 212.826 267.196C212.712 267.638 212.226 268.148 212.512 268.608C213.782 267.803 215.316 267.524 216.788 267.83C217.161 268.147 217.421 268.576 217.53 269.054C217.638 269.531 217.588 270.031 217.388 270.478C216.602 272.342 214.788 272.478 214.812 273.792C214.812 274.192 214.78 274.04 216.522 277.63C217.066 278.109 217.408 278.777 217.478 279.498C220.298 279.498 220.612 279.116 221.92 280.946C222.37 281.635 222.658 282.418 222.761 283.235C222.864 284.052 222.779 284.882 222.514 285.661C222.248 286.44 221.809 287.149 221.229 287.734C220.649 288.318 219.944 288.763 219.166 289.034C215.236 290.328 220.412 290.678 219.212 298.6C218.776 301.47 218.92 305.446 216.268 306.6C215.36 307 214.824 307.31 215.828 308.692C217.196 310.574 217.978 310.134 219.028 314.39C219.635 316.273 219.79 318.273 219.48 320.228C219.196 324.364 221.27 327.492 219.492 327.01C215.886 326.253 212.449 324.841 209.352 322.844C209.152 322.754 196.024 318.268 181.182 311.29C176.628 309.148 183.7 302.37 190.382 301.89C192.672 301.726 191.268 300.324 189.782 298.788C185.312 294.128 186.2 291.884 186.4 289.584Z" fill="#C976A3"/>
<path d="M186.582 277.558C184.472 277.506 183.428 279.544 183.874 279.74C184.138 279.886 185.046 278.704 186.55 278.74C186.858 278.748 187.16 278.822 187.436 278.958C187.066 279.072 186.737 279.289 186.488 279.585C186.238 279.88 186.078 280.241 186.027 280.624C185.976 281.007 186.036 281.397 186.2 281.747C186.364 282.098 186.625 282.394 186.952 282.6C187.622 282.968 188.098 282.774 188.09 282.628C188.114 282.332 186.628 281.76 187.29 280.446C187.48 280.046 187.582 280.138 187.738 280.188C190.87 281.618 190.338 281.732 189.844 280.072C189.626 279.368 189.195 278.749 188.611 278.299C188.027 277.849 187.319 277.59 186.582 277.558Z" fill="#1B1B1B"/>
<path d="M243.074 262.11C243.074 255.088 239.074 257.668 172.904 227.148C171.99 226.723 170.985 226.536 169.979 226.602C168.974 226.668 168.002 226.987 167.152 227.528C163.196 230.03 164.512 226.94 163.772 311.02C163.758 312.219 164.102 313.395 164.76 314.398C165.419 315.4 166.362 316.183 167.468 316.646C239.506 346.918 236.668 346.974 240.514 344.424C244.36 341.874 243.098 344.96 243.074 262.11ZM236.464 341.094C164.384 310.8 168.82 312.8 168.364 312.23C170.642 311.294 173.626 308.764 173.054 308.03C172.482 307.296 168.804 309.648 167.97 310.25C168.57 227.25 168.49 232.474 168.624 232.05C169.448 233.95 173.342 240.892 174.36 240.224C175.294 239.61 171.79 233.332 169.842 230.86C170.704 230.592 165.892 228.66 237.242 260.178C235.75 260.778 230.68 263.328 231.12 264.288C231.604 265.34 237.182 262.55 238.782 261.524C238.92 261.942 238.938 256.43 239.012 339.396C239.012 340.596 239.002 339.264 235.96 335.86C231.992 331.396 225.88 327.66 234.396 337.26C235.76 338.786 237.018 340.144 237.984 341.06C237.749 341.176 237.49 341.239 237.228 341.245C236.965 341.251 236.705 341.2 236.464 341.094Z" fill="#1B1B1B"/>
<path d="M175.8 274.474C176.136 230.106 173.67 230.018 173.338 274.39C173.152 280.77 173.212 307.65 173.458 307.68C175.338 307.926 175.778 275.184 175.8 274.474Z" fill="#1B1B1B"/>
<path d="M230.306 330.076C232.036 330.276 232.454 298.94 232.488 297.664C232.818 254.368 230.352 254.28 230.026 297.582C229.916 301.6 229.832 330.026 230.306 330.076Z" fill="#1B1B1B"/>
<path d="M220.664 326.4C221.383 320.754 220.311 315.025 217.6 310.02C215.67 306.894 215.116 307.866 216.3 307.22C219.346 305.56 219.782 302.788 219.746 299.352C220.23 297.87 220.409 296.305 220.271 294.752C220.134 293.199 219.683 291.69 218.946 290.316C218.504 289.582 219.66 290.516 221.832 288.488C226.206 284.554 222.614 276.748 217.97 278.572C217.392 275.13 214.916 275.342 216.144 274.046C216.574 273.688 216.969 273.292 217.326 272.862C219.85 269.52 218.27 266.014 214.24 267.154C212.758 267.672 213.682 267.804 213.554 266.244C213.394 264.086 210.454 262.09 206.062 265.084C205.042 265.814 205.308 265.884 205.062 264.52C204.64 262.146 204.114 258.794 202.958 257.804C202.334 257.166 201.316 256.984 200.32 258.362C199.734 259.312 199.27 260.332 198.938 261.398C198.29 262.974 198.026 261.576 196.212 259.714C194.586 258.044 192.612 258.02 191.502 260.038C191.083 260.936 190.756 261.874 190.528 262.838C190.475 263.081 190.374 263.312 190.232 263.516C188.864 263.2 187.5 261.176 185.542 260.952C181.232 260.684 184.656 267.238 187.006 273.496C179.52 272.122 177.146 282.984 185.672 285.866C184.638 291.542 185.822 297.37 190.272 300.946C185.044 301.614 180.362 304.506 179.172 309.706C153.772 301.062 228.428 333.128 229.35 330.926C229.482 330.582 226.126 328.864 220.664 326.4ZM215.296 305.46C211.368 307.63 195.31 306.048 195.13 298.946C195.042 295.47 196.53 292.234 200.984 289.576C200.825 290.154 200.849 290.767 201.053 291.331C201.257 291.895 201.63 292.381 202.122 292.724C205.052 294.29 206.456 292.38 207.168 295.654C207.28 296.148 207.478 296.414 207.618 296.38C207.758 296.346 207.856 296.106 207.984 295.668C209.618 290.068 200.468 292.562 203.42 289.268C204.734 287.75 212.586 287.54 215.07 289.536C217.682 291.652 212.054 291.392 211.008 293.844C210.608 294.8 210.734 296.724 211.07 296.82C211.526 296.952 211.808 295.19 212.296 294.576C213.27 293.35 216.912 294.028 217.696 291.176C218.322 292.764 218.547 294.481 218.352 296.176C217.888 302.082 214.49 301.244 209.046 300.996C182.314 299.114 211.792 304.428 216.272 302.88C217.712 302.42 217.896 301.608 217.472 302.88C217.296 303.431 217.014 303.942 216.64 304.384C216.267 304.825 215.81 305.189 215.296 305.454V305.46ZM198.908 288.392C198.242 288.014 197.67 287.488 197.238 286.855C196.806 286.222 196.524 285.499 196.414 284.74C200.266 284.45 199.728 284.41 199.742 284.604C199.82 285.726 199.632 286.288 201.042 286.106C202.452 285.924 202.168 285.362 202.1 284.482C204.67 284.748 204.83 285.236 205.7 284.882C205.346 286.584 205.328 286.216 204.346 286.464C203.321 286.679 202.398 287.231 201.724 288.032C201.108 288.261 200.507 288.528 199.924 288.832C199.575 288.709 199.235 288.56 198.908 288.386V288.392ZM209.2 286C205.174 286.032 206.766 286.702 206.51 284.528C206.958 284.608 209.758 284.34 210.792 284.276C210.708 284.476 210.826 284.804 210.902 285.502C210.956 285.994 213.338 286.264 213.256 285.302C213.224 284.952 213.176 284.642 213.136 284.36C213.988 284.47 215.688 284.854 215.754 284.856C213.95 287.966 214.836 286.094 209.2 286ZM216.274 281.552C216.886 282.886 216.222 283.878 215.674 283.694C213.381 283.092 210.98 283.023 208.656 283.494C205.228 283.87 207.888 284.056 206.684 281.294C207.169 280.436 207.879 279.727 208.736 279.241C209.594 278.756 210.567 278.513 211.552 278.539C212.537 278.564 213.497 278.858 214.328 279.387C215.159 279.917 215.83 280.662 216.27 281.544L216.274 281.552ZM205.798 282.952C205.724 284.352 204.578 283.624 203.008 283.436C199.68 282.992 196.246 284.06 195.852 283.754C195.026 283.308 196.136 278.628 200.828 278.656C203.756 278.652 206 281.294 205.8 282.936L205.798 282.952ZM219.578 280.266C222.724 281.348 222.618 287.708 217.648 288.81C217.506 288.692 215.796 287.472 215.464 287.29C216.222 286.525 216.718 285.54 216.88 284.476C216.983 284.396 217.076 284.305 217.16 284.206C217.222 284.406 217.342 284.582 217.505 284.713C217.669 284.843 217.868 284.921 218.076 284.936C218.168 284.876 218.384 285.312 218.26 285.57C218.018 286.156 216.98 286.682 217.134 286.994C217.27 287.394 218.816 287.22 219.366 285.994C219.46 285.778 219.506 285.544 219.501 285.309C219.496 285.074 219.44 284.842 219.337 284.631C219.234 284.419 219.087 284.232 218.905 284.082C218.724 283.933 218.512 283.824 218.284 283.764C218.484 283.476 219.354 283.264 219.658 283.728C220.168 284.554 220.502 284.216 220.458 283.478C220.382 282.194 218.708 281.95 217.704 282.694C217.718 282.13 217.598 281.57 217.352 281.062C217.238 280.826 218.454 279.864 219.574 280.25L219.578 280.266ZM192.38 263.4C192.534 262.878 193.074 260.488 193.61 260.37C195.12 259.272 198.18 268.37 200.782 260.912C200.85 260.712 201.582 258.678 201.864 258.728C202.6 257.572 204.3 269.372 203.844 271.242C203.8 271.442 203.79 271.31 189.382 273.76C189.518 274.14 188.782 272.27 188.63 271.868C189.03 271.806 202.536 269.19 202.476 268.702C202.402 268.062 193.504 269.166 188.392 271.256C181.284 252.934 189.938 271.684 192.38 263.4ZM187.14 286.174C190.234 286.506 191.388 284.362 190.376 284.702C186.558 285.988 181.188 282.102 182.592 277.714C183.592 274.59 187.52 274.818 189.934 276.524C191.934 277.966 192.174 279.766 192.48 279.698C192.612 279.688 192.752 279.238 192.614 278.418C192.352 277.371 191.846 276.402 191.138 275.588C205.42 273.01 204.926 273.108 205.282 272.588C205.8 271.034 205.892 269.369 205.546 267.768C207.62 266.568 209.05 265.168 211.01 265.8C213.452 266.744 207.926 271.104 208.962 271.74C209.172 271.99 210.542 270.868 212.836 269.572C215.066 268.388 217.264 268.22 216.292 270.518C215.608 272.204 214.43 272.264 213.828 273.766C212.81 276.24 215.666 276.26 216.182 279.366C215.512 278.667 214.692 278.131 213.783 277.798C212.874 277.466 211.902 277.345 210.939 277.445C209.977 277.546 209.05 277.865 208.229 278.378C207.409 278.892 206.717 279.586 206.206 280.408C205.533 279.358 204.561 278.533 203.415 278.039C202.269 277.546 201.002 277.407 199.776 277.639C198.55 277.871 197.422 278.465 196.536 279.344C195.651 280.223 195.048 281.346 194.806 282.57C194.762 283.17 194.628 284.246 195.536 284.628C195.468 285.619 195.712 286.607 196.234 287.452C196.756 288.297 197.529 288.957 198.446 289.34C199.188 289.64 198.798 289.058 196.522 291.26C195.476 292.249 194.647 293.446 194.088 294.773C193.53 296.101 193.255 297.53 193.28 298.97C193.266 300.94 194.428 301.624 192.396 300.12C187.95 296.878 186.932 291.668 187.14 286.174ZM190.374 313.822C192.043 312.69 193.956 311.971 195.957 311.723C197.958 311.475 199.99 311.706 201.884 312.396C210.028 315.146 212.084 320.538 212.712 320.268C213.148 320.088 211.994 316.778 208.692 314.398C200.352 308.228 192.452 309.76 189.58 313.516C186.068 312.168 182.966 311.022 180.468 310.148C182.746 305.136 186.868 303.548 192.19 302.2C193.105 302.683 194.07 303.064 195.068 303.336C198.154 307.06 202.268 307.43 206.78 308.136C209.185 308.578 211.653 308.562 214.052 308.088C217.958 312.804 218.834 319.596 219.194 325.728C210.63 321.912 199.342 317.278 190.374 313.822Z" fill="#1B1B1B"/>
<path d="M230.962 265.104C231.41 263.982 176.792 241.05 176.306 242.144C175.462 244.042 230.2 266.988 230.962 265.104Z" fill="#1B1B1B"/>
<path d="M311.142 217.968C312.656 215.624 313.888 215.87 314.964 217.368C318.478 222.228 333.076 242.82 332.062 248.8C331.619 250.271 330.826 251.612 329.75 252.708C328.674 253.805 327.348 254.623 325.886 255.094C324.47 255.524 322.486 256.602 321.086 257.058C319.487 257.871 317.93 258.767 316.424 259.742C311.5 261.942 305.91 257.942 296.164 252.186C293.672 250.716 294.352 248.572 295.564 246.026C300.129 236.339 305.334 226.965 311.142 217.968Z" fill="#45BFF5"/>
<path d="M310.158 288.29C310.92 289.858 311.996 292.44 314.118 291.618C315.344 291.142 315.588 289.566 316.136 288.372C316.779 287.221 317.588 286.17 318.536 285.254C320.46 283.07 333.198 262.604 331.92 260.054C331.08 258.376 326.562 262.36 319.772 264.93C317.298 266.087 314.574 266.607 311.847 266.444C309.121 266.281 306.479 265.439 304.16 263.996C299.278 261.488 296.676 259.638 294.57 260.938C293.532 261.58 293.828 261.538 294.282 262.804C299.662 277.696 307.34 282.49 310.158 288.29Z" fill="#45BFF5"/>
<path d="M293.284 252.2C295.172 254.926 310.684 262 312.998 261.684C313.16 261.684 313.298 261.574 313.482 261.684L313.942 261.554C327.404 255.154 338.802 254.89 330.542 240.554C325.096 231.622 314.924 214.178 313.814 214.824C312.49 213.99 297.378 239.144 296.666 240.382C294.6 244.166 291.834 248.762 293.284 252.2ZM312.014 257.876C306.664 255.94 301.522 253.476 296.662 250.518C295.88 249.948 296.784 250.032 299.828 249.454C305.596 248.358 310.864 247.016 312.374 246.822C312.422 259.672 313.116 258.23 312.014 257.878V257.876ZM314.342 257.382C312.88 258.002 313.598 259.328 314.024 246.75C316.19 246.848 323.424 248.87 329.45 249.82C327.8 252.632 318.254 255.724 314.342 257.384V257.382ZM317.048 223.332C326.262 242.638 329.788 244.414 329.792 248.422C329.776 249.468 331.17 249.08 317.046 245.396C316.075 245.15 315.083 244.996 314.084 244.936C314.25 239.29 314.57 220.834 313.908 215.948C314.793 218.475 315.842 220.943 317.048 223.334V223.332ZM296.678 248.892C298.064 244.514 309.138 227.386 313.278 217.106C312.606 223.436 312.374 237.956 312.368 244.996C308.694 245.416 296.562 249.264 296.678 248.894V248.892Z" fill="#1B1B1B"/>
<path d="M333.758 256.944C333.445 256.739 333.085 256.618 332.711 256.595C332.338 256.572 331.965 256.647 331.63 256.812C326.618 259.276 321.386 261.516 315.09 264.488C312.388 265.766 313.822 265.874 309.202 264.088C292.84 257.738 295.352 254.208 292.79 255.362C287.39 257.802 306.952 288.5 312.656 292.67C316.392 295.4 331.336 267.57 333.512 263.016C334.468 260.974 335.56 258.128 333.758 256.944ZM298.576 265.584C295.852 259.984 295.356 262.604 307.882 267.462C311.156 268.732 311.232 268.762 311.708 268.908C313.462 269.508 312.258 266.808 312.212 279.886C312.149 283.628 312.303 287.371 312.674 291.096C310.7 287.24 304.446 277.648 298.576 265.584ZM313.264 292.44C312.796 290.782 313.974 295.544 314.028 279.892C314.07 267.848 313.134 269.224 313.966 268.97L330.19 261.544C323.74 275.102 313.696 291.11 313.264 292.44Z" fill="#1B1B1B"/>
<path d="M272.422 345.884C269.988 344.792 267.775 343.263 265.892 341.372C264.655 339.532 263.245 337.813 261.682 336.24C258.73 332.842 256.283 329.036 254.416 324.94C253.666 323.028 253.452 321.306 251.524 311.07C249.78 301.812 248.17 290.644 256.18 284.286C262.546 279.232 274.656 280.778 279.98 283.13C286.816 286.15 296.274 296.348 299.088 309.642C300.318 315.442 301.162 330.738 298.806 336.18C294.102 347.034 274.64 346.6 272.422 345.884Z" fill="#C976A3"/>
<path d="M286.226 285.186C277.912 277.44 270.866 278.786 259.84 280.504C242.73 283.162 245.894 333.32 270.662 346.006C274.426 347.894 282.502 347.082 286.698 346.238C292.32 345.038 294.698 344.324 297.586 340.91C305.846 329.9 301.4 298.69 286.226 285.186ZM257.884 284.256C259.356 283.306 267.124 282.31 268.528 282.174C266.91 283.264 265.527 284.669 264.462 286.304C263.397 287.939 262.671 289.771 262.328 291.692C257.824 292.584 258.282 293.092 253.282 292.178C254.022 289.322 255.4 285.866 257.884 284.256ZM252.8 294.304C259.12 293.518 255.442 293.636 261.836 294.044C261.201 298.504 261.186 303.03 261.792 307.494C257.05 308.694 257.938 309.114 252.464 308.512C251.833 303.788 251.946 298.993 252.8 294.304ZM252.762 310.598C259.762 309.132 257.562 310.052 262.116 309.856C262.847 314.387 263.978 318.844 265.494 323.176C259.724 324.082 261.924 324.018 256.136 323.308C254.611 319.189 253.482 314.934 252.764 310.6L252.762 310.598ZM256.988 325.466C263.404 324.294 263.378 325.506 266.372 325.518C267.783 329.183 269.619 332.67 271.844 335.906C267.508 337.358 268.422 336.826 263.746 336.868C260.932 333.432 258.657 329.587 257 325.466H256.988ZM265.388 338.666C269.612 337.284 271.388 338.334 273.472 337.952C275.928 340.793 279.125 342.896 282.706 344.026C274.812 344.876 270.766 344.116 265.388 338.674V338.666ZM299.064 330.016C297.55 340.656 293.028 342.094 287 343.344C274.182 342.91 267.738 326.786 264.846 314.274C256.794 279.368 276.786 272.874 291.152 295C297.78 305.4 300.577 317.785 299.064 330.024V330.016Z" fill="#1B1B1B"/>
<path d="M294.78 314.9C295.564 321.75 295.406 331.9 290.418 336.572C289.843 337.167 289.155 337.642 288.395 337.968C287.634 338.295 286.816 338.467 285.989 338.474C285.161 338.482 284.34 338.325 283.574 338.012C282.808 337.699 282.112 337.237 281.526 336.652C267.67 325.48 261.632 282.452 278.242 287.55C284.73 289.54 289.562 298.598 292.154 304.87C294.668 311.114 294.906 310.996 292.826 304.624C284.426 279.654 265.626 279.258 266.298 302.544C266.938 319.406 279.784 349.238 291.462 337.682C296.748 332.494 296.836 322.178 295.488 314.788C294.178 308.158 293.936 308.314 294.78 314.9Z" fill="#1B1B1B"/>
<path d="M283.342 310.27C284.208 309.437 284.83 308.383 285.141 307.221C285.452 306.06 285.44 304.836 285.107 303.682C284.773 302.527 284.13 301.485 283.248 300.669C282.366 299.853 281.277 299.293 280.1 299.05C279.876 296.868 278.472 295.594 278.1 295.85C277.68 296.122 278.26 297.874 278.554 298.942C276.198 298.954 276.608 299.342 276.46 298.722C275.608 295.204 274.078 295.922 275.042 299.362C274.476 299.671 273.887 299.939 273.282 300.162C273.966 302.87 276.312 308.532 277.462 313.162C281.75 330.422 279.75 326.1 282.35 325.996C282.93 328.756 285.428 330.488 283.982 326.164C283.858 325.802 283.82 325.874 284.098 325.832C286.288 325.506 285.914 325.068 286.066 325.632C286.952 328.886 288.51 328.774 287.54 325.208C287.35 324.516 287.266 324.78 287.758 324.408C292.904 320.626 288.098 311.91 283.342 310.27ZM276.754 301.91C277.542 301.485 278.414 301.24 279.308 301.192C280.202 301.144 281.095 301.294 281.924 301.632C282.501 301.966 282.983 302.442 283.326 303.013C283.668 303.585 283.86 304.235 283.883 304.901C283.905 305.567 283.759 306.228 283.456 306.822C283.153 307.416 282.704 307.923 282.152 308.296C280.911 309.058 279.545 309.596 278.118 309.884C277.58 307.102 277.15 304.172 276.754 301.91ZM282.526 323C281.073 319.815 279.842 316.532 278.844 313.176C280.26 312.573 281.823 312.406 283.334 312.694C288.638 314.38 292.11 323.582 282.526 323Z" fill="#1B1B1B"/>
<path d="M333.954 420.356C336.588 418.756 339.366 417.42 342.14 416.084C352.108 411.284 355.064 411.77 362.156 414.8C367.248 416.976 386.582 425 388.556 430.072C389.156 431.62 389.006 431.338 389.136 451.308C389.178 457.954 388.234 457.538 387.592 460.956C386.662 465.912 388.156 467.65 382.32 470.68C374.643 475.011 366.248 477.925 357.538 479.28C354.973 480.036 352.281 480.265 349.624 479.954C346.968 479.642 344.402 478.796 342.082 477.466C338.346 475.698 323.43 467.08 321.442 463.48C320.242 461.294 320.464 460.46 319.964 440.966C319.518 423.454 317.914 430.08 333.954 420.356Z" fill="#478AE6"/>
<path d="M384.898 421.696C356.898 409.83 355.738 408.234 350.406 410.456L324.006 421.456C322.114 422.241 320.497 423.571 319.36 425.276C318.224 426.981 317.619 428.985 317.622 431.034V460.76C317.619 462.809 318.224 464.813 319.36 466.518C320.497 468.223 322.114 469.552 324.006 470.338C352.922 482.394 351.606 482.138 354.42 482.138C357.234 482.138 355.534 482.548 384.834 470.338C386.727 469.552 388.343 468.223 389.48 466.518C390.616 464.813 391.221 462.809 391.218 460.76V431.248C391.221 429.211 390.623 427.218 389.499 425.518C388.375 423.819 386.774 422.49 384.898 421.696ZM352.018 414.326C352.779 414.01 353.595 413.848 354.419 413.851C355.244 413.853 356.059 414.019 356.818 414.34C385.706 426.6 383.592 425.64 384.298 426.112L354.434 437.484L324.568 425.898C325.292 425.414 323.2 426.334 352.018 414.326ZM325.618 466.472C324.491 466.003 323.528 465.211 322.852 464.195C322.175 463.179 321.816 461.985 321.818 460.764C321.818 428.898 321.512 430.05 322.55 428.114L353.028 439.938C353.028 481.698 353.45 478.072 352.044 477.488L325.618 466.472ZM387.018 460.764C387.021 461.985 386.661 463.179 385.985 464.195C385.308 465.211 384.345 466.003 383.218 466.472L356.8 477.488C355.4 478.074 355.818 481.734 355.818 439.944L386.298 428.344C387.314 430.224 387.032 428.986 387.032 460.764H387.018Z" fill="#1B1B1B"/>
<path d="M216.894 420.356C219.528 418.756 222.306 417.42 225.08 416.084C235.046 411.284 238.004 411.77 245.096 414.8C250.188 416.976 269.522 425 271.496 430.072C272.096 431.62 271.946 431.338 272.076 451.308C272.118 457.954 271.174 457.538 270.532 460.956C269.6 465.912 271.096 467.65 265.26 470.68C257.583 475.011 249.188 477.925 240.478 479.28C237.913 480.036 235.221 480.265 232.564 479.954C229.908 479.642 227.342 478.796 225.022 477.466C221.286 475.698 206.37 467.08 204.382 463.48C203.182 461.294 203.404 460.46 202.904 440.966C202.458 423.454 200.854 430.08 216.894 420.356Z" fill="#478AE6"/>
<path d="M267.838 421.878C239.852 410.01 238.676 408.418 233.346 410.638L206.946 421.638C205.054 422.423 203.438 423.753 202.301 425.457C201.165 427.162 200.561 429.165 200.564 431.214V460.94C200.56 462.989 201.165 464.993 202.301 466.698C203.437 468.403 205.054 469.732 206.946 470.518C235.862 482.576 234.546 482.328 237.36 482.328C240.306 482.328 239.776 482.192 267.774 470.518C269.667 469.733 271.284 468.404 272.421 466.699C273.557 464.993 274.162 462.989 274.158 460.94V431.432C274.161 429.395 273.562 427.402 272.438 425.702C271.314 424.003 269.714 422.673 267.838 421.878ZM234.96 414.508C235.721 414.192 236.537 414.031 237.361 414.033C238.185 414.035 239.001 414.202 239.76 414.522C268.622 426.762 266.528 425.82 267.24 426.294L237.378 437.668L207.504 426.08C208.218 425.6 205.898 426.622 234.96 414.508ZM208.56 466.656C207.433 466.187 206.47 465.394 205.793 464.378C205.117 463.361 204.757 462.167 204.76 460.946C204.76 429.008 204.466 430.214 205.492 428.296L235.97 440.122C235.97 481.898 236.392 478.256 234.986 477.67L208.56 466.656ZM269.96 460.946C269.963 462.167 269.603 463.361 268.927 464.378C268.25 465.394 267.287 466.187 266.16 466.656L239.74 477.67C238.34 478.256 238.754 481.918 238.754 440.128L269.238 428.518C270.254 430.41 269.972 429.148 269.972 460.946H269.96Z" fill="#1B1B1B"/>
<path d="M365.4 422.136C365.25 419.6 361.614 412.464 358.356 405.866C357.49 403.612 355.824 401.757 353.676 400.654C352.53 399.873 351.221 399.365 349.848 399.17C348.475 398.974 347.076 399.096 345.758 399.526C342.786 400.15 343.4 400.268 342.606 399.308C344.406 399.146 345.298 398.722 346.5 396.398C350.87 387.956 346.672 385.154 345.076 378.398C344.674 375.458 343.908 372.579 342.796 369.828C340.61 364.028 340.292 359.81 333.08 363.9C331.148 364.996 331.008 365.774 331.702 367.542C332.81 370.362 335.992 379.22 335.418 382.208C335.37 382.809 335.154 383.384 334.796 383.868C334.437 384.352 333.95 384.727 333.39 384.948C332.829 385.17 332.218 385.23 331.625 385.122C331.033 385.013 330.482 384.741 330.036 384.336C326.59 382.058 326.618 378.694 326.088 375.964C325.404 372.458 322.646 366.718 319.188 366.324C318.336 366.312 317.501 366.562 316.797 367.041C316.092 367.519 315.552 368.204 315.25 369C314.384 372.672 322.45 393.226 324.94 396.084C326.519 397.769 328.607 398.889 330.884 399.272C331.928 405.288 333.038 402.856 330.808 404.472C329.992 405.34 329.412 406.402 329.122 407.557C328.833 408.712 328.843 409.922 329.152 411.072C330.104 416.38 339.224 427.072 341.304 428.49C345.366 431.278 350.576 429.924 348.798 425.332C348.184 424.07 347.414 422.89 346.506 421.82C342.142 415.722 346.184 411.076 349.53 412.02C352.318 412.798 352.93 416.454 353.79 418.466C355.049 421.262 356.89 423.757 359.19 425.784C359.796 426.286 360.542 426.59 361.326 426.653C362.111 426.716 362.896 426.536 363.574 426.138C364.253 425.739 364.792 425.141 365.119 424.425C365.446 423.709 365.544 422.91 365.4 422.136Z" fill="#C976A3"/>
<path d="M365.926 419.276C365.182 412.774 357.994 397.412 348.526 397.066C352.714 388.53 345.254 369.386 341.79 364.432C342.244 359.864 333.15 359.522 331.404 364.278C330.32 367.292 335.122 378.36 334.88 381.634C334.79 383.542 333.176 384.134 331.68 382.926C329.87 381.462 326.632 372.476 324.232 369.738C324.168 369.13 323.985 368.54 323.693 368.003C323.401 367.466 323.006 366.992 322.53 366.608C322.055 366.223 321.508 365.937 320.921 365.764C320.335 365.592 319.72 365.537 319.112 365.602C315.626 365.782 314.112 369.292 315.232 370.802C312.92 373.278 319.452 391.876 322.572 396.42C323.307 397.612 324.274 398.643 325.417 399.453C326.559 400.262 327.852 400.833 329.22 401.132C329.678 402.784 329.924 402.932 329.724 402.752C328.744 403.883 328.058 405.239 327.727 406.699C327.396 408.159 327.431 409.679 327.828 411.122C329.276 417.122 338.866 429.63 341.38 428.894C341.653 429.358 342.046 429.742 342.516 430.004C346.29 432.352 352.178 428.984 349.264 425.328C348.264 422.128 345.054 415.02 348.174 414.564C352.038 413.998 353.878 421.946 356.812 424.398C357.394 427.598 365.098 429.398 365.57 425.198C366.1 423.27 366.221 421.253 365.926 419.276ZM319.308 378.706C316.648 369.086 315.006 371.718 316.362 369.368C316.651 368.86 317.07 368.437 317.575 368.143C318.081 367.849 318.655 367.694 319.24 367.694C320.063 367.679 320.877 367.864 321.612 368.235C322.347 368.605 322.981 369.149 323.458 369.82C323.404 371.952 326.164 379.684 326.944 381.72C327.291 382.833 327.878 383.856 328.663 384.717C329.448 385.579 330.412 386.258 331.488 386.706C328.488 389.394 328.17 394.506 328.646 398.278C323.494 393.276 321.492 386.56 319.308 378.706ZM348.42 426.14C348.326 427.476 348.276 427.916 346.488 428.514C344.842 428.826 343.148 428.781 341.52 428.382C341.12 426.894 332.174 414.33 331.226 410.316C330.861 409.007 330.959 407.611 331.504 406.366C334.032 410.46 338.934 414.546 343.704 414.566C342.8 418.066 345.934 424.234 348.42 426.14ZM364.152 424.78C363.244 426.362 359.574 425.162 358.396 424.498C356.996 423.712 358.022 424.398 356.492 419.808C355.216 416.278 353.724 411.85 349.442 411.138C350.07 409.668 349.564 408.406 349.282 408.474C348.998 408.49 348.95 409.196 348.384 410.03C344.62 415.684 332.08 407.802 331.72 395.194C331.246 384.622 337.684 387.304 337.858 387.094C337.99 386.976 337.806 386.27 336.704 385.65C340.362 381.97 336.848 375.82 334.904 371.282C334.191 369.432 333.217 367.694 332.012 366.12C332.974 364.226 334.524 362.72 338.562 362.92C339.604 362.972 340.032 363.484 340.8 364.216C340.144 370.468 351.55 391.278 343.416 398.07C341.698 394.304 341.594 389.444 339.186 387.642C337.064 386.054 338.26 388.642 338.484 390.754C339.024 395.842 339.17 400.272 343.6 403.814C344.958 404.876 345.894 405.368 346.694 406.042C348.278 407.242 348.766 408.362 349.262 408.342C350.11 408.252 349.58 405.932 348.518 404.376C347.561 403.216 346.532 402.116 345.438 401.084C348.358 399.954 351.638 400.484 354.898 404.182C358.116 407.768 365.854 421.636 364.152 424.78Z" fill="#1B1B1B"/>
<path d="M270.492 377.654C269.361 376.259 267.767 375.317 266 375C261.452 374.774 260.934 383.682 258.098 387.2C256.078 389.706 253.318 389.486 252.6 388.336C252.143 386.834 252.193 385.224 252.744 383.754C253.869 381.651 254.709 379.407 255.242 377.082C256.089 374.904 256.114 372.493 255.312 370.298C254.53 368.666 250.566 367.75 248.448 369.924C247.491 371.127 246.809 372.524 246.448 374.018C244.772 378.84 236.758 391.39 244.822 397.218C244.332 400.418 244.654 399.896 243.68 399.618C236.096 397.472 226.118 418.916 226.112 421.46C226.157 422.221 226.454 422.946 226.954 423.521C227.455 424.096 228.132 424.49 228.88 424.64C232.968 425.512 234.952 420.84 236.336 418.68C238.49 415.318 241.048 415.092 242.058 415.772C242.754 416.541 243.234 417.482 243.448 418.497C243.662 419.513 243.603 420.567 243.276 421.552C242.69 423.476 240.69 425.908 242.046 427.986C243.468 430.166 244.268 430.308 245.63 430.328C249.262 430.384 247.748 430.672 251.468 426.802C253.757 423.787 255.834 420.617 257.684 417.314C258.96 414.91 259.303 412.119 258.647 409.477C257.992 406.835 256.384 404.529 254.132 403C254.632 401.082 254.252 401.558 255.242 401.738C258.61 401.802 261.901 400.727 264.582 398.688C266.511 396.032 267.978 393.07 268.924 389.926C269.272 388.66 269.458 387.354 269.804 386.088C270.47 383.686 272.216 380.274 270.492 377.654Z" fill="#C976A3"/>
<path d="M271.964 377.722C270.834 374.444 266.488 372.602 263.838 375.04C261.322 375.474 257.058 389.094 254.638 388.098C251.454 386.984 257.978 375.298 256.918 371.414C256.695 370.704 256.324 370.05 255.829 369.495C255.334 368.94 254.727 368.497 254.048 368.194C253.368 367.891 252.632 367.737 251.889 367.74C251.145 367.744 250.41 367.905 249.734 368.214C247.22 369.482 232.498 387.872 241.908 398.388C236.108 399.362 233.908 402.692 231.294 406.956C229.354 410.188 224.81 418.888 225.326 422.494C225.794 426.128 231.604 427.212 233.184 424.456C234.184 424.394 236.168 422.482 237.89 419.918C238.222 419.254 238.758 418.713 239.419 418.374C240.081 418.035 240.833 417.917 241.566 418.036C245.92 419.356 239.934 425.728 241.494 427.184C241.594 427.925 241.871 428.631 242.303 429.241C242.735 429.852 243.307 430.349 243.972 430.69C244.637 431.031 245.375 431.207 246.123 431.202C246.87 431.197 247.606 431.011 248.266 430.66C252.066 428.472 264.02 413.732 258.254 404.622C266.678 403.562 268.872 395.75 270.682 388.07C270.954 386.868 272.8 378.628 271.964 377.722ZM232.55 423.826C229.564 424.344 227.854 423.94 226.314 421.328C229.314 418.296 235.192 405.512 238.644 403.306C239.886 402.503 241.291 401.988 242.758 401.798C242.492 403.027 242.019 404.201 241.358 405.27C237.676 411.138 239.406 414.882 244.338 407.09C246.858 403.028 246.62 398.614 247.478 394.794C248.278 391.142 249.396 390.146 249.016 389.458C248.48 388.41 244.834 389.532 243.842 395.224C238.242 387.274 249.69 373.434 248.952 369.724C251.384 369.79 253.168 368.884 255.952 372.524C253.642 373.924 249.212 384.226 250.324 387.982C249.96 388.182 249.102 388.912 249.31 389.294C249.538 389.718 250.554 389.51 251.2 389.666C255.708 389.666 253.072 415.088 243.8 414.764C240.556 414.592 240.77 411.642 240.044 411.592C239.572 411.512 238.746 412.932 239.312 414.68C235.4 415.736 232.334 421.922 232.55 423.826ZM248.628 429.202C245.902 429.288 244.91 429.456 242.628 427.076C244.19 426.186 245.4 424.787 246.055 423.113C246.71 421.438 246.771 419.59 246.228 417.876C251.296 416.746 253.758 411.288 255.168 406.296C259.824 412.974 249.694 423.456 248.628 429.2V429.202ZM269.36 382.126C265.474 392.154 265.414 401.24 256.398 401.252C257.049 397.996 256.968 394.635 256.162 391.414C260.094 390.092 263.27 382.138 264.11 378.078C264.624 375.432 264.002 376.056 265.11 375.828C266.166 375.769 267.22 375.967 268.182 376.406C269.144 376.844 269.985 377.509 270.634 378.344C271.126 378.89 270.958 378 269.36 382.126Z" fill="#1B1B1B"/>
</svg>
